SplineFontDB: 3.0
FontName: Gonville
FullName: Gonville
FamilyName: Gonville
Weight: Regular
Copyright: Designed by Grzegorz Pruchniakowski. This font is licensed under the SIL Open Font License (http://scripts.sil.org/OFL).
Version: 2.2 alpha1
ItalicAngle: 0
UnderlinePosition: -50
UnderlineWidth: 50
Ascent: 800
Descent: 200
sfntRevision: 0x00020000
LayerCount: 2
Layer: 0 0 "Warstwa t+AUIA-a"  1
Layer: 1 0 "Plan pierwszy"  0
XUID: [1021 759 24314 19810]
FSType: 0
OS2Version: 3
OS2_WeightWidthSlopeOnly: 0
OS2_UseTypoMetrics: 1
CreationTime: -827350080
ModificationTime: 1389242143
PfmFamily: 81
TTFWeight: 400
TTFWidth: 5
LineGap: 0
VLineGap: 0
Panose: 5 6 0 0 0 0 0 0 0 0
OS2TypoAscent: 2012
OS2TypoAOffset: 0
OS2TypoDescent: -2012
OS2TypoDOffset: 0
OS2TypoLinegap: 0
OS2WinAscent: 2012
OS2WinAOffset: 0
OS2WinDescent: 2012
OS2WinDOffset: 0
HheadAscent: 2012
HheadAOffset: 0
HheadDescent: -2012
HheadDOffset: 0
OS2SubXSize: 650
OS2SubYSize: 600
OS2SubXOff: 0
OS2SubYOff: 75
OS2SupXSize: 650
OS2SupYSize: 600
OS2SupXOff: 0
OS2SupYOff: 350
OS2StrikeYSize: 50
OS2StrikeYPos: 285
OS2Vendor: 'SMTG'
OS2CodePages: 00000001.00000000
OS2UnicodeRanges: 00000000.12004000.01000000.00000000
Lookup: 3 0 0 "'ss01' Styl 1 w tablicy 0"  {"Podtablica 'ss01' Styl 1 w tablicy 0"  } ['ss01' ('DFLT' <'dflt' > ) ]
Lookup: 3 0 0 "'ss02' Styl 2 w tablicy 1"  {"Podtablica 'ss02' Styl 2 w tablicy 1"  } ['ss02' ('DFLT' <'dflt' > ) ]
Lookup: 3 0 0 "'ss03' Styl 3 w tablicy 2"  {"Podtablica 'ss03' Styl 3 w tablicy 2"  } ['ss03' ('DFLT' <'dflt' > ) ]
Lookup: 3 0 0 "'salt' Alternatywy stylistyczne w tablicy 3"  {"Podtablica 'salt' Alternatywy stylistyczne w tablicy 3"  } ['salt' ('DFLT' <'dflt' > ) ]
Lookup: 4 0 1 "'liga' Ligatury zwyk+AUIA-e w tablicy 4"  {"Podtablica 'liga' Ligatury zwyk+AUIA-e w tablicy 4"  } ['liga' ('DFLT' <'dflt' > ) ]

StartChar: u0266D
Encoding: 9837 9837 2
Width: 185
Flags: W
HStem: 97 47<33.9534 105.302>
VStem: -15 30<-112 76.2842 108 459.99> 108 77<-15.9748 94.5009>
LayerCount: 2
Fore
SplineSet
-15 -153 m 2
 -15 446 l 1
 -15 446 -15 460 0 460 c 0
 15 460 15 446 15 446 c 1
 15 108 l 1
 46 133 67 144 102 144 c 0
 155 144 185 108 185 62 c 0
 185 -25 109 -88 32 -146 c 0
 20 -155 6 -165 0 -165 c 0
 -8 -165 -15 -160 -15 -153 c 2
15 58 m 1
 15 -112 l 1
 49 -82 108 -28 108 62 c 0
 108 83 97 97 71 97 c 0
 47 97 28 77 15 58 c 1
EndSplineSet
EndChar

StartChar: u0266E
Encoding: 9838 9838 3
Width: 176
Flags: W
VStem: 0 30<-84 56 148 336.99> 146 30<-336.99 -148 -56 84>
LayerCount: 2
Fore
SplineSet
0 -169 m 1
 0 323 l 1
 0 323 0 337 15 337 c 0
 30 337 30 323 30 323 c 1
 30 148 l 1
 161 180 l 1
 173 180 176 169 176 169 c 1
 176 -323 l 1
 176 -323 176 -337 161 -337 c 0
 146 -337 146 -323 146 -323 c 1
 146 -148 l 1
 15 -180 l 1
 3 -180 0 -169 0 -169 c 1
30 56 m 1
 30 -84 l 1
 146 -56 l 1
 146 84 l 1
 30 56 l 1
EndSplineSet
EndChar

StartChar: u0266F
Encoding: 9839 9839 4
Width: 236
Flags: W
VStem: 54 30<-375.99 -188 -88 64 164 351.99> 152 30<-351.99 -164 -64 88 188 375.99>
DStem2: 15 147 54 64 0.97116 0.238429<-20.5057 18.0857 71.0633 118.982 171.959 210.551> 15 -105 54 -188 0.97116 0.238429<-20.5057 18.0857 71.0633 118.982 171.959 210.551>
LayerCount: 2
Fore
SplineSet
0 64 m 1
 0 129 l 2
 0 142 15 147 15 147 c 1
 54 157 l 1
 54 338 l 1
 54 338 54 352 69 352 c 0
 84 352 84 338 84 338 c 1
 84 164 l 1
 152 181 l 1
 152 362 l 1
 152 362 152 376 167 376 c 0
 182 376 182 362 182 362 c 1
 182 188 l 1
 182 188 218 198 221 198 c 0
 227 198 233 197 236 188 c 1
 236 123 l 2
 236 110 221 105 221 105 c 1
 182 95 l 1
 182 -64 l 1
 182 -64 218 -54 221 -54 c 0
 227 -54 233 -55 236 -64 c 1
 236 -129 l 2
 236 -142 221 -147 221 -147 c 1
 182 -157 l 1
 182 -338 l 1
 182 -338 182 -352 167 -352 c 0
 152 -352 152 -338 152 -338 c 1
 152 -164 l 1
 84 -181 l 1
 84 -362 l 1
 84 -362 84 -376 69 -376 c 0
 54 -376 54 -362 54 -362 c 1
 54 -188 l 1
 54 -188 18 -198 15 -198 c 0
 9 -198 3 -197 0 -188 c 1
 0 -123 l 2
 0 -110 15 -105 15 -105 c 1
 54 -95 l 1
 54 64 l 1
 54 64 18 54 15 54 c 0
 9 54 3 55 0 64 c 1
84 71 m 1
 84 -88 l 1
 152 -71 l 1
 152 88 l 1
 84 71 l 1
EndSplineSet
EndChar

StartChar: uniE003
Encoding: 57347 57347 8
Width: 414
Flags: W
HStem: -90 98<3.59988e-07 150.594>
LayerCount: 2
Fore
SplineSet
0 -13 m 2
 0 -2 12 8 24 8 c 0
 182 8 313 79 403 147 c 1
 403 147 407 150 409 150 c 0
 412 150 414 148 414 143 c 0
 414 104 307 -1 110 -90 c 1
 0 -90 l 1
 0 -13 l 2
EndSplineSet
EndChar

StartChar: uniE004
Encoding: 57348 57348 9
Width: 414
Flags: W
HStem: -8 98<3.59988e-07 150.594>
LayerCount: 2
Fore
SplineSet
0 13 m 2
 0 90 l 1
 110 90 l 1
 307 1 414 -104 414 -143 c 0
 414 -148 412 -150 409 -150 c 0
 407 -150 403 -147 403 -147 c 1
 313 -79 182 -8 24 -8 c 0
 12 -8 0 2 0 13 c 2
EndSplineSet
EndChar

StartChar: uniE005
Encoding: 57349 57349 10
Width: 414
Flags: W
HStem: -90 98<263.406 414>
LayerCount: 2
Fore
SplineSet
0 143 m 0
 0 148 2 150 5 150 c 0
 7 150 11 147 11 147 c 1
 101 79 232 8 390 8 c 0
 402 8 414 -2 414 -13 c 2
 414 -90 l 1
 304 -90 l 1
 107 -1 0 104 0 143 c 0
EndSplineSet
EndChar

StartChar: uniE006
Encoding: 57350 57350 11
Width: 414
Flags: W
HStem: -8 98<263.406 414>
LayerCount: 2
Fore
SplineSet
0 -143 m 0
 0 -104 107 1 304 90 c 1
 414 90 l 1
 414 13 l 2
 414 2 402 -8 390 -8 c 0
 232 -8 101 -79 11 -147 c 1
 11 -147 7 -150 5 -150 c 0
 2 -150 0 -148 0 -143 c 0
EndSplineSet
EndChar

StartChar: uniE046
Encoding: 57414 57414 50
Width: 243
Flags: W
HStem: -348 57<79.2716 154.082> -130 92<-235.653 -158.347> 38 92<158.347 235.653> 291 57<-154.082 -79.2716>
VStem: -243 92<-122.653 -45.3474> -207 40<180.937 283.7> -65 91<213.249 275.855> -26 91<-275.855 -213.249> 151 92<45.3474 122.653> 167 40<-283.7 -180.937>
DStem2: -210 -310 -176 -330 0.516462 0.85631<-20.9754 325.676 422.15 768.802>
LayerCount: 2
Fore
SplineSet
-243 -84 m 0xf8
 -243 -59 -222 -38 -197 -38 c 0
 -172 -38 -151 -59 -151 -84 c 0
 -151 -109 -172 -130 -197 -130 c 0
 -222 -130 -243 -109 -243 -84 c 0xf8
-218 -330 m 0
 -218 -323 -214 -316 -210 -310 c 2
 -42 -31 l 1
 -122 15 -207 100 -207 205 c 0
 -207 280 -165 348 -86 348 c 0
 -39 348 26 312 26 252 c 0
 26 226 8 207 -19 207 c 0
 -41 207 -56 218 -65 245 c 0xf640
 -74 272 -99 291 -123 291 c 0
 -149 291 -167 272 -167 246 c 0
 -167 167 -76 93 7 50 c 1
 176 330 l 2
 184 343 189 348 198 348 c 0
 210 348 218 341 218 330 c 0
 218 323 214 316 210 310 c 2
 42 31 l 1
 122 -15 207 -100 207 -205 c 0
 207 -280 165 -348 86 -348 c 0
 39 -348 -26 -312 -26 -252 c 0
 -26 -226 -8 -207 19 -207 c 0
 41 -207 56 -218 65 -245 c 0
 74 -272 99 -291 123 -291 c 0
 149 -291 167 -272 167 -246 c 0xf540
 167 -167 76 -93 -7 -50 c 1
 -176 -330 l 2
 -184 -343 -189 -348 -198 -348 c 0
 -210 -348 -218 -341 -218 -330 c 0
151 84 m 0xf080
 151 109 172 130 197 130 c 0
 222 130 243 109 243 84 c 0
 243 59 222 38 197 38 c 0
 172 38 151 59 151 84 c 0xf080
EndSplineSet
AlternateSubs2: "Podtablica 'salt' Alternatywy stylistyczne w tablicy 3" uniE046.salt01
EndChar

StartChar: uniE047
Encoding: 57415 57415 51
Width: 232
Flags: W
HStem: -19 38<-231.986 -166 -89 -20 20 89 166 231.986>
VStem: -166 77<-114.875 -20 20 114.875> -20 40<-281.986 -213.027 -180 -19 19 180 213.027 281.986> 89 77<-114.875 -20 20 114.875>
CounterMasks: 1 70
LayerCount: 2
Fore
SplineSet
-232 0 m 0
 -232 20 -212 20 -212 20 c 1
 -166 20 l 1
 -166 128 -92 209 -20 216 c 1
 -20 262 l 1
 -20 262 -20 282 0 282 c 0
 20 282 20 262 20 262 c 1
 20 216 l 1
 92 209 166 128 166 20 c 1
 212 20 l 1
 212 20 232 20 232 0 c 0
 232 -20 212 -20 212 -20 c 1
 166 -20 l 1
 166 -128 92 -209 20 -216 c 1
 20 -262 l 1
 20 -262 20 -282 0 -282 c 0
 -20 -282 -20 -262 -20 -262 c 1
 -20 -216 l 1
 -92 -209 -166 -128 -166 -20 c 1
 -212 -20 l 1
 -212 -20 -232 -20 -232 0 c 0
-89 -19 m 1
 -85 -84 -60 -156 -20 -180 c 1
 -20 -19 l 1
 -89 -19 l 1
-89 19 m 1
 -20 19 l 1
 -20 180 l 1
 -60 156 -85 84 -89 19 c 1
20 -19 m 1
 20 -180 l 1
 60 -156 85 -84 89 -19 c 1
 20 -19 l 1
20 19 m 1
 89 19 l 1
 85 84 60 156 20 180 c 1
 20 19 l 1
EndSplineSet
AlternateSubs2: "Podtablica 'salt' Alternatywy stylistyczne w tablicy 3" uniE047.salt01
EndChar

StartChar: uniE048
Encoding: 57416 57416 52
Width: 232
Flags: W
HStem: -216 32<-79.6162 -20 20 79.6162> -20 40<-231.986 -166 -90 -20 20 90 166 231.986> 184 32<-79.6162 -20 20 79.6162>
VStem: -166 76<-177.681 -20 20 177.681> -20 40<-281.986 -216 -184 -20 20 184 216 281.986> 90 76<-177.681 -20 20 177.681>
CounterMasks: 1 fc
LayerCount: 2
Fore
SplineSet
-232 0 m 0
 -232 20 -212 20 -212 20 c 1
 -166 20 l 1
 -166 61 -161 154 -158 176 c 0
 -155 198 -151 201 -126 206 c 0
 -101 211 -58 216 -20 216 c 1
 -20 262 l 1
 -20 262 -20 282 0 282 c 0
 20 282 20 262 20 262 c 1
 20 216 l 1
 58 216 101 211 126 206 c 0
 151 201 155 198 158 176 c 0
 161 154 166 61 166 20 c 1
 212 20 l 1
 212 20 232 20 232 0 c 0
 232 -20 212 -20 212 -20 c 1
 166 -20 l 1
 166 -61 161 -154 158 -176 c 0
 155 -198 151 -201 126 -206 c 0
 101 -211 58 -216 20 -216 c 1
 20 -262 l 1
 20 -262 20 -282 0 -282 c 0
 -20 -282 -20 -262 -20 -262 c 1
 -20 -216 l 1
 -58 -216 -101 -211 -126 -206 c 0
 -151 -201 -155 -198 -158 -176 c 0
 -161 -154 -166 -61 -166 -20 c 1
 -212 -20 l 1
 -212 -20 -232 -20 -232 0 c 0
-90 20 m 1
 -20 20 l 1
 -20 184 l 1
 -51 184 -79 183 -84 158 c 0
 -89 133 -90 85 -90 20 c 1
-90 -20 m 1
 -90 -85 -89 -133 -84 -158 c 0
 -79 -183 -51 -184 -20 -184 c 1
 -20 -20 l 1
 -90 -20 l 1
20 20 m 1
 90 20 l 1
 90 85 89 133 84 158 c 0
 79 183 51 184 20 184 c 1
 20 20 l 1
20 -20 m 1
 20 -184 l 1
 51 -184 79 -183 84 -158 c 0
 89 -133 90 -85 90 -20 c 1
 20 -20 l 1
EndSplineSet
EndChar

StartChar: uniE050
Encoding: 57424 57424 57
Width: 626
Flags: W
HStem: -633 33<212.966 356.677> -246 26<274.278 416.919> 150 105<377 482.158> 936 144<342.917 419.5>
VStem: 0 94<-14.7755 153.148> 102 202<-543.799 -419.551> 178 70<-37.6105 84.0339> 217 45<633.264 828.402> 448 51<760.08 912.267> 455 33<-497.734 -303.812> 562 64<-84.306 68.6093>
DStem2: 289 563 260 536 0.207324 -0.978272<-160.049 0 159.458 318.396 424.234 776.866 810.032 989.835>
LayerCount: 2
Fore
SplineSet
0 102 m 0xfc60
 0 279 136 426 260 536 c 1
 260 536 217 714 217 782 c 0
 217 870 250 954 286 1002 c 0
 322 1050 352 1080 364 1080 c 0
 373 1080 386 1072 401 1054 c 0
 466 976 499 871 499 775 c 0xf9a0
 499 625 416 521 318 427 c 1
 355 253 l 1
 366 255 377 255 388 255 c 0
 526 255 626 141 626 15 c 0
 626 -90 558 -184 456 -225 c 1
 456 -225 488 -371 488 -416 c 0
 488 -537 406 -633 284 -633 c 0
 211 -633 102 -592 102 -482 c 0
 102 -426 147 -381 203 -381 c 0
 259 -381 304 -426 304 -482 c 0
 304 -535 264 -579 212 -583 c 1
 226 -595 261 -600 284 -600 c 0
 381 -600 455 -526 455 -416 c 0
 455 -367 424 -236 424 -236 c 1
 399 -243 372 -246 344 -246 c 0
 157 -246 0 -84 0 102 c 0xfc60
94 49 m 0
 94 -108 215 -220 344 -220 c 0
 370 -220 395 -217 418 -210 c 1
 344 141 l 1
 286 121 248 69 248 17 c 0
 248 -24 267 -70 305 -93 c 0
 310 -96 314 -101 314 -107 c 0
 314 -115 307 -122 299 -122 c 0
 296 -122 291 -120 291 -120 c 1
 225 -91 178 -33 178 53 c 0xfa20
 178 134 233 217 322 245 c 1
 289 400 l 1
 136 252 94 127 94 49 c 0
262 723 m 0xf9a0
 262 679 289 563 289 563 c 1
 369 641 448 753 448 859 c 0
 448 902 440 936 399 936 c 0
 318 936 262 813 262 723 c 0xf9a0
377 149 m 1
 450 -197 l 1
 513 -167 562 -92 562 -15 c 0
 562 75 500 150 397 150 c 0
 390 150 384 150 377 149 c 1
EndSplineSet
EndChar

StartChar: uniE05C
Encoding: 57436 57436 69
Width: 642
Flags: W
HStem: -500 23<363.959 483.52> -84 24<402.637 493.881> 60 24<402.637 493.881> 477 23<363.959 483.52>
VStem: 0 121<-500 500> 167 30<-499.859 -22 22 499.859> 280 120<-448.663 -357.745 357.745 448.663> 305 26<-236.996 -160.516 160.516 236.996> 536 106<-377.139 -181.29 181.29 377.139>
LayerCount: 2
Fore
SplineSet
0 -490 m 2xfc80
 0 490 l 2
 0 496 4 500 10 500 c 2
 111 500 l 2
 117 500 121 496 121 490 c 2
 121 -490 l 2
 121 -496 117 -500 111 -500 c 2
 10 -500 l 2
 4 -500 0 -496 0 -490 c 2xfc80
167 -490 m 2
 167 490 l 2
 167 496 171 500 177 500 c 2
 187 500 l 2
 193 500 197 496 197 490 c 2
 197 22 l 1
 251 65 305 138 305 220 c 0
 305 231 310 237 318 237 c 0
 326 237 331 231 331 220 c 0xfd80
 331 138 390 84 450 84 c 0
 533 84 536 168 536 282 c 0
 536 416 525 477 428 477 c 0
 404 477 375 471 355 462 c 1
 381 455 400 432 400 404 c 0
 400 371 373 344 340 344 c 0
 307 344 280 371 280 404 c 0
 280 464 361 500 428 500 c 0
 539 500 642 413 642 282 c 0
 642 160 558 60 450 60 c 0
 419 60 397 73 372 88 c 1
 319 0 l 1
 372 -88 l 1
 397 -73 419 -60 450 -60 c 0
 558 -60 642 -160 642 -282 c 0
 642 -413 539 -500 428 -500 c 0
 361 -500 280 -464 280 -404 c 0
 280 -371 307 -344 340 -344 c 0
 373 -344 400 -371 400 -404 c 0xfe80
 400 -432 381 -455 355 -462 c 1
 375 -471 404 -477 428 -477 c 0
 525 -477 536 -416 536 -282 c 0
 536 -168 533 -84 450 -84 c 0
 390 -84 331 -138 331 -220 c 0
 331 -231 326 -237 318 -237 c 0
 310 -237 305 -231 305 -220 c 0xfd80
 305 -138 251 -65 197 -22 c 1
 197 -490 l 2
 197 -496 193 -500 187 -500 c 2
 177 -500 l 2
 171 -500 167 -496 167 -490 c 2
EndSplineSet
EndChar

StartChar: uniE061
Encoding: 57441 57441 74
Width: 661
Flags: W
HStem: -546 28<0.0549316 30.9399> -157 76<588.745 657.255> -47 202<74.5215 169.449> 81 76<588.745 657.255> 223 31<154.807 315.036>
VStem: 6 202<-8.44883 113.304> 419 129<-135.667 97.3278> 585 76<-153.255 -84.745 84.745 153.255>
LayerCount: 2
Fore
SplineSet
0 -531 m 0xef
 0 -525 3 -521 9 -518 c 0
 245 -417 419 -236 419 -2 c 0
 419 126 366 223 242 223 c 0
 175 223 112 200 73 149 c 1
 84 153 95 155 107 155 c 0
 163 155 208 110 208 54 c 0
 208 -2 163 -47 107 -47 c 0
 51 -47 6 -2 6 54 c 0
 6 164 109 254 242 254 c 0
 415 254 548 153 548 -2 c 0
 548 -299 274 -493 23 -545 c 1
 23 -545 18 -546 15 -546 c 0
 7 -546 0 -539 0 -531 c 0xef
585 -119 m 0
 585 -98 602 -81 623 -81 c 0
 644 -81 661 -98 661 -119 c 0
 661 -140 644 -157 623 -157 c 0
 602 -157 585 -140 585 -119 c 0
585 119 m 0
 585 140 602 157 623 157 c 0
 644 157 661 140 661 119 c 0
 661 98 644 81 623 81 c 0xdf
 602 81 585 98 585 119 c 0
EndSplineSet
EndChar

StartChar: uniE068
Encoding: 57448 57448 81
Width: 340
Flags: W
VStem: 0 114<-250 250> 226 114<-250 250>
LayerCount: 2
Fore
SplineSet
0 240 m 2
 0 246 4 250 10 250 c 2
 104 250 l 2
 110 250 114 246 114 240 c 2
 114 -240 l 2
 114 -246 110 -250 104 -250 c 2
 10 -250 l 2
 4 -250 0 -246 0 -240 c 2
 0 240 l 2
226 240 m 2
 226 246 230 250 236 250 c 2
 330 250 l 2
 336 250 340 246 340 240 c 2
 340 -240 l 2
 340 -246 336 -250 330 -250 c 2
 236 -250 l 2
 230 -250 226 -246 226 -240 c 2
 226 240 l 2
EndSplineSet
AlternateSubs2: "Podtablica 'salt' Alternatywy stylistyczne w tablicy 3" uniE068.salt01
EndChar

StartChar: uniE072
Encoding: 57458 57458 91
Width: 626
Flags: W
HStem: -633 33<269.323 413.034> -246 26<209.081 351.722> 150 105<143.842 249> 936 144<206.5 283.083>
VStem: 0 64<-84.306 68.6093> 127 51<760.08 912.267> 138 33<-497.734 -303.812> 322 202<-543.799 -419.551> 364 45<633.264 828.402> 378 70<-37.6105 84.0339> 532 94<-14.7755 153.148>
DStem2: 170 -225 202 -236 0.207324 0.978272<-184.333 -4.55942 28.6356 381.268 487.106 646.043 805.502 965.55>
LayerCount: 2
Fore
SplineSet
0 15 m 0xfb20
 0 141 100 255 238 255 c 0
 249 255 260 255 271 253 c 1
 308 427 l 1
 210 521 127 625 127 775 c 0
 127 871 160 976 225 1054 c 0
 240 1072 253 1080 262 1080 c 0
 274 1080 304 1050 340 1002 c 0
 376 954 409 870 409 782 c 0xfca0
 409 714 366 536 366 536 c 1
 490 426 626 279 626 102 c 0
 626 -84 469 -246 282 -246 c 0
 254 -246 227 -243 202 -236 c 1
 202 -236 171 -367 171 -416 c 0
 171 -526 245 -600 342 -600 c 0
 365 -600 400 -595 414 -583 c 1
 362 -579 322 -535 322 -482 c 0
 322 -426 367 -381 423 -381 c 0
 479 -381 524 -426 524 -482 c 0
 524 -592 415 -633 342 -633 c 0
 220 -633 138 -537 138 -416 c 0
 138 -371 170 -225 170 -225 c 1
 68 -184 0 -90 0 15 c 0xfb20
64 -15 m 0
 64 -92 113 -167 176 -197 c 1
 249 149 l 1
 242 150 236 150 229 150 c 0
 126 150 64 75 64 -15 c 0
178 859 m 0
 178 753 257 641 337 563 c 1
 337 563 364 679 364 723 c 0
 364 813 308 936 227 936 c 0
 186 936 178 902 178 859 c 0
208 -210 m 1
 231 -217 256 -220 282 -220 c 0
 411 -220 532 -108 532 49 c 0
 532 127 490 252 337 400 c 1
 304 245 l 1
 393 217 448 134 448 53 c 0
 448 -33 401 -91 335 -120 c 1
 335 -120 330 -122 327 -122 c 0
 319 -122 312 -115 312 -107 c 0
 312 -101 316 -96 321 -93 c 0
 359 -70 378 -24 378 17 c 0xf860
 378 69 340 121 282 141 c 1
 208 -210 l 1
EndSplineSet
EndChar

StartChar: uniE073
Encoding: 57459 57459 92
Width: 626
Flags: W
HStem: -633 144<206.5 283.083> 192 105<143.842 249> 667 26<209.081 351.722> 1047 33<269.323 413.034>
VStem: 0 64<378.391 531.306> 127 51<-465.267 -313.08> 138 33<750.812 944.734> 322 202<866.551 990.799> 364 45<-381.402 -186.264> 378 70<362.966 484.611> 532 94<293.852 461.776>
DStem2: 202 683 170 672 0.207324 -0.978272<-180.206 -0.432802 32.7622 385.395 491.233 650.17 809.628 969.677>
LayerCount: 2
Fore
SplineSet
0 432 m 0xfca0
 0 537 68 631 170 672 c 1
 170 672 138 818 138 863 c 0
 138 984 220 1080 342 1080 c 0
 415 1080 524 1039 524 929 c 0
 524 873 479 828 423 828 c 0
 367 828 322 873 322 929 c 0
 322 982 362 1026 414 1030 c 1
 400 1042 365 1047 342 1047 c 0
 245 1047 171 973 171 863 c 0xfb20
 171 814 202 683 202 683 c 1
 227 690 254 693 282 693 c 0
 469 693 626 531 626 345 c 0
 626 168 490 21 366 -89 c 1
 366 -89 409 -267 409 -335 c 0
 409 -423 376 -507 340 -555 c 0
 304 -603 274 -633 262 -633 c 0
 253 -633 240 -625 225 -607 c 0
 160 -529 127 -424 127 -328 c 0
 127 -178 210 -74 308 20 c 1
 271 194 l 1
 260 192 249 192 238 192 c 0
 100 192 0 306 0 432 c 0xfca0
64 462 m 0
 64 372 126 297 229 297 c 0
 236 297 242 297 249 298 c 1
 176 644 l 1
 113 614 64 539 64 462 c 0
178 -412 m 0xfca0
 178 -455 186 -489 227 -489 c 0
 308 -489 364 -366 364 -276 c 0
 364 -232 337 -116 337 -116 c 1
 257 -194 178 -306 178 -412 c 0xfca0
208 657 m 1
 282 306 l 1
 340 326 378 378 378 430 c 0
 378 471 359 517 321 540 c 0
 316 543 312 548 312 554 c 0
 312 562 319 569 327 569 c 0
 330 569 335 567 335 567 c 1
 401 538 448 480 448 394 c 0xf860
 448 313 393 230 304 202 c 1
 337 47 l 1
 490 195 532 320 532 398 c 0
 532 555 411 667 282 667 c 0
 256 667 231 664 208 657 c 1
EndSplineSet
EndChar

StartChar: uniE074
Encoding: 57460 57460 93
Width: 642
Flags: W
HStem: -500 23<158.48 278.041> -84 24<148.119 239.363> 60 24<148.119 239.363> 477 23<158.48 278.041>
VStem: 0 106<-377.139 -181.29 181.29 377.139> 242 120<-448.663 -357.745 357.745 448.663> 311 26<-236.996 -160.516 160.516 236.996> 445 30<-499.859 -22 22 499.859> 521 121<-500 500>
LayerCount: 2
Fore
SplineSet
0 282 m 0xfd80
 0 413 103 500 214 500 c 0
 281 500 362 464 362 404 c 0
 362 371 335 344 302 344 c 0
 269 344 242 371 242 404 c 0xfd80
 242 432 261 455 287 462 c 1
 267 471 238 477 214 477 c 0
 117 477 106 416 106 282 c 0
 106 168 109 84 192 84 c 0
 252 84 311 138 311 220 c 0
 311 231 316 237 324 237 c 0
 332 237 337 231 337 220 c 0
 337 138 391 65 445 22 c 1
 445 490 l 2
 445 496 449 500 455 500 c 2
 465 500 l 2
 471 500 475 496 475 490 c 2
 475 -490 l 2
 475 -496 471 -500 465 -500 c 2
 455 -500 l 2
 449 -500 445 -496 445 -490 c 2
 445 -22 l 1
 391 -65 337 -138 337 -220 c 0
 337 -231 332 -237 324 -237 c 0
 316 -237 311 -231 311 -220 c 0xfb80
 311 -138 252 -84 192 -84 c 0
 109 -84 106 -168 106 -282 c 0
 106 -416 117 -477 214 -477 c 0
 238 -477 267 -471 287 -462 c 1
 261 -455 242 -432 242 -404 c 0
 242 -371 269 -344 302 -344 c 0
 335 -344 362 -371 362 -404 c 0
 362 -464 281 -500 214 -500 c 0
 103 -500 0 -413 0 -282 c 0
 0 -160 84 -60 192 -60 c 0
 223 -60 245 -73 270 -88 c 1
 323 0 l 1
 270 88 l 1
 245 73 223 60 192 60 c 0
 84 60 0 160 0 282 c 0xfd80
521 490 m 2
 521 496 525 500 531 500 c 2
 632 500 l 2
 638 500 642 496 642 490 c 2
 642 -490 l 2
 642 -496 638 -500 632 -500 c 2
 531 -500 l 2
 525 -500 521 -496 521 -490 c 2
 521 490 l 2
EndSplineSet
EndChar

StartChar: uniE075
Encoding: 57461 57461 94
Width: 661
Flags: W
HStem: -546 28<630.06 660.945> -157 76<3.74496 72.255> -47 202<491.551 586.478> 81 76<3.74496 72.255> 223 31<345.964 506.193>
VStem: 0 76<-153.255 -84.745 84.745 153.255> 113 129<-135.667 97.3278> 453 202<-8.44883 113.304>
LayerCount: 2
Fore
SplineSet
0 119 m 0xdf
 0 140 17 157 38 157 c 0
 59 157 76 140 76 119 c 0
 76 98 59 81 38 81 c 0
 17 81 0 98 0 119 c 0xdf
0 -119 m 0
 0 -98 17 -81 38 -81 c 0
 59 -81 76 -98 76 -119 c 0
 76 -140 59 -157 38 -157 c 0
 17 -157 0 -140 0 -119 c 0
113 -2 m 0
 113 153 246 254 419 254 c 0
 552 254 655 164 655 54 c 0
 655 -2 610 -47 554 -47 c 0
 498 -47 453 -2 453 54 c 0
 453 110 498 155 554 155 c 0xef
 566 155 577 153 588 149 c 1
 549 200 486 223 419 223 c 0
 295 223 242 126 242 -2 c 0
 242 -236 416 -417 652 -518 c 0
 658 -521 661 -525 661 -531 c 0
 661 -539 654 -546 646 -546 c 0
 643 -546 638 -545 638 -545 c 1
 387 -493 113 -299 113 -2 c 0
EndSplineSet
EndChar

StartChar: uniE076
Encoding: 57462 57462 95
Width: 661
Flags: W
HStem: -546 31<345.964 506.193> -449 76<3.74496 72.255> -447 202<491.551 586.478> -211 76<3.74496 72.255> 226 28<630.06 660.945>
VStem: 0 76<-445.255 -376.745 -207.255 -138.745> 113 129<-389.328 -156.333> 453 202<-405.304 -283.551>
LayerCount: 2
Fore
SplineSet
0 -173 m 0x9f
 0 -152 17 -135 38 -135 c 0
 59 -135 76 -152 76 -173 c 0
 76 -194 59 -211 38 -211 c 0
 17 -211 0 -194 0 -173 c 0x9f
0 -411 m 0
 0 -390 17 -373 38 -373 c 0
 59 -373 76 -390 76 -411 c 0
 76 -432 59 -449 38 -449 c 0xdf
 17 -449 0 -432 0 -411 c 0
113 -290 m 0
 113 7 387 201 638 253 c 1
 638 253 643 254 646 254 c 0
 654 254 661 247 661 239 c 0
 661 233 658 229 652 226 c 0
 416 125 242 -56 242 -290 c 0
 242 -418 295 -515 419 -515 c 0
 486 -515 549 -492 588 -441 c 1
 577 -445 566 -447 554 -447 c 0
 498 -447 453 -402 453 -346 c 0
 453 -290 498 -245 554 -245 c 0xbf
 610 -245 655 -290 655 -346 c 0
 655 -456 552 -546 419 -546 c 0
 246 -546 113 -445 113 -290 c 0
EndSplineSet
EndChar

StartChar: uniE080
Encoding: 57472 57472 97
Width: 422
Flags: W
HStem: -243 26<174.601 247.399> 217 26<174.601 247.399>
VStem: 0 132<-103.383 103.191> 290 132<-103.383 103.191>
LayerCount: 2
Fore
SplineSet
0 0 m 0
 0 131 99 243 211 243 c 0
 323 243 422 131 422 0 c 0
 422 -132 323 -243 211 -243 c 0
 99 -243 0 -132 0 0 c 0
132 0 m 0
 132 -97 132 -217 211 -217 c 0
 290 -217 290 -97 290 0 c 0
 290 87 290 217 211 217 c 0
 132 217 132 87 132 0 c 0
EndSplineSet
EndChar

StartChar: uniE081
Encoding: 57473 57473 98
Width: 284
Flags: W
HStem: -243 36<34.0116 87.073 230.927 283.988>
VStem: 99 120<-199.293 136 234 243>
LayerCount: 2
Fore
SplineSet
0 35 m 0
 0 39 2 42 2 42 c 1
 100 234 l 1
 100 234 105 243 109 243 c 2
 212 243 l 2
 216 243 219 239 219 235 c 2
 219 -149 l 2
 219 -184 241 -207 260 -207 c 0
 268 -207 284 -208 284 -225 c 0
 284 -239 273 -243 260 -243 c 2
 58 -243 l 2
 45 -243 34 -239 34 -225 c 0
 34 -208 50 -207 58 -207 c 0
 77 -207 99 -184 99 -149 c 2
 99 136 l 1
 31 29 l 2
 27 22 24 19 18 19 c 0
 9 19 0 26 0 35 c 0
EndSplineSet
EndChar

StartChar: uniE082
Encoding: 57474 57474 99
Width: 377
Flags: W
HStem: -243 106<245.914 313.533> -195 96<68.834 188.581> 212 31<104.458 207.432>
VStem: 13 126<93.2933 186.469> 236 119<46.9508 180.737>
LayerCount: 2
Fore
SplineSet
0 -214 m 0x78
 0 -131 70 -72 126 -33 c 0
 182 6 236 48 236 114 c 0
 236 175 214 212 158 212 c 0
 125 212 110 203 103 198 c 1
 124 188 139 166 139 141 c 0
 139 106 111 78 76 78 c 0
 41 78 13 106 13 141 c 0
 13 211 93 243 178 243 c 0
 269 243 355 203 355 114 c 0
 355 21 260 -36 196 -57 c 0
 132 -78 85 -107 54 -145 c 1
 87 -119 130 -99 173 -99 c 0x78
 204 -99 226 -105 249 -117 c 0
 272 -129 290 -137 306 -137 c 0
 326 -137 339 -127 345 -121 c 0
 351 -115 359 -108 365 -108 c 0
 371 -108 377 -112 377 -120 c 0
 377 -170 310 -243 259 -243 c 0xb8
 227 -243 205 -237 180 -221 c 0
 155 -205 138 -195 108 -195 c 0
 78 -195 68 -199 51 -213 c 0
 34 -227 28 -231 20 -231 c 0
 12 -231 0 -227 0 -214 c 0x78
EndSplineSet
EndChar

StartChar: uniE083
Encoding: 57475 57475 100
Width: 337
Flags: W
HStem: -243 31<89.177 180.966> 7 26<104.003 160.497> 212 31<91.4576 190.96>
VStem: 0 126<-185.625 -92.2933 93.2933 186.469> 217 120<-172.681 -39.5479 78.3616 185.638>
LayerCount: 2
Fore
SplineSet
0 -140 m 0
 0 -105 28 -77 63 -77 c 0
 98 -77 126 -105 126 -140 c 0
 126 -165 111 -187 89 -197 c 1
 95 -202 110 -212 134 -212 c 0
 188 -212 217 -165 217 -114 c 0
 217 -47 170 7 120 7 c 0
 108 7 104 14 104 20 c 0
 104 26 108 33 120 33 c 0
 170 33 221 71 221 125 c 0
 221 181 190 212 145 212 c 0
 112 212 97 203 90 198 c 1
 111 188 126 166 126 141 c 0
 126 106 98 78 63 78 c 0
 28 78 0 106 0 141 c 0
 0 211 80 243 165 243 c 0
 256 243 332 213 332 125 c 0
 332 66 272 42 212 20 c 1
 297 2 337 -31 337 -114 c 0
 337 -184 252 -243 165 -243 c 0
 80 -243 0 -210 0 -140 c 0
EndSplineSet
EndChar

StartChar: uniE084
Encoding: 57476 57476 101
Width: 384
Flags: W
HStem: -243 36<134.012 187.073 330.927 383.988> -121 34<50 199 319 370.991>
VStem: 199 120<-199.293 -121 -87 52.6781>
LayerCount: 2
Fore
SplineSet
0 -106 m 0
 0 -103 0 -97 9 -87 c 0
 81 -9 135 127 135 221 c 0
 135 235 136 243 144 243 c 2
 318 243 l 2
 325 243 327 237 327 231 c 0
 327 228 325 223 322 220 c 2
 50 -87 l 1
 199 -87 l 1
 199 17 l 2
 199 29 211 42 235 68 c 0
 259 94 294 134 294 134 c 1
 294 134 302 144 310 144 c 0
 313 144 319 143 319 134 c 2
 319 -87 l 1
 358 -87 l 1
 358 -87 371 -88 371 -104 c 0
 371 -120 358 -121 358 -121 c 1
 319 -121 l 1
 319 -149 l 2
 319 -184 341 -207 360 -207 c 0
 368 -207 384 -208 384 -225 c 0
 384 -239 373 -243 360 -243 c 2
 158 -243 l 2
 145 -243 134 -239 134 -225 c 0
 134 -208 150 -207 158 -207 c 0
 177 -207 199 -184 199 -149 c 2
 199 -121 l 1
 19 -121 l 2
 10 -121 0 -115 0 -106 c 0
EndSplineSet
EndChar

StartChar: uniE085
Encoding: 57477 57477 102
Width: 337
Flags: W
HStem: -243 31<89.177 173.859> 36 40<57.4514 175.801> 128 94<50.5676 266.57>
VStem: 0 126<-185.625 -92.2933> 219 118<-158.921 -6.46085>
LayerCount: 2
Fore
SplineSet
0 -140 m 0
 0 -105 28 -77 63 -77 c 0
 98 -77 126 -105 126 -140 c 0
 126 -165 111 -187 89 -197 c 1
 95 -202 110 -212 134 -212 c 0
 185 -212 219 -154 219 -82 c 0
 219 -10 174 36 122 36 c 0
 82 36 68 29 52 18 c 0
 36 7 34 7 27 7 c 0
 17 7 17 17 17 25 c 0
 17 27 20 75 23 117 c 0
 26 159 30 219 30 221 c 0
 30 235 33 243 41 243 c 0
 53 243 66 240 86 234 c 0
 106 228 138 222 174 222 c 0
 210 222 251 228 271 234 c 0
 291 240 308 243 320 243 c 0
 326 243 330 237 330 230 c 0
 330 223 330 205 312 183 c 0
 294 161 242 128 174 128 c 0
 132 128 86 137 51 148 c 1
 45 49 l 1
 84 75 120 76 152 76 c 0
 247 76 337 13 337 -82 c 0
 337 -177 253 -243 165 -243 c 0
 80 -243 0 -210 0 -140 c 0
EndSplineSet
EndChar

StartChar: uniE086
Encoding: 57478 57478 103
Width: 389
Flags: W
HStem: -243 26<181.145 245.09> 15 25<179.568 242.894> 217 26<195.507 286.632>
VStem: 0 153<-131.457 52.2132> 0 132<18 102.426> 246 126<97.2933 192.202> 271 118<-164.104 -20.701>
LayerCount: 2
Fore
SplineSet
0 2 m 0xf2
 0 138 102 243 225 243 c 0
 299 243 372 205 372 145 c 0
 372 110 344 82 309 82 c 0
 274 82 246 110 246 145 c 0
 246 173 263 196 288 205 c 1
 281 210 266 217 237 217 c 0
 156 217 132 118 132 18 c 1xec
 163 36 186 40 212 40 c 0
 301 40 389 13 389 -101 c 0
 389 -176 302 -243 212 -243 c 0
 85 -243 0 -116 0 2 c 0xf2
153 -101 m 0xf2
 153 -161 163 -217 212 -217 c 0
 261 -217 271 -161 271 -101 c 0
 271 -41 261 15 212 15 c 0
 163 15 153 -41 153 -101 c 0xf2
EndSplineSet
EndChar

StartChar: uniE087
Encoding: 57479 57479 104
Width: 363
Flags: W
HStem: 120 73<180.5 297.5> 172 52<42.203 109.159>
VStem: 72 152<-243 -125.332>
LayerCount: 2
Fore
SplineSet
0 109 m 2x60
 0 224 l 2
 0 232 7 234 13 234 c 0
 19 234 24 232 28 229 c 0
 32 226 35 224 41 224 c 0x60
 53 224 70 229 86 234 c 0
 102 239 119 243 137 243 c 0
 179 243 224 228 245 211 c 0
 266 194 276 193 287 193 c 0
 308 193 321 204 338 226 c 0
 342 232 345 234 351 234 c 0
 357 234 363 230 363 223 c 0
 363 162 309 50 280 2 c 0
 251 -46 224 -126 224 -218 c 0
 224 -238 224 -243 214 -243 c 2
 82 -243 l 2
 73 -243 72 -238 72 -218 c 0
 72 -120 154 -12 206 36 c 0
 258 84 287 119 313 162 c 1
 278 136 237 120 197 120 c 0xa0
 164 120 132 131 107 152 c 0
 90 166 79 172 69 172 c 0
 48 172 40 150 30 114 c 0
 27 102 20 99 13 99 c 0
 6 99 0 102 0 109 c 2x60
EndSplineSet
EndChar

StartChar: uniE088
Encoding: 57480 57480 105
Width: 400
Flags: W
HStem: -243 34<134.054 257.871> 209 34<144.237 251.238>
VStem: 0 70<-155.649 -31.3041> 25 105<87 178.088> 283 117<-161.424 -67> 293 82<47.5205 172.451>
LayerCount: 2
Fore
SplineSet
0 -91 m 0xe8
 0 -52 22 -4 65 18 c 1
 37 36 25 69 25 105 c 0
 25 191 95 243 200 243 c 0
 305 243 375 191 375 105 c 0xd4
 375 69 355 41 335 18 c 1
 380 -13 400 -43 400 -91 c 0
 400 -192 291 -243 200 -243 c 0
 109 -243 0 -181 0 -91 c 0xe8
70 -91 m 0xe8
 70 -152 124 -209 200 -209 c 0
 247 -209 283 -183 283 -152 c 0
 283 -101 196 -54 107 -11 c 1
 90 -31 70 -58 70 -91 c 0xe8
130 166 m 0xd4
 130 116 214 76 276 47 c 1
 289 60 293 88 293 105 c 0
 293 157 259 209 200 209 c 0
 154 209 130 188 130 166 c 0xd4
EndSplineSet
EndChar

StartChar: uniE089
Encoding: 57481 57481 106
Width: 389
Flags: W
HStem: -243 26<102.368 193.493> -40 25<146.106 209.432> 217 26<143.91 207.855>
VStem: 0 118<20.701 164.104> 17 126<-192.202 -97.2933> 236 153<-52.2132 131.457> 257 132<-102.426 -18>
LayerCount: 2
Fore
SplineSet
0 101 m 0xf2
 0 176 87 243 177 243 c 0
 304 243 389 116 389 -2 c 0
 389 -138 287 -243 164 -243 c 0
 90 -243 17 -205 17 -145 c 0
 17 -110 45 -82 80 -82 c 0
 115 -82 143 -110 143 -145 c 0xec
 143 -173 126 -196 101 -205 c 1
 108 -210 123 -217 152 -217 c 0
 233 -217 257 -118 257 -18 c 1
 226 -36 203 -40 177 -40 c 0
 88 -40 0 -13 0 101 c 0xf2
118 101 m 0xf4
 118 41 128 -15 177 -15 c 0
 226 -15 236 41 236 101 c 0
 236 161 226 217 177 217 c 0
 128 217 118 161 118 101 c 0xf4
EndSplineSet
EndChar

StartChar: uniE08A
Encoding: 57482 57482 107
Width: 426
Flags: W
HStem: -243 24<183.767 307.135> 219 24<178.374 310.778>
VStem: 0 112<-98.6494 98.6494> 275 142<72.875 172.246> 402 24<-127.09 -63.0015>
LayerCount: 2
Fore
SplineSet
0 0 m 0xe8
 0 124 97 243 244 243 c 0
 319 243 417 202 417 123 c 0
 417 84 385 52 346 52 c 0
 307 52 275 84 275 123 c 0xf0
 275 160 303 191 339 194 c 1
 322 204 292 219 244 219 c 0
 136 219 112 160 112 0 c 0
 112 -160 147 -219 244 -219 c 0
 352 -219 402 -136 402 -77 c 0
 402 -65 410 -63 414 -63 c 0
 418 -63 426 -65 426 -77 c 0
 426 -175 337 -243 244 -243 c 0
 97 -243 0 -124 0 0 c 0xe8
EndSplineSet
EndChar

StartChar: uniE08B
Encoding: 57483 57483 108
Width: 426
Flags: W
HStem: -243 24<184.392 214 244 306.633> 219 24<179.61 214 244 310.047>
VStem: 0 112<-97.9581 98.4656> 214 30<-411.99 -243 -217 217 243 411.99> 275 142<72.875 172.246> 402 24<-127.09 -63.0015>
LayerCount: 2
Fore
SplineSet
0 0 m 0xf4
 0 115 84 226 214 241 c 1
 214 398 l 1
 214 398 214 412 229 412 c 0
 244 412 244 398 244 398 c 1
 244 243 l 1
 319 243 417 202 417 123 c 0
 417 84 385 52 346 52 c 0
 307 52 275 84 275 123 c 0xf8
 275 160 303 191 339 194 c 1
 322 204 292 219 244 219 c 1
 244 -219 l 1
 352 -219 402 -136 402 -77 c 0
 402 -65 410 -63 414 -63 c 0
 418 -63 426 -65 426 -77 c 0
 426 -175 337 -243 244 -243 c 1
 244 -398 l 1
 244 -398 244 -412 229 -412 c 0
 214 -412 214 -398 214 -398 c 1
 214 -241 l 1
 84 -226 0 -115 0 0 c 0xf4
112 0 m 0
 112 -142 140 -205 214 -217 c 1
 214 217 l 1
 131 206 112 144 112 0 c 0
EndSplineSet
EndChar

StartChar: uniE092
Encoding: 57490 57490 115
Width: 0
Flags: W
VStem: -122 54<-140.728 140.728>
LayerCount: 2
Fore
SplineSet
-122 0 m 0
 -122 102 -95 175 -45 255 c 0
 -38 266 -33 267 -30 267 c 0
 -23 267 -18 263 -18 258 c 0
 -18 255 -19 252 -23 243 c 0
 -53 170 -68 98 -68 0 c 0
 -68 -98 -53 -170 -23 -243 c 0
 -19 -252 -18 -255 -18 -258 c 0
 -18 -263 -23 -267 -30 -267 c 0
 -33 -267 -38 -266 -45 -255 c 0
 -95 -175 -122 -102 -122 0 c 0
EndSplineSet
EndChar

StartChar: uniE093
Encoding: 57491 57491 116
Width: 122
Flags: W
VStem: 68 54<-140.728 140.728>
LayerCount: 2
Fore
SplineSet
18 -258 m 0
 18 -255 19 -252 23 -243 c 0
 53 -170 68 -98 68 0 c 0
 68 98 53 170 23 243 c 0
 19 252 18 255 18 258 c 0
 18 263 23 267 30 267 c 0
 33 267 38 266 45 255 c 0
 95 175 122 102 122 0 c 0
 122 -102 95 -175 45 -255 c 0
 38 -266 33 -267 30 -267 c 0
 23 -267 18 -263 18 -258 c 0
EndSplineSet
EndChar

StartChar: uniE094
Encoding: 57492 57492 117
Width: 0
Flags: W
VStem: -122 54<-140.728 140.728>
LayerCount: 2
Fore
SplineSet
-122 0 m 0
 -122 102 -95 175 -45 255 c 0
 -38 266 -33 267 -30 267 c 0
 -23 267 -18 263 -18 258 c 0
 -18 255 -19 252 -23 243 c 0
 -53 170 -68 98 -68 0 c 0
 -68 -98 -53 -170 -23 -243 c 0
 -19 -252 -18 -255 -18 -258 c 0
 -18 -263 -23 -267 -30 -267 c 0
 -33 -267 -38 -266 -45 -255 c 0
 -95 -175 -122 -102 -122 0 c 0
EndSplineSet
EndChar

StartChar: uniE095
Encoding: 57493 57493 118
Width: 122
Flags: W
VStem: 68 54<-140.728 140.728>
LayerCount: 2
Fore
SplineSet
18 -258 m 0
 18 -255 19 -252 23 -243 c 0
 53 -170 68 -98 68 0 c 0
 68 98 53 170 23 243 c 0
 19 252 18 255 18 258 c 0
 18 263 23 267 30 267 c 0
 33 267 38 266 45 255 c 0
 95 175 122 102 122 0 c 0
 122 -102 95 -175 45 -255 c 0
 38 -266 33 -267 30 -267 c 0
 23 -267 18 -263 18 -258 c 0
EndSplineSet
EndChar

StartChar: uniE0A0
Encoding: 57504 57504 129
Width: 664
Flags: W
HStem: -135 17<325.566 388.006> 118 17<275.994 338.434>
VStem: 0 40<-176.986 176.986> 68 40<-176.986 -22 22 176.986> 556 40<-176.986 -22 22 176.986> 624 40<-176.986 176.986>
LayerCount: 2
Fore
SplineSet
0 -157 m 1
 0 157 l 1
 0 157 0 177 20 177 c 0
 40 177 40 157 40 157 c 1
 40 -157 l 1
 40 -157 40 -177 20 -177 c 0
 0 -177 0 -157 0 -157 c 1
68 157 m 1
 68 157 68 177 88 177 c 0
 108 177 108 157 108 157 c 1
 108 22 l 1
 126 88 222 135 332 135 c 0
 442 135 538 88 556 22 c 1
 556 157 l 1
 556 157 556 177 576 177 c 0
 596 177 596 157 596 157 c 1
 596 -157 l 1
 596 -157 596 -177 576 -177 c 0
 556 -177 556 -157 556 -157 c 1
 556 -22 l 1
 538 -88 442 -135 332 -135 c 0
 222 -135 126 -88 108 -22 c 1
 108 -157 l 1
 108 -157 108 -177 88 -177 c 0
 68 -177 68 -157 68 -157 c 1
 68 157 l 1
230 30 m 0
 230 -43 299 -118 358 -118 c 0
 399 -118 434 -79 434 -30 c 0
 434 43 365 118 306 118 c 0
 265 118 230 79 230 30 c 0
624 -157 m 1
 624 157 l 1
 624 157 624 177 644 177 c 0
 664 177 664 157 664 157 c 1
 664 -157 l 1
 664 -157 664 -177 644 -177 c 0
 624 -177 624 -157 624 -157 c 1
EndSplineSet
AlternateSubs2: "Podtablica 'salt' Alternatywy stylistyczne w tablicy 3" uniE0A0.salt01
EndChar

StartChar: uniE0A2
Encoding: 57506 57506 131
Width: 454
Flags: W
HStem: -135 17<219.741 283.099> 118 17<169.967 233.259>
VStem: 0 125<-43.1659 56.0319> 329 125<-56.0319 43.1659>
LayerCount: 2
Fore
SplineSet
0 0 m 0
 0 75 102 135 226 135 c 0
 350 135 454 75 454 0 c 0
 454 -75 350 -135 226 -135 c 0
 102 -135 0 -75 0 0 c 0
125 30 m 0
 125 -43 194 -118 253 -118 c 0
 294 -118 329 -79 329 -30 c 0
 329 43 260 118 201 118 c 0
 160 118 125 79 125 30 c 0
EndSplineSet
EndChar

StartChar: uniE0A3
Encoding: 57507 57507 132
Width: 316
Flags: W
HStem: -135 37<44.733 167> 98 37<149 271.267>
VStem: 0 35<-91.5485 9> 281 35<-9 91.5485>
LayerCount: 2
Fore
SplineSet
0 -37 m 0
 0 55 97 135 201 135 c 0
 268 135 316 95 316 37 c 0
 316 -55 219 -135 115 -135 c 0
 48 -135 0 -95 0 -37 c 0
35 -80 m 0
 35 -91 43 -98 57 -98 c 0
 119 -98 281 31 281 80 c 0
 281 91 273 98 259 98 c 0
 197 98 35 -31 35 -80 c 0
EndSplineSet
EndChar

StartChar: uniE0A4
Encoding: 57508 57508 133
Width: 316
Flags: W
HStem: -135 270<108.775 207.225>
VStem: 0 316<-36.2645 36.2645>
LayerCount: 2
Fore
SplineSet
0 -37 m 0
 0 55 97 135 201 135 c 0
 268 135 316 95 316 37 c 0
 316 -55 219 -135 115 -135 c 0
 48 -135 0 -95 0 -37 c 0
EndSplineSet
EndChar

StartChar: uniE0A9
Encoding: 57513 57513 138
Width: 300
Flags: W
HStem: -29 58<121 179>
VStem: 118 64<-32 32>
DStem2: 37 132 9 99 0.739808 -0.672818<-14.9591 148.736 196.084 359.78> 118 0 37 -132 0.739808 0.672818<-163.696 0 47.3477 211.043>
LayerCount: 2
Fore
SplineSet
0 -116 m 0
 0 -110 4 -103 9 -99 c 2
 118 0 l 1
 9 99 l 2
 4 103 0 110 0 116 c 0
 0 128 10 138 22 138 c 0
 27 138 33 136 37 132 c 2
 150 29 l 1
 263 132 l 2
 267 136 273 138 278 138 c 0
 290 138 300 128 300 116 c 0
 300 110 296 103 291 99 c 2
 182 0 l 1
 291 -99 l 2
 296 -103 300 -110 300 -116 c 0
 300 -128 290 -138 278 -138 c 0
 273 -138 267 -136 263 -132 c 2
 150 -29 l 1
 37 -132 l 2
 33 -136 27 -138 22 -138 c 0
 10 -138 0 -128 0 -116 c 0
EndSplineSet
EndChar

StartChar: uniE0B2
Encoding: 57522 57522 147
Width: 360
Flags: W
HStem: -180 46<109.617 250.383> -33 66<147 213> 134 46<109.617 250.383>
VStem: 0 46<-70.5387 70.5387> 147 66<-33 33> 314 46<-70.5387 70.5387>
DStem2: 104 108 71 75 0.710939 -0.703253<0 106.522 153.444 259.966> 71 -75 104 -108 0.710939 0.703253<0.253631 106.775 153.697 260.219>
CounterMasks: 1 fc
LayerCount: 2
Fore
SplineSet
0 0 m 0
 0 99 81 180 180 180 c 0
 279 180 360 99 360 0 c 0
 360 -99 279 -180 180 -180 c 0
 81 -180 0 -99 0 0 c 0
46 0 m 0
 46 -48 71 -75 71 -75 c 1
 147 0 l 1
 71 75 l 1
 71 75 46 48 46 0 c 0
104 108 m 1
 180 33 l 1
 256 108 l 1
 256 108 228 134 180 134 c 0
 132 134 104 108 104 108 c 1
104 -108 m 1
 104 -108 132 -134 180 -134 c 0
 228 -134 256 -108 256 -108 c 1
 180 -33 l 1
 104 -108 l 1
213 0 m 1
 289 -75 l 1
 289 -75 314 -48 314 0 c 0
 314 48 289 75 289 75 c 1
 213 0 l 1
EndSplineSet
EndChar

StartChar: uniE210
Encoding: 57872 57872 450
Width: 254
Flags: W
HStem: -20 20G<0 12>
VStem: 215 39<-589.708 -386.742>
LayerCount: 2
Fore
SplineSet
0 0 m 1
 24 -66 58 -116 119 -191 c 0
 180 -266 254 -357 254 -473 c 0
 254 -561 221 -657 153 -737 c 0
 142 -750 135 -756 129 -756 c 0
 123 -756 117 -751 117 -744 c 0
 117 -737 121 -731 139 -707 c 0
 157 -683 215 -595 215 -497 c 0
 215 -338 124 -267 0 -224 c 1
 0 0 l 1
EndSplineSet
AlternateSubs2: "Podtablica 'ss03' Styl 3 w tablicy 2" uniE210.ss03
AlternateSubs2: "Podtablica 'ss02' Styl 2 w tablicy 1" uniE210.ss02
EndChar

StartChar: uniE211
Encoding: 57873 57873 451
Width: 284
Flags: W
HStem: 0 21G<0 12>
VStem: 245 39<382.962 589.708>
LayerCount: 2
Fore
SplineSet
0 0 m 1
 0 224 l 1
 156 224 245 345 245 497 c 0
 245 595 187 683 169 707 c 0
 151 731 147 737 147 744 c 0
 147 751 153 756 159 756 c 0
 165 756 172 750 183 737 c 0
 251 657 284 561 284 473 c 0
 284 330 207 247 141 182 c 0
 75 117 24 66 0 0 c 1
EndSplineSet
AlternateSubs2: "Podtablica 'ss03' Styl 3 w tablicy 2" uniE211.ss03
EndChar

StartChar: uniE212
Encoding: 57874 57874 452
Width: 254
Flags: W
HStem: -20 20G<0 12>
VStem: 215 39<-713.708 -521.541 -457.378 -318.556>
LayerCount: 2
Fore
SplineSet
0 0 m 1
 24 -66 123 -161 171 -206 c 0
 219 -251 254 -315 254 -393 c 0
 254 -430 249 -467 237 -505 c 1
 248 -533 254 -564 254 -597 c 0
 254 -685 221 -781 153 -861 c 0
 142 -874 135 -880 129 -880 c 0
 123 -880 117 -875 117 -868 c 0
 117 -861 121 -855 139 -831 c 0
 157 -807 215 -719 215 -621 c 0
 215 -481 126 -406 0 -406 c 1
 0 -204 l 1
 24 -270 123 -365 155 -394 c 0
 187 -423 200 -440 212 -458 c 1
 214 -445 215 -431 215 -417 c 0
 215 -277 126 -202 0 -202 c 1
 0 0 l 1
EndSplineSet
AlternateSubs2: "Podtablica 'ss03' Styl 3 w tablicy 2" uniE212.ss03
AlternateSubs2: "Podtablica 'ss02' Styl 2 w tablicy 1" uniE212.ss02
EndChar

StartChar: uniE213
Encoding: 57875 57875 453
Width: 284
Flags: W
HStem: 0 21G<0 12>
VStem: 245 39<343.767 476.914 547.32 735.708>
LayerCount: 2
Fore
SplineSet
0 0 m 1
 0 202 l 1
 129 223 245 285 245 439 c 0
 245 452 244 465 242 478 c 1
 224 448 200 423 159 389 c 0
 118 355 24 270 0 204 c 1
 0 406 l 1
 129 427 245 489 245 643 c 0
 245 741 187 829 169 853 c 0
 151 877 147 883 147 890 c 0
 147 897 153 902 159 902 c 0
 165 902 172 896 183 883 c 0
 251 803 284 707 284 619 c 0
 284 587 278 556 267 528 c 1
 279 490 284 452 284 415 c 0
 284 325 234 247 176 199 c 0
 118 151 24 66 0 0 c 1
EndSplineSet
AlternateSubs2: "Podtablica 'ss03' Styl 3 w tablicy 2" uniE213.ss03
EndChar

StartChar: uniE214
Encoding: 57876 57876 454
Width: 254
Flags: W
HStem: -20 20G<0 12>
VStem: 215 39<-917.708 -725.541 -661.378 -521.541 -457.378 -318.556>
LayerCount: 2
Fore
SplineSet
0 0 m 1
 24 -66 123 -161 171 -206 c 0
 219 -251 254 -315 254 -393 c 0
 254 -430 249 -467 237 -505 c 1
 248 -533 254 -564 254 -597 c 0
 254 -634 249 -671 237 -709 c 1
 248 -737 254 -768 254 -801 c 0
 254 -889 221 -985 153 -1065 c 0
 142 -1078 135 -1084 129 -1084 c 0
 123 -1084 117 -1079 117 -1072 c 0
 117 -1065 121 -1059 139 -1035 c 0
 157 -1011 215 -923 215 -825 c 0
 215 -685 126 -610 0 -610 c 1
 0 -408 l 1
 24 -474 123 -569 155 -598 c 0
 187 -627 200 -644 212 -662 c 1
 214 -649 215 -635 215 -621 c 0
 215 -481 126 -406 0 -406 c 1
 0 -204 l 1
 24 -270 123 -365 155 -394 c 0
 187 -423 200 -440 212 -458 c 1
 214 -445 215 -431 215 -417 c 0
 215 -277 126 -202 0 -202 c 1
 0 0 l 1
EndSplineSet
AlternateSubs2: "Podtablica 'ss03' Styl 3 w tablicy 2" uniE214.ss03
AlternateSubs2: "Podtablica 'ss02' Styl 2 w tablicy 1" uniE214.ss02
EndChar

StartChar: uniE215
Encoding: 57877 57877 455
Width: 284
Flags: W
HStem: 0 21G<0 12>
VStem: 245 39<343.767 476.914 547.32 680.914 751.32 939.708>
LayerCount: 2
Fore
SplineSet
0 0 m 1
 0 202 l 1
 129 223 245 285 245 439 c 0
 245 452 244 465 242 478 c 1
 224 448 200 423 159 389 c 0
 118 355 24 270 0 204 c 1
 0 406 l 1
 129 427 245 489 245 643 c 0
 245 656 244 669 242 682 c 1
 224 652 200 627 159 593 c 0
 118 559 24 474 0 408 c 1
 0 610 l 1
 129 631 245 693 245 847 c 0
 245 945 187 1033 169 1057 c 0
 151 1081 147 1087 147 1094 c 0
 147 1101 153 1106 159 1106 c 0
 165 1106 172 1100 183 1087 c 0
 251 1007 284 911 284 823 c 0
 284 791 278 760 267 732 c 1
 279 694 284 656 284 619 c 0
 284 587 278 556 267 528 c 1
 279 490 284 452 284 415 c 0
 284 325 234 247 176 199 c 0
 118 151 24 66 0 0 c 1
EndSplineSet
AlternateSubs2: "Podtablica 'ss03' Styl 3 w tablicy 2" uniE215.ss03
EndChar

StartChar: uniE216
Encoding: 57878 57878 456
Width: 254
Flags: W
HStem: -20 20G<0 12>
VStem: 215 39<-1121.71 -929.541 -865.378 -725.541 -661.378 -521.541 -457.378 -318.556>
LayerCount: 2
Fore
SplineSet
0 0 m 1
 24 -66 123 -161 171 -206 c 0
 219 -251 254 -315 254 -393 c 0
 254 -430 249 -467 237 -505 c 1
 248 -533 254 -564 254 -597 c 0
 254 -634 249 -671 237 -709 c 1
 248 -737 254 -768 254 -801 c 0
 254 -838 249 -875 237 -913 c 1
 248 -941 254 -972 254 -1005 c 0
 254 -1093 221 -1189 153 -1269 c 0
 142 -1282 135 -1288 129 -1288 c 0
 123 -1288 117 -1283 117 -1276 c 0
 117 -1269 121 -1263 139 -1239 c 0
 157 -1215 215 -1127 215 -1029 c 0
 215 -889 126 -814 0 -814 c 1
 0 -612 l 1
 24 -678 123 -773 155 -802 c 0
 187 -831 200 -848 212 -866 c 1
 214 -853 215 -839 215 -825 c 0
 215 -685 126 -610 0 -610 c 1
 0 -408 l 1
 24 -474 123 -569 155 -598 c 0
 187 -627 200 -644 212 -662 c 1
 214 -649 215 -635 215 -621 c 0
 215 -481 126 -406 0 -406 c 1
 0 -204 l 1
 24 -270 123 -365 155 -394 c 0
 187 -423 200 -440 212 -458 c 1
 214 -445 215 -431 215 -417 c 0
 215 -277 126 -202 0 -202 c 1
 0 0 l 1
EndSplineSet
AlternateSubs2: "Podtablica 'ss03' Styl 3 w tablicy 2" uniE216.ss03
AlternateSubs2: "Podtablica 'ss02' Styl 2 w tablicy 1" uniE216.ss02
EndChar

StartChar: uniE217
Encoding: 57879 57879 457
Width: 284
Flags: W
HStem: 0 21G<0 12>
VStem: 245 39<343.767 476.914 547.32 680.914 751.32 884.914 955.32 1143.71>
LayerCount: 2
Fore
SplineSet
0 0 m 1
 0 202 l 1
 129 223 245 285 245 439 c 0
 245 452 244 465 242 478 c 1
 224 448 200 423 159 389 c 0
 118 355 24 270 0 204 c 1
 0 406 l 1
 129 427 245 489 245 643 c 0
 245 656 244 669 242 682 c 1
 224 652 200 627 159 593 c 0
 118 559 24 474 0 408 c 1
 0 610 l 1
 129 631 245 693 245 847 c 0
 245 860 244 873 242 886 c 1
 224 856 200 831 159 797 c 0
 118 763 24 678 0 612 c 1
 0 814 l 1
 129 835 245 897 245 1051 c 0
 245 1149 187 1237 169 1261 c 0
 151 1285 147 1291 147 1298 c 0
 147 1305 153 1310 159 1310 c 0
 165 1310 172 1304 183 1291 c 0
 251 1211 284 1115 284 1027 c 0
 284 995 278 964 267 936 c 1
 279 898 284 860 284 823 c 0
 284 791 278 760 267 732 c 1
 279 694 284 656 284 619 c 0
 284 587 278 556 267 528 c 1
 279 490 284 452 284 415 c 0
 284 325 234 247 176 199 c 0
 118 151 24 66 0 0 c 1
EndSplineSet
AlternateSubs2: "Podtablica 'ss03' Styl 3 w tablicy 2" uniE217.ss03
EndChar

StartChar: uniE218
Encoding: 57880 57880 458
Width: 254
Flags: W
HStem: -20 20G<0 12>
VStem: 215 39<-1325.71 -1133.54 -1069.38 -929.541 -865.378 -725.541 -661.378 -521.541 -457.378 -318.556>
LayerCount: 2
Fore
SplineSet
0 0 m 1
 24 -66 123 -161 171 -206 c 0
 219 -251 254 -315 254 -393 c 0
 254 -430 249 -467 237 -505 c 1
 248 -533 254 -564 254 -597 c 0
 254 -634 249 -671 237 -709 c 1
 248 -737 254 -768 254 -801 c 0
 254 -838 249 -875 237 -913 c 1
 248 -941 254 -972 254 -1005 c 0
 254 -1042 249 -1079 237 -1117 c 1
 248 -1145 254 -1176 254 -1209 c 0
 254 -1297 221 -1393 153 -1473 c 0
 142 -1486 135 -1492 129 -1492 c 0
 123 -1492 117 -1487 117 -1480 c 0
 117 -1473 121 -1467 139 -1443 c 0
 157 -1419 215 -1331 215 -1233 c 0
 215 -1093 126 -1018 0 -1018 c 1
 0 -816 l 1
 24 -882 123 -977 155 -1006 c 0
 187 -1035 200 -1052 212 -1070 c 1
 214 -1057 215 -1043 215 -1029 c 0
 215 -889 126 -814 0 -814 c 1
 0 -612 l 1
 24 -678 123 -773 155 -802 c 0
 187 -831 200 -848 212 -866 c 1
 214 -853 215 -839 215 -825 c 0
 215 -685 126 -610 0 -610 c 1
 0 -408 l 1
 24 -474 123 -569 155 -598 c 0
 187 -627 200 -644 212 -662 c 1
 214 -649 215 -635 215 -621 c 0
 215 -481 126 -406 0 -406 c 1
 0 -204 l 1
 24 -270 123 -365 155 -394 c 0
 187 -423 200 -440 212 -458 c 1
 214 -445 215 -431 215 -417 c 0
 215 -277 126 -202 0 -202 c 1
 0 0 l 1
EndSplineSet
AlternateSubs2: "Podtablica 'ss03' Styl 3 w tablicy 2" uniE218.ss03
AlternateSubs2: "Podtablica 'ss02' Styl 2 w tablicy 1" uniE218.ss02
EndChar

StartChar: uniE219
Encoding: 57881 57881 459
Width: 284
Flags: W
HStem: 0 21G<0 12>
VStem: 245 39<343.767 476.914 547.32 680.914 751.32 884.914 955.32 1088.91 1159.32 1347.71>
LayerCount: 2
Fore
SplineSet
0 0 m 1
 0 202 l 1
 129 223 245 285 245 439 c 0
 245 452 244 465 242 478 c 1
 224 448 200 423 159 389 c 0
 118 355 24 270 0 204 c 1
 0 406 l 1
 129 427 245 489 245 643 c 0
 245 656 244 669 242 682 c 1
 224 652 200 627 159 593 c 0
 118 559 24 474 0 408 c 1
 0 610 l 1
 129 631 245 693 245 847 c 0
 245 860 244 873 242 886 c 1
 224 856 200 831 159 797 c 0
 118 763 24 678 0 612 c 1
 0 814 l 1
 129 835 245 897 245 1051 c 0
 245 1064 244 1077 242 1090 c 1
 224 1060 200 1035 159 1001 c 0
 118 967 24 882 0 816 c 1
 0 1018 l 1
 129 1039 245 1101 245 1255 c 0
 245 1353 187 1441 169 1465 c 0
 151 1489 147 1495 147 1502 c 0
 147 1509 153 1514 159 1514 c 0
 165 1514 172 1508 183 1495 c 0
 251 1415 284 1319 284 1231 c 0
 284 1199 278 1168 267 1140 c 1
 279 1102 284 1064 284 1027 c 0
 284 995 278 964 267 936 c 1
 279 898 284 860 284 823 c 0
 284 791 278 760 267 732 c 1
 279 694 284 656 284 619 c 0
 284 587 278 556 267 528 c 1
 279 490 284 452 284 415 c 0
 284 325 234 247 176 199 c 0
 118 151 24 66 0 0 c 1
EndSplineSet
AlternateSubs2: "Podtablica 'ss03' Styl 3 w tablicy 2" uniE219.ss03
EndChar

StartChar: uniE230
Encoding: 57904 57904 468
Width: 185
Flags: W
HStem: 97 47<33.9534 105.302>
VStem: -15 30<-112 76.2842 108 459.99> 108 77<-15.9748 94.5009>
LayerCount: 2
Fore
SplineSet
-15 -153 m 2
 -15 446 l 1
 -15 446 -15 460 0 460 c 0
 15 460 15 446 15 446 c 1
 15 108 l 1
 46 133 67 144 102 144 c 0
 155 144 185 108 185 62 c 0
 185 -25 109 -88 32 -146 c 0
 20 -155 6 -165 0 -165 c 0
 -8 -165 -15 -160 -15 -153 c 2
15 58 m 1
 15 -112 l 1
 49 -82 108 -28 108 62 c 0
 108 83 97 97 71 97 c 0
 47 97 28 77 15 58 c 1
EndSplineSet
AlternateSubs2: "Podtablica 'ss01' Styl 1 w tablicy 0" uniE230.ss01
EndChar

StartChar: uniE231
Encoding: 57905 57905 469
Width: 176
Flags: W
VStem: 0 30<-84 56 148 336.99> 146 30<-336.99 -148 -56 84>
LayerCount: 2
Fore
SplineSet
0 -169 m 1
 0 323 l 1
 0 323 0 337 15 337 c 0
 30 337 30 323 30 323 c 1
 30 148 l 1
 161 180 l 1
 173 180 176 169 176 169 c 1
 176 -323 l 1
 176 -323 176 -337 161 -337 c 0
 146 -337 146 -323 146 -323 c 1
 146 -148 l 1
 15 -180 l 1
 3 -180 0 -169 0 -169 c 1
30 56 m 1
 30 -84 l 1
 146 -56 l 1
 146 84 l 1
 30 56 l 1
EndSplineSet
AlternateSubs2: "Podtablica 'ss01' Styl 1 w tablicy 0" uniE231.ss01
EndChar

StartChar: uniE232
Encoding: 57906 57906 470
Width: 236
Flags: W
VStem: 54 30<-375.99 -188 -88 64 164 351.99> 152 30<-351.99 -164 -64 88 188 375.99>
DStem2: 15 147 54 64 0.97116 0.238429<-20.5057 18.0857 71.0633 118.982 171.959 210.551> 15 -105 54 -188 0.97116 0.238429<-20.5057 18.0857 71.0633 118.982 171.959 210.551>
LayerCount: 2
Fore
SplineSet
0 64 m 1
 0 129 l 2
 0 142 15 147 15 147 c 1
 54 157 l 1
 54 338 l 1
 54 338 54 352 69 352 c 0
 84 352 84 338 84 338 c 1
 84 164 l 1
 152 181 l 1
 152 362 l 1
 152 362 152 376 167 376 c 0
 182 376 182 362 182 362 c 1
 182 188 l 1
 182 188 218 198 221 198 c 0
 227 198 233 197 236 188 c 1
 236 123 l 2
 236 110 221 105 221 105 c 1
 182 95 l 1
 182 -64 l 1
 182 -64 218 -54 221 -54 c 0
 227 -54 233 -55 236 -64 c 1
 236 -129 l 2
 236 -142 221 -147 221 -147 c 1
 182 -157 l 1
 182 -338 l 1
 182 -338 182 -352 167 -352 c 0
 152 -352 152 -338 152 -338 c 1
 152 -164 l 1
 84 -181 l 1
 84 -362 l 1
 84 -362 84 -376 69 -376 c 0
 54 -376 54 -362 54 -362 c 1
 54 -188 l 1
 54 -188 18 -198 15 -198 c 0
 9 -198 3 -197 0 -188 c 1
 0 -123 l 2
 0 -110 15 -105 15 -105 c 1
 54 -95 l 1
 54 64 l 1
 54 64 18 54 15 54 c 0
 9 54 3 55 0 64 c 1
84 71 m 1
 84 -88 l 1
 152 -71 l 1
 152 88 l 1
 84 71 l 1
EndSplineSet
AlternateSubs2: "Podtablica 'ss01' Styl 1 w tablicy 0" uniE232.ss01
EndChar

StartChar: uniE233
Encoding: 57907 57907 471
Width: 270
Flags: W
HStem: -135 90<0 89.4457 180.554 270> -22 44<113.485 156.515> 45 90<0 89.4457 180.554 270>
VStem: 0 90<-135 -45.5543 45.5543 135> 113 44<-21.5149 21.5149> 180 90<-135 -45.5543 45.5543 135>
CounterMasks: 1 fc
LayerCount: 2
Fore
SplineSet
0 -55 m 2
 0 -49 4 -45 10 -45 c 2
 68 -45 l 1
 68 -45 113 -25 113 0 c 0
 113 25 68 45 68 45 c 1
 10 45 l 2
 4 45 0 49 0 55 c 2
 0 125 l 2
 0 131 4 135 10 135 c 2
 80 135 l 2
 86 135 90 131 90 125 c 2
 90 67 l 1
 90 67 110 22 135 22 c 0
 160 22 180 67 180 67 c 1
 180 125 l 2
 180 131 184 135 190 135 c 2
 260 135 l 2
 266 135 270 131 270 125 c 2
 270 55 l 2
 270 49 266 45 260 45 c 2
 202 45 l 1
 202 45 157 25 157 0 c 0
 157 -25 202 -45 202 -45 c 1
 260 -45 l 2
 266 -45 270 -49 270 -55 c 2
 270 -125 l 2
 270 -131 266 -135 260 -135 c 2
 190 -135 l 2
 184 -135 180 -131 180 -125 c 2
 180 -67 l 1
 180 -67 160 -22 135 -22 c 0
 110 -22 90 -67 90 -67 c 1
 90 -125 l 2
 90 -131 86 -135 80 -135 c 2
 10 -135 l 2
 4 -135 0 -131 0 -125 c 2
 0 -55 l 2
EndSplineSet
EndChar

StartChar: uniE234
Encoding: 57908 57908 472
Width: 355
Flags: W
HStem: 97 47<33.9534 106.101 203.953 275.302>
VStem: -15 30<-112 76.2842 108 459.99> 108 77<-24.6953 82.4903> 155 30<-112 -30 128 459.99> 278 77<-15.9748 94.5009>
LayerCount: 2
Fore
SplineSet
-15 -153 m 2xd8
 -15 446 l 1
 -15 446 -15 460 0 460 c 0
 15 460 15 446 15 446 c 1
 15 108 l 1
 46 133 67 144 102 144 c 0
 124 144 141 138 155 128 c 1
 155 446 l 1
 155 446 155 460 170 460 c 0
 185 460 185 446 185 446 c 1
 185 108 l 1
 216 133 237 144 272 144 c 0
 325 144 355 108 355 62 c 0
 355 -25 279 -88 202 -146 c 0
 190 -155 176 -165 170 -165 c 0
 162 -165 155 -160 155 -153 c 2
 155 -30 l 1
 126 -74 79 -111 50 -133 c 0
 21 -155 6 -165 0 -165 c 0
 -8 -165 -15 -160 -15 -153 c 2xd8
15 58 m 1
 15 -112 l 1
 49 -82 108 -28 108 62 c 0xe8
 108 83 97 97 71 97 c 0
 47 97 28 77 15 58 c 1
185 58 m 1
 185 -112 l 1xd8
 219 -82 278 -28 278 62 c 0
 278 83 267 97 241 97 c 0
 217 97 198 77 185 58 c 1
EndSplineSet
EndChar

StartChar: uniE242
Encoding: 57922 57922 480
Width: 200
Flags: W
VStem: 0 200<-16.5599 106.512> 170 30<108 459.99>
LayerCount: 2
Fore
SplineSet
0 62 m 0x80
 0 108 30 144 83 144 c 0
 118 144 139 133 170 108 c 1
 170 446 l 1
 170 446 170 460 185 460 c 0
 200 460 200 446 200 446 c 1
 200 -153 l 2x40
 200 -160 193 -165 185 -165 c 0
 179 -165 165 -155 153 -146 c 0
 76 -88 0 -25 0 62 c 0x80
EndSplineSet
EndChar

StartChar: uniE243
Encoding: 57923 57923 481
Width: 236
Flags: W
VStem: 54 30<-351.99 -164 -64 88 188 375.99> 152 30<-375.99 -188 -88 64 164 351.99>
DStem2: 54 188 15 105 0.97116 -0.238429<-38.5914 0 52.9777 100.896 153.874 192.465> 54 -64 15 -147 0.97116 -0.238429<-38.5914 0 52.9777 100.896 153.874 192.465>
LayerCount: 2
Fore
SplineSet
0 -64 m 1
 3 -55 9 -54 15 -54 c 0
 18 -54 54 -64 54 -64 c 1
 54 95 l 1
 15 105 l 1
 15 105 0 110 0 123 c 2
 0 188 l 1
 3 197 9 198 15 198 c 0
 18 198 54 188 54 188 c 1
 54 362 l 1
 54 362 54 376 69 376 c 0
 84 376 84 362 84 362 c 1
 84 181 l 1
 152 164 l 1
 152 338 l 1
 152 338 152 352 167 352 c 0
 182 352 182 338 182 338 c 1
 182 157 l 1
 221 147 l 1
 221 147 236 142 236 129 c 2
 236 64 l 1
 233 55 227 54 221 54 c 0
 218 54 182 64 182 64 c 1
 182 -95 l 1
 221 -105 l 1
 221 -105 236 -110 236 -123 c 2
 236 -188 l 1
 233 -197 227 -198 221 -198 c 0
 218 -198 182 -188 182 -188 c 1
 182 -362 l 1
 182 -362 182 -376 167 -376 c 0
 152 -376 152 -362 152 -362 c 1
 152 -181 l 1
 84 -164 l 1
 84 -338 l 1
 84 -338 84 -352 69 -352 c 0
 54 -352 54 -338 54 -338 c 1
 54 -157 l 1
 15 -147 l 1
 15 -147 0 -142 0 -129 c 2
 0 -64 l 1
84 -71 m 1
 152 -88 l 1
 152 71 l 1
 84 88 l 1
 84 -71 l 1
EndSplineSet
EndChar

StartChar: uniE244
Encoding: 57924 57924 482
Width: 176
Flags: W
VStem: 0 30<-336.99 -148 -56 84> 146 30<-84 56 148 336.99>
LayerCount: 2
Fore
SplineSet
0 169 m 1
 0 169 3 180 15 180 c 1
 146 148 l 1
 146 323 l 1
 146 323 146 337 161 337 c 0
 176 337 176 323 176 323 c 1
 176 -169 l 1
 176 -169 173 -180 161 -180 c 1
 30 -148 l 1
 30 -323 l 1
 30 -323 30 -337 15 -337 c 0
 0 -337 0 -323 0 -323 c 1
 0 169 l 1
30 -56 m 1
 146 -84 l 1
 146 56 l 1
 30 84 l 1
 30 -56 l 1
EndSplineSet
EndChar

StartChar: uniE245
Encoding: 57925 57925 483
Width: 355
Flags: W
HStem: 97 47<64.6984 136.047 233.899 306.047>
VStem: -15 77<-15.9748 94.5009> 155 77<-24.6953 82.4903> 155 30<-112 -30 128 459.99> 325 30<-112 76.2842 108 459.99>
LayerCount: 2
Fore
SplineSet
-15 62 m 0xd8
 -15 108 15 144 68 144 c 0
 103 144 124 133 155 108 c 1
 155 446 l 1
 155 446 155 460 170 460 c 0
 185 460 185 446 185 446 c 1
 185 128 l 1
 199 138 216 144 238 144 c 0
 273 144 294 133 325 108 c 1
 325 446 l 1
 325 446 325 460 340 460 c 0
 355 460 355 446 355 446 c 1
 355 -153 l 2
 355 -160 348 -165 340 -165 c 0
 334 -165 319 -155 290 -133 c 0
 261 -111 214 -74 185 -30 c 1
 185 -153 l 2
 185 -160 178 -165 170 -165 c 0
 164 -165 150 -155 138 -146 c 0
 61 -88 -15 -25 -15 62 c 0xd8
62 62 m 0
 62 -28 121 -82 155 -112 c 1xd8
 155 58 l 1xe8
 142 77 123 97 99 97 c 0
 73 97 62 83 62 62 c 0
232 62 m 0xe8
 232 -28 291 -82 325 -112 c 1
 325 58 l 1
 312 77 293 97 269 97 c 0
 243 97 232 83 232 62 c 0xe8
EndSplineSet
EndChar

StartChar: uniE24B
Encoding: 57931 57931 489
Width: 446
Flags: W
HStem: 97 47<79.6984 151.047 294.953 366.302>
VStem: 0 77<-15.9748 94.5009> 170 30<-112 76.2842 108 459.99> 246 30<-112 76.2842 108 459.99> 369 77<-15.9748 94.5009>
LayerCount: 2
Fore
SplineSet
0 62 m 0
 0 108 30 144 83 144 c 0
 118 144 139 133 170 108 c 1
 170 446 l 1
 170 446 170 460 185 460 c 0
 200 460 200 446 200 446 c 1
 200 -153 l 2
 200 -160 193 -165 185 -165 c 0
 179 -165 165 -155 153 -146 c 0
 76 -88 0 -25 0 62 c 0
77 62 m 0
 77 -28 136 -82 170 -112 c 1
 170 58 l 1
 157 77 138 97 114 97 c 0
 88 97 77 83 77 62 c 0
246 -153 m 2
 246 446 l 1
 246 446 246 460 261 460 c 0
 276 460 276 446 276 446 c 1
 276 108 l 1
 307 133 328 144 363 144 c 0
 416 144 446 108 446 62 c 0
 446 -25 370 -88 293 -146 c 0
 281 -155 267 -165 261 -165 c 0
 253 -165 246 -160 246 -153 c 2
276 58 m 1
 276 -112 l 1
 310 -82 369 -28 369 62 c 0
 369 83 358 97 332 97 c 0
 308 97 289 77 276 58 c 1
EndSplineSet
EndChar

StartChar: uniE250
Encoding: 57936 57936 490
Width: 185
Flags: W
HStem: 97 47<33.9534 105.302>
VStem: -15 30<-112 76.2842 108 446> 108 77<-15.9748 94.5009>
LayerCount: 2
Fore
SplineSet
-79 444 m 0
 -79 450 -76 455 -76 455 c 1
 -58 486 -28 548 -20 583 c 0
 -12 618 -10 623 0 623 c 0
 10 623 12 618 20 583 c 0
 28 548 58 486 76 455 c 1
 76 455 79 450 79 444 c 0
 79 436 73 431 66 431 c 0
 58 431 48 435 40 439 c 0
 32 443 15 446 15 446 c 1
 15 108 l 1
 46 133 67 144 102 144 c 0
 155 144 185 108 185 62 c 0
 185 -25 109 -88 32 -146 c 0
 20 -155 6 -165 0 -165 c 0
 -8 -165 -15 -160 -15 -153 c 2
 -15 446 l 1
 -15 446 -32 443 -40 439 c 0
 -48 435 -58 431 -66 431 c 0
 -73 431 -79 436 -79 444 c 0
15 58 m 1
 15 -112 l 1
 49 -82 108 -28 108 62 c 0
 108 83 97 97 71 97 c 0
 47 97 28 77 15 58 c 1
EndSplineSet
EndChar

StartChar: uniE251
Encoding: 57937 57937 491
Width: 185
Flags: W
HStem: 97 47<33.9534 105.302>
VStem: -15 30<-195 -159 -112 76.2842 108 459.99> 108 77<-15.9748 94.5009>
LayerCount: 2
Fore
SplineSet
-79 -193 m 0
 -79 -185 -73 -180 -66 -180 c 0
 -58 -180 -48 -184 -40 -188 c 0
 -32 -192 -15 -195 -15 -195 c 1
 -15 446 l 1
 -15 446 -15 460 0 460 c 0
 15 460 15 446 15 446 c 1
 15 108 l 1
 46 133 67 144 102 144 c 0
 155 144 185 108 185 62 c 0
 185 -25 109 -88 32 -146 c 2
 15 -159 l 1
 15 -195 l 1
 15 -195 32 -192 40 -188 c 0
 48 -184 58 -180 66 -180 c 0
 73 -180 79 -185 79 -193 c 0
 79 -199 76 -204 76 -204 c 1
 58 -235 28 -297 20 -332 c 0
 12 -367 10 -372 0 -372 c 0
 -10 -372 -12 -367 -20 -332 c 0
 -28 -297 -58 -235 -76 -204 c 1
 -76 -204 -79 -199 -79 -193 c 0
15 58 m 1
 15 -112 l 1
 49 -82 108 -28 108 62 c 0
 108 83 97 97 71 97 c 0
 47 97 28 77 15 58 c 1
EndSplineSet
EndChar

StartChar: uniE252
Encoding: 57938 57938 492
Width: 240
Flags: W
VStem: 64 30<-84 56 148 323> 210 30<-336.99 -148 -56 84>
LayerCount: 2
Fore
SplineSet
0 321 m 0
 0 327 3 332 3 332 c 1
 21 363 51 425 59 460 c 0
 67 495 69 500 79 500 c 0
 89 500 91 495 99 460 c 0
 107 425 137 363 155 332 c 1
 155 332 158 327 158 321 c 0
 158 313 152 308 145 308 c 0
 137 308 127 312 119 316 c 0
 111 320 94 323 94 323 c 1
 94 148 l 1
 225 180 l 1
 237 180 240 169 240 169 c 1
 240 -323 l 1
 240 -323 240 -337 225 -337 c 0
 210 -337 210 -323 210 -323 c 1
 210 -148 l 1
 79 -180 l 1
 67 -180 64 -169 64 -169 c 1
 64 323 l 1
 64 323 47 320 39 316 c 0
 31 312 21 308 13 308 c 0
 6 308 0 313 0 321 c 0
94 56 m 1
 94 -84 l 1
 210 -56 l 1
 210 84 l 1
 94 56 l 1
EndSplineSet
EndChar

StartChar: uniE253
Encoding: 57939 57939 493
Width: 240
Flags: W
VStem: 0 30<-84 56 148 336.99> 146 30<-323 -148 -56 84>
LayerCount: 2
Fore
SplineSet
0 -169 m 1
 0 323 l 1
 0 323 0 337 15 337 c 0
 30 337 30 323 30 323 c 1
 30 148 l 1
 161 180 l 1
 173 180 176 169 176 169 c 1
 176 -323 l 1
 176 -323 193 -320 201 -316 c 0
 209 -312 219 -308 227 -308 c 0
 234 -308 240 -313 240 -321 c 0
 240 -327 237 -332 237 -332 c 1
 219 -363 189 -425 181 -460 c 0
 173 -495 171 -500 161 -500 c 0
 151 -500 149 -495 141 -460 c 0
 133 -425 103 -363 85 -332 c 1
 85 -332 82 -327 82 -321 c 0
 82 -313 88 -308 95 -308 c 0
 103 -308 113 -312 121 -316 c 0
 129 -320 146 -323 146 -323 c 1
 146 -148 l 1
 15 -180 l 1
 3 -180 0 -169 0 -169 c 1
30 56 m 1
 30 -84 l 1
 146 -56 l 1
 146 84 l 1
 30 56 l 1
EndSplineSet
EndChar

StartChar: uniE254
Encoding: 57940 57940 494
Width: 246
Flags: W
VStem: 54 30<-375.99 -188 -88 64 164 351.99> 152 30<-351.99 -164 -64 88 188 415>
DStem2: 15 147 54 64 0.97116 0.238429<-20.5057 18.0857 71.0633 118.982 171.959 210.551> 15 -105 54 -188 0.97116 0.238429<-20.5057 18.0857 71.0633 118.982 171.959 210.551>
LayerCount: 2
Fore
SplineSet
0 64 m 1
 0 129 l 2
 0 142 15 147 15 147 c 1
 54 157 l 1
 54 338 l 1
 54 338 54 352 69 352 c 0
 84 352 84 338 84 338 c 1
 84 164 l 1
 152 181 l 1
 152 415 l 1
 152 415 135 412 127 408 c 0
 119 404 109 400 101 400 c 0
 94 400 88 405 88 413 c 0
 88 419 91 424 91 424 c 1
 109 455 139 517 147 552 c 0
 155 587 157 592 167 592 c 0
 177 592 179 587 187 552 c 0
 195 517 225 455 243 424 c 1
 243 424 246 419 246 413 c 0
 246 405 240 400 233 400 c 0
 225 400 215 404 207 408 c 0
 199 412 182 415 182 415 c 1
 182 188 l 1
 182 188 218 198 221 198 c 0
 227 198 233 197 236 188 c 1
 236 123 l 2
 236 110 221 105 221 105 c 1
 182 95 l 1
 182 -64 l 1
 182 -64 218 -54 221 -54 c 0
 227 -54 233 -55 236 -64 c 1
 236 -129 l 2
 236 -142 221 -147 221 -147 c 1
 182 -157 l 1
 182 -338 l 1
 182 -338 182 -352 167 -352 c 0
 152 -352 152 -338 152 -338 c 1
 152 -164 l 1
 84 -181 l 1
 84 -362 l 1
 84 -362 84 -376 69 -376 c 0
 54 -376 54 -362 54 -362 c 1
 54 -188 l 1
 54 -188 18 -198 15 -198 c 0
 9 -198 3 -197 0 -188 c 1
 0 -123 l 2
 0 -110 15 -105 15 -105 c 1
 54 -95 l 1
 54 64 l 1
 54 64 18 54 15 54 c 0
 9 54 3 55 0 64 c 1
84 71 m 1
 84 -88 l 1
 152 -71 l 1
 152 88 l 1
 84 71 l 1
EndSplineSet
EndChar

StartChar: uniE255
Encoding: 57941 57941 495
Width: 236
Flags: W
VStem: 54 30<-415 -188 -88 64 164 351.99> 152 30<-351.99 -164 -64 88 188 375.99>
DStem2: 15 147 54 64 0.97116 0.238429<-20.5057 18.0857 71.0633 118.982 171.959 210.551> 15 -105 54 -188 0.97116 0.238429<-20.5057 18.0857 71.0633 118.982 171.959 210.551>
LayerCount: 2
Fore
SplineSet
-10 -413 m 0
 -10 -405 -4 -400 3 -400 c 0
 11 -400 21 -404 29 -408 c 0
 37 -412 54 -415 54 -415 c 1
 54 -188 l 1
 54 -188 18 -198 15 -198 c 0
 9 -198 3 -197 0 -188 c 1
 0 -123 l 2
 0 -110 15 -105 15 -105 c 1
 54 -95 l 1
 54 64 l 1
 54 64 18 54 15 54 c 0
 9 54 3 55 0 64 c 1
 0 129 l 2
 0 142 15 147 15 147 c 1
 54 157 l 1
 54 338 l 1
 54 338 54 352 69 352 c 0
 84 352 84 338 84 338 c 1
 84 164 l 1
 152 181 l 1
 152 362 l 1
 152 362 152 376 167 376 c 0
 182 376 182 362 182 362 c 1
 182 188 l 1
 182 188 218 198 221 198 c 0
 227 198 233 197 236 188 c 1
 236 123 l 2
 236 110 221 105 221 105 c 1
 182 95 l 1
 182 -64 l 1
 182 -64 218 -54 221 -54 c 0
 227 -54 233 -55 236 -64 c 1
 236 -129 l 2
 236 -142 221 -147 221 -147 c 1
 182 -157 l 1
 182 -338 l 1
 182 -338 182 -352 167 -352 c 0
 152 -352 152 -338 152 -338 c 1
 152 -164 l 1
 84 -181 l 1
 84 -415 l 1
 84 -415 101 -412 109 -408 c 0
 117 -404 127 -400 135 -400 c 0
 142 -400 148 -405 148 -413 c 0
 148 -419 145 -424 145 -424 c 1
 127 -455 97 -517 89 -552 c 0
 81 -587 79 -592 69 -592 c 0
 59 -592 57 -587 49 -552 c 0
 41 -517 11 -455 -7 -424 c 1
 -7 -424 -10 -419 -10 -413 c 0
84 71 m 1
 84 -88 l 1
 152 -71 l 1
 152 88 l 1
 84 71 l 1
EndSplineSet
EndChar

StartChar: uniE260
Encoding: 57952 57952 502
Width: 200
Flags: W
HStem: 97 47<79.6984 151.047>
VStem: 0 77<-15.9748 94.5009> 170 30<-112 76.2842 108 459.99>
LayerCount: 2
Fore
SplineSet
0 62 m 0
 0 108 30 144 83 144 c 0
 118 144 139 133 170 108 c 1
 170 446 l 1
 170 446 170 460 185 460 c 0
 200 460 200 446 200 446 c 1
 200 -153 l 2
 200 -160 193 -165 185 -165 c 0
 179 -165 165 -155 153 -146 c 0
 76 -88 0 -25 0 62 c 0
77 62 m 0
 77 -28 136 -82 170 -112 c 1
 170 58 l 1
 157 77 138 97 114 97 c 0
 88 97 77 83 77 62 c 0
EndSplineSet
EndChar

StartChar: uniE261
Encoding: 57953 57953 503
Width: 446
Flags: W
HStem: 97 47<79.6984 151.047 294.953 366.302>
VStem: 0 77<-15.9748 94.5009> 170 30<-112 76.2842 108 459.99> 246 30<-112 76.2842 108 459.99> 369 77<-15.9748 94.5009>
LayerCount: 2
Fore
SplineSet
0 62 m 0
 0 108 30 144 83 144 c 0
 118 144 139 133 170 108 c 1
 170 446 l 1
 170 446 170 460 185 460 c 0
 200 460 200 446 200 446 c 1
 200 -153 l 2
 200 -160 193 -165 185 -165 c 0
 179 -165 165 -155 153 -146 c 0
 76 -88 0 -25 0 62 c 0
77 62 m 0
 77 -28 136 -82 170 -112 c 1
 170 58 l 1
 157 77 138 97 114 97 c 0
 88 97 77 83 77 62 c 0
246 -153 m 2
 246 446 l 1
 246 446 246 460 261 460 c 0
 276 460 276 446 276 446 c 1
 276 108 l 1
 307 133 328 144 363 144 c 0
 416 144 446 108 446 62 c 0
 446 -25 370 -88 293 -146 c 0
 281 -155 267 -165 261 -165 c 0
 253 -165 246 -160 246 -153 c 2
276 58 m 1
 276 -112 l 1
 310 -82 369 -28 369 62 c 0
 369 83 358 97 332 97 c 0
 308 97 289 77 276 58 c 1
EndSplineSet
EndChar

StartChar: uniE262
Encoding: 57954 57954 504
Width: 138
Flags: W
VStem: 0 138<-160.719 -93.0037 91.2812 158.996> 54 30<-363.99 -176 -76 76 176 363.99>
LayerCount: 2
Fore
SplineSet
0 76 m 1x80
 0 141 l 2x80
 0 154 15 159 15 159 c 1
 54 169 l 1
 54 350 l 1
 54 350 54 364 69 364 c 0
 84 364 84 350 84 350 c 1
 84 176 l 1x40
 84 176 120 186 123 186 c 0
 129 186 135 185 138 176 c 1
 138 111 l 2x80
 138 98 123 93 123 93 c 1
 84 83 l 1
 84 -76 l 1x40
 84 -76 120 -66 123 -66 c 0
 129 -66 135 -67 138 -76 c 1
 138 -141 l 2x80
 138 -154 123 -159 123 -159 c 1
 84 -169 l 1
 84 -350 l 1
 84 -350 84 -364 69 -364 c 0
 54 -364 54 -350 54 -350 c 1
 54 -176 l 1x40
 54 -176 18 -186 15 -186 c 0
 9 -186 3 -185 0 -176 c 1
 0 -111 l 2x80
 0 -98 15 -93 15 -93 c 1
 54 -83 l 1
 54 76 l 1x40
 54 76 18 66 15 66 c 0
 9 66 3 67 0 76 c 1x80
84 83 m 0x40
EndSplineSet
EndChar

StartChar: uniE263
Encoding: 57955 57955 505
Width: 334
Flags: W
VStem: 54 30<-387.99 -200 -100 52 152 339.99> 152 30<-363.99 -176 -76 76 176 363.99> 250 30<-339.99 -152 -52 100 200 387.99>
DStem2: 15 135 54 52 0.971211 0.238222<-20.4864 18.1048 71.0633 119.001 171.959 219.897 272.855 311.447> 15 -117 54 -200 0.971211 0.238222<-20.4864 18.1048 71.0633 119.001 171.959 219.897 272.855 311.447>
CounterMasks: 1 e0
LayerCount: 2
Fore
SplineSet
0 52 m 1
 0 117 l 2
 0 130 15 135 15 135 c 1
 54 145 l 1
 54 326 l 1
 54 326 54 340 69 340 c 0
 84 340 84 326 84 326 c 1
 84 152 l 1
 152 169 l 1
 152 350 l 1
 152 350 152 364 167 364 c 0
 182 364 182 350 182 350 c 1
 182 176 l 1
 250 193 l 1
 250 374 l 1
 250 374 250 388 265 388 c 0
 280 388 280 374 280 374 c 1
 280 200 l 1
 280 200 316 210 319 210 c 0
 325 210 331 209 334 200 c 1
 334 135 l 2
 334 122 319 117 319 117 c 1
 280 107 l 1
 280 -52 l 1
 280 -52 316 -42 319 -42 c 0
 325 -42 331 -43 334 -52 c 1
 334 -117 l 2
 334 -130 319 -135 319 -135 c 1
 280 -145 l 1
 280 -326 l 1
 280 -326 280 -340 265 -340 c 0
 250 -340 250 -326 250 -326 c 1
 250 -152 l 1
 182 -169 l 1
 182 -350 l 1
 182 -350 182 -364 167 -364 c 0
 152 -364 152 -350 152 -350 c 1
 152 -176 l 1
 84 -193 l 1
 84 -374 l 1
 84 -374 84 -388 69 -388 c 0
 54 -388 54 -374 54 -374 c 1
 54 -200 l 1
 54 -200 18 -210 15 -210 c 0
 9 -210 3 -209 0 -200 c 1
 0 -135 l 2
 0 -122 15 -117 15 -117 c 1
 54 -107 l 1
 54 52 l 1
 54 52 18 42 15 42 c 0
 9 42 3 43 0 52 c 1
84 59 m 1
 84 -100 l 1
 152 -83 l 1
 152 76 l 1
 84 59 l 1
182 -76 m 1
 250 -59 l 1
 250 100 l 1
 182 83 l 1
 182 -76 l 1
EndSplineSet
EndChar

StartChar: uniE270
Encoding: 57968 57968 506
Width: 185
Flags: W
HStem: 97 47<0.69837 72.0466>
VStem: -79 77<-15.9748 94.5009> 91 30<-112 76.2842 108 446>
LayerCount: 2
Fore
SplineSet
-79 62 m 0
 -79 108 -49 144 4 144 c 0
 39 144 60 133 91 108 c 1
 91 446 l 1
 91 446 74 443 66 439 c 0
 58 435 48 431 40 431 c 0
 33 431 27 436 27 444 c 0
 27 450 30 455 30 455 c 1
 48 486 78 548 86 583 c 0
 94 618 96 623 106 623 c 0
 116 623 118 618 126 583 c 0
 134 548 164 486 182 455 c 1
 182 455 185 450 185 444 c 0
 185 436 179 431 172 431 c 0
 164 431 154 435 146 439 c 0
 138 443 121 446 121 446 c 1
 121 -153 l 2
 121 -160 114 -165 106 -165 c 0
 100 -165 86 -155 74 -146 c 0
 -3 -88 -79 -25 -79 62 c 0
-2 62 m 0
 -2 -28 57 -82 91 -112 c 1
 91 58 l 1
 78 77 59 97 35 97 c 0
 9 97 -2 83 -2 62 c 0
EndSplineSet
EndChar

StartChar: uniE271
Encoding: 57969 57969 507
Width: 185
Flags: W
HStem: 97 47<0.69837 72.0466>
VStem: -79 77<-15.9748 94.5009> 91 30<-195 -159 -112 76.2842 108 459.99>
LayerCount: 2
Fore
SplineSet
-79 62 m 0
 -79 108 -49 144 4 144 c 0
 39 144 60 133 91 108 c 1
 91 446 l 1
 91 446 91 460 106 460 c 0
 121 460 121 446 121 446 c 1
 121 -195 l 1
 121 -195 138 -192 146 -188 c 0
 154 -184 164 -180 172 -180 c 0
 179 -180 185 -185 185 -193 c 0
 185 -199 182 -204 182 -204 c 1
 164 -235 134 -297 126 -332 c 0
 118 -367 116 -372 106 -372 c 0
 96 -372 94 -367 86 -332 c 0
 78 -297 48 -235 30 -204 c 1
 30 -204 27 -199 27 -193 c 0
 27 -185 33 -180 40 -180 c 0
 48 -180 58 -184 66 -188 c 0
 74 -192 91 -195 91 -195 c 1
 91 -159 l 1
 74 -146 l 2
 -3 -88 -79 -25 -79 62 c 0
-2 62 m 0
 -2 -28 57 -82 91 -112 c 1
 91 58 l 1
 78 77 59 97 35 97 c 0
 9 97 -2 83 -2 62 c 0
EndSplineSet
EndChar

StartChar: uniE272
Encoding: 57970 57970 508
Width: 185
Flags: W
VStem: -79 200<-16.5599 106.512> 91 30<108 446>
LayerCount: 2
Fore
SplineSet
-79 62 m 0x80
 -79 108 -49 144 4 144 c 0
 39 144 60 133 91 108 c 1
 91 446 l 1
 91 446 74 443 66 439 c 0
 58 435 48 431 40 431 c 0
 33 431 27 436 27 444 c 0
 27 450 30 455 30 455 c 1
 48 486 78 548 86 583 c 0
 94 618 96 623 106 623 c 0
 116 623 118 618 126 583 c 0
 134 548 164 486 182 455 c 1
 182 455 185 450 185 444 c 0
 185 436 179 431 172 431 c 0
 164 431 154 435 146 439 c 0
 138 443 121 446 121 446 c 1
 121 -153 l 2x40
 121 -160 114 -165 106 -165 c 0
 100 -165 86 -155 74 -146 c 0
 -3 -88 -79 -25 -79 62 c 0x80
EndSplineSet
EndChar

StartChar: uniE273
Encoding: 57971 57971 509
Width: 185
Flags: W
VStem: -79 200<-16.5599 106.512> 91 30<-195 -159 108 459.99>
LayerCount: 2
Fore
SplineSet
-79 62 m 0x80
 -79 108 -49 144 4 144 c 0
 39 144 60 133 91 108 c 1
 91 446 l 1
 91 446 91 460 106 460 c 0
 121 460 121 446 121 446 c 1
 121 -195 l 1
 121 -195 138 -192 146 -188 c 0
 154 -184 164 -180 172 -180 c 0
 179 -180 185 -185 185 -193 c 0
 185 -199 182 -204 182 -204 c 1
 164 -235 134 -297 126 -332 c 0
 118 -367 116 -372 106 -372 c 0
 96 -372 94 -367 86 -332 c 0
 78 -297 48 -235 30 -204 c 1
 30 -204 27 -199 27 -193 c 0
 27 -185 33 -180 40 -180 c 0
 48 -180 58 -184 66 -188 c 0
 74 -192 91 -195 91 -195 c 1
 91 -159 l 1x40
 74 -146 l 2
 -3 -88 -79 -25 -79 62 c 0x80
EndSplineSet
EndChar

StartChar: uniE2A1
Encoding: 58017 58017 534
Width: 185
Flags: W
HStem: 97 47<33.9534 105.302>
VStem: -15 30<-195 -159 -112 76.2842 108 459.99> 108 77<-15.9748 94.5009>
LayerCount: 2
Fore
SplineSet
-79 -193 m 0
 -79 -185 -73 -180 -66 -180 c 0
 -58 -180 -48 -184 -40 -188 c 0
 -32 -192 -15 -195 -15 -195 c 1
 -15 446 l 1
 -15 446 -15 460 0 460 c 0
 15 460 15 446 15 446 c 1
 15 108 l 1
 46 133 67 144 102 144 c 0
 155 144 185 108 185 62 c 0
 185 -25 109 -88 32 -146 c 2
 15 -159 l 1
 15 -195 l 1
 15 -195 32 -192 40 -188 c 0
 48 -184 58 -180 66 -180 c 0
 73 -180 79 -185 79 -193 c 0
 79 -199 76 -204 76 -204 c 1
 58 -235 28 -297 20 -332 c 0
 12 -367 10 -372 0 -372 c 0
 -10 -372 -12 -367 -20 -332 c 0
 -28 -297 -58 -235 -76 -204 c 1
 -76 -204 -79 -199 -79 -193 c 0
15 58 m 1
 15 -112 l 1
 49 -82 108 -28 108 62 c 0
 108 83 97 97 71 97 c 0
 47 97 28 77 15 58 c 1
EndSplineSet
EndChar

StartChar: uniE2A2
Encoding: 58018 58018 535
Width: 240
Flags: W
VStem: 0 30<-84 56 148 336.99> 146 30<-323 -148 -56 84>
LayerCount: 2
Fore
SplineSet
0 -169 m 1
 0 323 l 1
 0 323 0 337 15 337 c 0
 30 337 30 323 30 323 c 1
 30 148 l 1
 161 180 l 1
 173 180 176 169 176 169 c 1
 176 -323 l 1
 176 -323 193 -320 201 -316 c 0
 209 -312 219 -308 227 -308 c 0
 234 -308 240 -313 240 -321 c 0
 240 -327 237 -332 237 -332 c 1
 219 -363 189 -425 181 -460 c 0
 173 -495 171 -500 161 -500 c 0
 151 -500 149 -495 141 -460 c 0
 133 -425 103 -363 85 -332 c 1
 85 -332 82 -327 82 -321 c 0
 82 -313 88 -308 95 -308 c 0
 103 -308 113 -312 121 -316 c 0
 129 -320 146 -323 146 -323 c 1
 146 -148 l 1
 15 -180 l 1
 3 -180 0 -169 0 -169 c 1
30 56 m 1
 30 -84 l 1
 146 -56 l 1
 146 84 l 1
 30 56 l 1
EndSplineSet
EndChar

StartChar: uniE2A3
Encoding: 58019 58019 536
Width: 236
Flags: W
VStem: 54 30<-415 -188 -88 64 164 351.99> 152 30<-351.99 -164 -64 88 188 375.99>
DStem2: 15 147 54 64 0.97116 0.238429<-20.5057 18.0857 71.0633 118.982 171.959 210.551> 15 -105 54 -188 0.97116 0.238429<-20.5057 18.0857 71.0633 118.982 171.959 210.551>
LayerCount: 2
Fore
SplineSet
-10 -413 m 0
 -10 -405 -4 -400 3 -400 c 0
 11 -400 21 -404 29 -408 c 0
 37 -412 54 -415 54 -415 c 1
 54 -188 l 1
 54 -188 18 -198 15 -198 c 0
 9 -198 3 -197 0 -188 c 1
 0 -123 l 2
 0 -110 15 -105 15 -105 c 1
 54 -95 l 1
 54 64 l 1
 54 64 18 54 15 54 c 0
 9 54 3 55 0 64 c 1
 0 129 l 2
 0 142 15 147 15 147 c 1
 54 157 l 1
 54 338 l 1
 54 338 54 352 69 352 c 0
 84 352 84 338 84 338 c 1
 84 164 l 1
 152 181 l 1
 152 362 l 1
 152 362 152 376 167 376 c 0
 182 376 182 362 182 362 c 1
 182 188 l 1
 182 188 218 198 221 198 c 0
 227 198 233 197 236 188 c 1
 236 123 l 2
 236 110 221 105 221 105 c 1
 182 95 l 1
 182 -64 l 1
 182 -64 218 -54 221 -54 c 0
 227 -54 233 -55 236 -64 c 1
 236 -129 l 2
 236 -142 221 -147 221 -147 c 1
 182 -157 l 1
 182 -338 l 1
 182 -338 182 -352 167 -352 c 0
 152 -352 152 -338 152 -338 c 1
 152 -164 l 1
 84 -181 l 1
 84 -415 l 1
 84 -415 101 -412 109 -408 c 0
 117 -404 127 -400 135 -400 c 0
 142 -400 148 -405 148 -413 c 0
 148 -419 145 -424 145 -424 c 1
 127 -455 97 -517 89 -552 c 0
 81 -587 79 -592 69 -592 c 0
 59 -592 57 -587 49 -552 c 0
 41 -517 11 -455 -7 -424 c 1
 -7 -424 -10 -419 -10 -413 c 0
84 71 m 1
 84 -88 l 1
 152 -71 l 1
 152 88 l 1
 84 71 l 1
EndSplineSet
EndChar

StartChar: uniE2A6
Encoding: 58022 58022 539
Width: 185
Flags: W
HStem: 97 47<33.9534 105.302>
VStem: -15 30<-112 76.2842 108 446> 108 77<-15.9748 94.5009>
LayerCount: 2
Fore
SplineSet
-79 444 m 0
 -79 450 -76 455 -76 455 c 1
 -58 486 -28 548 -20 583 c 0
 -12 618 -10 623 0 623 c 0
 10 623 12 618 20 583 c 0
 28 548 58 486 76 455 c 1
 76 455 79 450 79 444 c 0
 79 436 73 431 66 431 c 0
 58 431 48 435 40 439 c 0
 32 443 15 446 15 446 c 1
 15 108 l 1
 46 133 67 144 102 144 c 0
 155 144 185 108 185 62 c 0
 185 -25 109 -88 32 -146 c 0
 20 -155 6 -165 0 -165 c 0
 -8 -165 -15 -160 -15 -153 c 2
 -15 446 l 1
 -15 446 -32 443 -40 439 c 0
 -48 435 -58 431 -66 431 c 0
 -73 431 -79 436 -79 444 c 0
15 58 m 1
 15 -112 l 1
 49 -82 108 -28 108 62 c 0
 108 83 97 97 71 97 c 0
 47 97 28 77 15 58 c 1
EndSplineSet
EndChar

StartChar: uniE2A7
Encoding: 58023 58023 540
Width: 240
Flags: W
VStem: 64 30<-84 56 148 323> 210 30<-336.99 -148 -56 84>
LayerCount: 2
Fore
SplineSet
0 321 m 0
 0 327 3 332 3 332 c 1
 21 363 51 425 59 460 c 0
 67 495 69 500 79 500 c 0
 89 500 91 495 99 460 c 0
 107 425 137 363 155 332 c 1
 155 332 158 327 158 321 c 0
 158 313 152 308 145 308 c 0
 137 308 127 312 119 316 c 0
 111 320 94 323 94 323 c 1
 94 148 l 1
 225 180 l 1
 237 180 240 169 240 169 c 1
 240 -323 l 1
 240 -323 240 -337 225 -337 c 0
 210 -337 210 -323 210 -323 c 1
 210 -148 l 1
 79 -180 l 1
 67 -180 64 -169 64 -169 c 1
 64 323 l 1
 64 323 47 320 39 316 c 0
 31 312 21 308 13 308 c 0
 6 308 0 313 0 321 c 0
94 56 m 1
 94 -84 l 1
 210 -56 l 1
 210 84 l 1
 94 56 l 1
EndSplineSet
EndChar

StartChar: uniE2A8
Encoding: 58024 58024 541
Width: 246
Flags: W
VStem: 54 30<-375.99 -188 -88 64 164 351.99> 152 30<-351.99 -164 -64 88 188 415>
DStem2: 15 147 54 64 0.97116 0.238429<-20.5057 18.0857 71.0633 118.982 171.959 210.551> 15 -105 54 -188 0.97116 0.238429<-20.5057 18.0857 71.0633 118.982 171.959 210.551>
LayerCount: 2
Fore
SplineSet
0 64 m 1
 0 129 l 2
 0 142 15 147 15 147 c 1
 54 157 l 1
 54 338 l 1
 54 338 54 352 69 352 c 0
 84 352 84 338 84 338 c 1
 84 164 l 1
 152 181 l 1
 152 415 l 1
 152 415 135 412 127 408 c 0
 119 404 109 400 101 400 c 0
 94 400 88 405 88 413 c 0
 88 419 91 424 91 424 c 1
 109 455 139 517 147 552 c 0
 155 587 157 592 167 592 c 0
 177 592 179 587 187 552 c 0
 195 517 225 455 243 424 c 1
 243 424 246 419 246 413 c 0
 246 405 240 400 233 400 c 0
 225 400 215 404 207 408 c 0
 199 412 182 415 182 415 c 1
 182 188 l 1
 182 188 218 198 221 198 c 0
 227 198 233 197 236 188 c 1
 236 123 l 2
 236 110 221 105 221 105 c 1
 182 95 l 1
 182 -64 l 1
 182 -64 218 -54 221 -54 c 0
 227 -54 233 -55 236 -64 c 1
 236 -129 l 2
 236 -142 221 -147 221 -147 c 1
 182 -157 l 1
 182 -338 l 1
 182 -338 182 -352 167 -352 c 0
 152 -352 152 -338 152 -338 c 1
 152 -164 l 1
 84 -181 l 1
 84 -362 l 1
 84 -362 84 -376 69 -376 c 0
 54 -376 54 -362 54 -362 c 1
 54 -188 l 1
 54 -188 18 -198 15 -198 c 0
 9 -198 3 -197 0 -188 c 1
 0 -123 l 2
 0 -110 15 -105 15 -105 c 1
 54 -95 l 1
 54 64 l 1
 54 64 18 54 15 54 c 0
 9 54 3 55 0 64 c 1
84 71 m 1
 84 -88 l 1
 152 -71 l 1
 152 88 l 1
 84 71 l 1
EndSplineSet
EndChar

StartChar: uniE424
Encoding: 58404 58404 807
Width: 334
Flags: W
VStem: 54 30<-387.99 -200 -100 52 152 339.99> 152 30<-363.99 -176 -76 76 176 363.99> 250 30<-339.99 -152 -52 100 200 387.99>
DStem2: 15 135 54 52 0.971211 0.238222<-20.4864 18.1048 71.0633 119.001 171.959 219.897 272.855 311.447> 15 -117 54 -200 0.971211 0.238222<-20.4864 18.1048 71.0633 119.001 171.959 219.897 272.855 311.447>
CounterMasks: 1 e0
LayerCount: 2
Fore
SplineSet
0 52 m 1
 0 117 l 2
 0 130 15 135 15 135 c 1
 54 145 l 1
 54 326 l 1
 54 326 54 340 69 340 c 0
 84 340 84 326 84 326 c 1
 84 152 l 1
 152 169 l 1
 152 350 l 1
 152 350 152 364 167 364 c 0
 182 364 182 350 182 350 c 1
 182 176 l 1
 250 193 l 1
 250 374 l 1
 250 374 250 388 265 388 c 0
 280 388 280 374 280 374 c 1
 280 200 l 1
 280 200 316 210 319 210 c 0
 325 210 331 209 334 200 c 1
 334 135 l 2
 334 122 319 117 319 117 c 1
 280 107 l 1
 280 -52 l 1
 280 -52 316 -42 319 -42 c 0
 325 -42 331 -43 334 -52 c 1
 334 -117 l 2
 334 -130 319 -135 319 -135 c 1
 280 -145 l 1
 280 -326 l 1
 280 -326 280 -340 265 -340 c 0
 250 -340 250 -326 250 -326 c 1
 250 -152 l 1
 182 -169 l 1
 182 -350 l 1
 182 -350 182 -364 167 -364 c 0
 152 -364 152 -350 152 -350 c 1
 152 -176 l 1
 84 -193 l 1
 84 -374 l 1
 84 -374 84 -388 69 -388 c 0
 54 -388 54 -374 54 -374 c 1
 54 -200 l 1
 54 -200 18 -210 15 -210 c 0
 9 -210 3 -209 0 -200 c 1
 0 -135 l 2
 0 -122 15 -117 15 -117 c 1
 54 -107 l 1
 54 52 l 1
 54 52 18 42 15 42 c 0
 9 42 3 43 0 52 c 1
84 59 m 1
 84 -100 l 1
 152 -83 l 1
 152 76 l 1
 84 59 l 1
182 -76 m 1
 250 -59 l 1
 250 100 l 1
 182 83 l 1
 182 -76 l 1
EndSplineSet
EndChar

StartChar: uniE430
Encoding: 58416 58416 809
Width: 185
Flags: W
HStem: 97 47<33.9534 105.302> 140 28<-128.954 -121> 255 28<-128.954 -121 121 128.995> 371 28<121 128.954>
VStem: -15 30<-112 76.2842 108 188 236 303 351 459.99> 108 77<-15.9748 94.5009>
DStem2: -121 283 -107 257 0.894427 0.447214<-6.17616 103.754 152.053 261.982> -15 221 -15 188 0.894427 0.447214<-124.688 -14.758 33.541 143.471>
LayerCount: 2
Fore
SplineSet
-129 155 m 0x7c
 -129 161 -126 165 -121 168 c 2x7c
 -15 221 l 1
 -15 303 l 1
 -107 257 l 2
 -109 256 -112 255 -114 255 c 0
 -122 255 -129 261 -129 270 c 0
 -129 276 -126 280 -121 283 c 2
 -15 336 l 1
 -15 446 l 1
 -15 446 -15 460 0 460 c 0
 15 460 15 446 15 446 c 1
 15 351 l 1
 107 397 l 2
 109 398 112 399 114 399 c 0
 122 399 129 393 129 384 c 0
 129 378 126 374 121 371 c 2
 15 318 l 1
 15 236 l 1
 107 282 l 2
 109 283 112 284 114 284 c 0
 122 284 129 278 129 269 c 0
 129 263 126 259 121 256 c 2
 15 203 l 1
 15 108 l 1
 46 133 67 144 102 144 c 0xbc
 155 144 185 108 185 62 c 0
 185 -25 109 -88 32 -146 c 0
 20 -155 6 -165 0 -165 c 0
 -8 -165 -15 -160 -15 -153 c 2
 -15 188 l 1
 -107 142 l 2
 -109 141 -112 140 -114 140 c 0
 -122 140 -129 146 -129 155 c 0x7c
15 58 m 1
 15 -112 l 1
 49 -82 108 -28 108 62 c 0
 108 83 97 97 71 97 c 0xbc
 47 97 28 77 15 58 c 1
EndSplineSet
EndChar

StartChar: uniE431
Encoding: 58417 58417 810
Width: 185
Flags: W
HStem: 97 47<33.9534 105.302>
VStem: -15 30<-112 76.2842 108 459.99> 108 77<-15.9748 94.5009>
LayerCount: 2
Fore
SplineSet
-15 -153 m 2
 -15 446 l 1
 -15 446 -15 460 0 460 c 0
 15 460 15 446 15 446 c 1
 15 108 l 1
 46 133 67 144 102 144 c 0
 155 144 185 108 185 62 c 0
 185 -25 109 -88 32 -146 c 0
 20 -155 6 -165 0 -165 c 0
 -8 -165 -15 -160 -15 -153 c 2
15 58 m 1
 15 -112 l 1
 49 -82 108 -28 108 62 c 0
 108 83 97 97 71 97 c 0
 47 97 28 77 15 58 c 1
EndSplineSet
EndChar

StartChar: uniE432
Encoding: 58418 58418 811
Width: 185
Flags: W
HStem: 97 47<33.9534 105.302> 185 28<-128.954 -121>
VStem: -15 30<-112 76.2842 108 233 281 459.99> 108 77<-15.9748 94.5009>
DStem2: -15 266 -15 233 0.894427 0.447214<-124.688 -14.758 33.541 143.471>
LayerCount: 2
Fore
SplineSet
-129 200 m 0
 -129 206 -126 210 -121 213 c 2
 -15 266 l 1
 -15 446 l 1
 -15 446 -15 460 0 460 c 0
 15 460 15 446 15 446 c 1
 15 281 l 1
 107 327 l 2
 109 328 112 329 114 329 c 0
 122 329 129 323 129 314 c 0
 129 308 126 304 121 301 c 2
 15 248 l 1
 15 108 l 1
 46 133 67 144 102 144 c 0
 155 144 185 108 185 62 c 0
 185 -25 109 -88 32 -146 c 0
 20 -155 6 -165 0 -165 c 0
 -8 -165 -15 -160 -15 -153 c 2
 -15 233 l 1
 -107 187 l 2
 -109 186 -112 185 -114 185 c 0
 -122 185 -129 191 -129 200 c 0
15 58 m 1
 15 -112 l 1
 49 -82 108 -28 108 62 c 0
 108 83 97 97 71 97 c 0
 47 97 28 77 15 58 c 1
EndSplineSet
EndChar

StartChar: uniE433
Encoding: 58419 58419 812
Width: 200
Flags: W
HStem: 97 47<79.6984 151.047>
VStem: 0 77<-15.9748 94.5009> 170 30<-112 76.2842 108 459.99>
LayerCount: 2
Fore
SplineSet
0 62 m 0
 0 108 30 144 83 144 c 0
 118 144 139 133 170 108 c 1
 170 446 l 1
 170 446 170 460 185 460 c 0
 200 460 200 446 200 446 c 1
 200 -153 l 2
 200 -160 193 -165 185 -165 c 0
 179 -165 165 -155 153 -146 c 0
 76 -88 0 -25 0 62 c 0
77 62 m 0
 77 -28 136 -82 170 -112 c 1
 170 58 l 1
 157 77 138 97 114 97 c 0
 88 97 77 83 77 62 c 0
EndSplineSet
EndChar

StartChar: uniE434
Encoding: 58420 58420 813
Width: 138
Flags: W
VStem: 0 138<-160.719 -93.0037 91.2812 158.996> 54 30<-363.99 -176 -76 76 176 363.99>
LayerCount: 2
Fore
SplineSet
0 76 m 1x80
 0 141 l 2x80
 0 154 15 159 15 159 c 1
 54 169 l 1
 54 350 l 1
 54 350 54 364 69 364 c 0
 84 364 84 350 84 350 c 1
 84 176 l 1x40
 84 176 120 186 123 186 c 0
 129 186 135 185 138 176 c 1
 138 111 l 2x80
 138 98 123 93 123 93 c 1
 84 83 l 1
 84 -76 l 1x40
 84 -76 120 -66 123 -66 c 0
 129 -66 135 -67 138 -76 c 1
 138 -141 l 2x80
 138 -154 123 -159 123 -159 c 1
 84 -169 l 1
 84 -350 l 1
 84 -350 84 -364 69 -364 c 0
 54 -364 54 -350 54 -350 c 1
 54 -176 l 1x40
 54 -176 18 -186 15 -186 c 0
 9 -186 3 -185 0 -176 c 1
 0 -111 l 2x80
 0 -98 15 -93 15 -93 c 1
 54 -83 l 1
 54 76 l 1x40
 54 76 18 66 15 66 c 0
 9 66 3 67 0 76 c 1x80
84 83 m 0x40
EndSplineSet
EndChar

StartChar: uniE435
Encoding: 58421 58421 814
Width: 236
Flags: W
VStem: 54 30<-375.99 -188 -88 64 164 351.99> 152 30<-351.99 -164 -64 88 188 375.99>
DStem2: 15 147 54 64 0.97116 0.238429<-20.5057 18.0857 71.0633 118.982 171.959 210.551> 15 -105 54 -188 0.97116 0.238429<-20.5057 18.0857 71.0633 118.982 171.959 210.551>
LayerCount: 2
Fore
SplineSet
0 64 m 1
 0 129 l 2
 0 142 15 147 15 147 c 1
 54 157 l 1
 54 338 l 1
 54 338 54 352 69 352 c 0
 84 352 84 338 84 338 c 1
 84 164 l 1
 152 181 l 1
 152 362 l 1
 152 362 152 376 167 376 c 0
 182 376 182 362 182 362 c 1
 182 188 l 1
 182 188 218 198 221 198 c 0
 227 198 233 197 236 188 c 1
 236 123 l 2
 236 110 221 105 221 105 c 1
 182 95 l 1
 182 -64 l 1
 182 -64 218 -54 221 -54 c 0
 227 -54 233 -55 236 -64 c 1
 236 -129 l 2
 236 -142 221 -147 221 -147 c 1
 182 -157 l 1
 182 -338 l 1
 182 -338 182 -352 167 -352 c 0
 152 -352 152 -338 152 -338 c 1
 152 -164 l 1
 84 -181 l 1
 84 -362 l 1
 84 -362 84 -376 69 -376 c 0
 54 -376 54 -362 54 -362 c 1
 54 -188 l 1
 54 -188 18 -198 15 -198 c 0
 9 -198 3 -197 0 -188 c 1
 0 -123 l 2
 0 -110 15 -105 15 -105 c 1
 54 -95 l 1
 54 64 l 1
 54 64 18 54 15 54 c 0
 9 54 3 55 0 64 c 1
84 71 m 1
 84 -88 l 1
 152 -71 l 1
 152 88 l 1
 84 71 l 1
EndSplineSet
EndChar

StartChar: uniE436
Encoding: 58422 58422 815
Width: 188
Flags: W
HStem: -66 93<0.142811 43> -27 93<145 187.857>
VStem: 25 138<-200.719 -133.004 131.281 198.996> 79 30<-363.99 -216 -116 -50 50 116 216 363.99>
DStem2: 79 43 79 -50 0.971346 0.23767<-86.3467 -22.1033 30.8041 95.0475>
LayerCount: 2
Fore
SplineSet
0 9 m 2x90
 0 22 15 27 15 27 c 1
 79 43 l 1
 79 116 l 1x90
 79 116 43 106 40 106 c 0
 34 106 28 107 25 116 c 1
 25 181 l 2xa0
 25 194 40 199 40 199 c 1
 79 209 l 1
 79 350 l 1
 79 350 79 364 94 364 c 0
 109 364 109 350 109 350 c 1
 109 216 l 1x90
 109 216 145 226 148 226 c 0
 154 226 160 225 163 216 c 1
 163 151 l 2xa0
 163 138 148 133 148 133 c 1
 109 123 l 1
 109 50 l 1
 109 50 170 66 173 66 c 0
 179 66 185 65 188 56 c 1
 188 -9 l 2
 188 -22 173 -27 173 -27 c 1
 109 -43 l 1
 109 -116 l 1x50
 109 -116 145 -106 148 -106 c 0
 154 -106 160 -107 163 -116 c 1
 163 -181 l 2x60
 163 -194 148 -199 148 -199 c 1
 109 -209 l 1
 109 -350 l 1
 109 -350 109 -364 94 -364 c 0
 79 -364 79 -350 79 -350 c 1
 79 -216 l 1x50
 79 -216 43 -226 40 -226 c 0
 34 -226 28 -225 25 -216 c 1
 25 -151 l 2x60
 25 -138 40 -133 40 -133 c 1
 79 -123 l 1
 79 -50 l 1
 79 -50 18 -66 15 -66 c 0
 9 -66 3 -65 0 -56 c 1
 0 9 l 2x90
EndSplineSet
EndChar

StartChar: uniE437
Encoding: 58423 58423 816
Width: 286
Flags: W
HStem: -78 93<0.142811 43> -15 93<243 285.857>
VStem: 79 30<-375.99 -228 -128 -62 38 104 204 351.99> 177 30<-351.99 -204 -104 -38 62 128 228 375.99>
DStem2: 40 187 79 104 0.97116 0.238429<-20.5057 18.0857 71.0633 118.982 171.959 210.551> 40 -145 79 -228 0.97116 0.238429<-20.5057 18.0857 71.0633 118.982 171.959 210.551> 79 31 79 -62 0.971321 0.237771<-86.3562 -22.1127 30.804 78.7832 131.7 195.943>
LayerCount: 2
Fore
SplineSet
0 -3 m 2xb0
 0 10 15 15 15 15 c 1xb0
 79 31 l 1
 79 104 l 1
 79 104 43 94 40 94 c 0
 34 94 28 95 25 104 c 1
 25 169 l 2
 25 182 40 187 40 187 c 1
 79 197 l 1
 79 338 l 1
 79 338 79 352 94 352 c 0
 109 352 109 338 109 338 c 1
 109 204 l 1
 177 221 l 1
 177 362 l 1
 177 362 177 376 192 376 c 0
 207 376 207 362 207 362 c 1
 207 228 l 1
 207 228 243 238 246 238 c 0
 252 238 258 237 261 228 c 1
 261 163 l 2
 261 150 246 145 246 145 c 1
 207 135 l 1
 207 62 l 1
 207 62 268 78 271 78 c 0
 277 78 283 77 286 68 c 1
 286 3 l 2
 286 -10 271 -15 271 -15 c 1x70
 207 -31 l 1
 207 -104 l 1
 207 -104 243 -94 246 -94 c 0
 252 -94 258 -95 261 -104 c 1
 261 -169 l 2
 261 -182 246 -187 246 -187 c 1
 207 -197 l 1
 207 -338 l 1
 207 -338 207 -352 192 -352 c 0
 177 -352 177 -338 177 -338 c 1
 177 -204 l 1
 109 -221 l 1
 109 -362 l 1
 109 -362 109 -376 94 -376 c 0
 79 -376 79 -362 79 -362 c 1
 79 -228 l 1
 79 -228 43 -238 40 -238 c 0
 34 -238 28 -237 25 -228 c 1
 25 -163 l 2
 25 -150 40 -145 40 -145 c 1
 79 -135 l 1
 79 -62 l 1
 79 -62 18 -78 15 -78 c 0
 9 -78 3 -77 0 -68 c 1
 0 -3 l 2xb0
109 38 m 1
 177 55 l 1
 177 128 l 1
 109 111 l 1
 109 38 l 1
109 -55 m 1
 109 -128 l 1
 177 -111 l 1
 177 -38 l 1
 109 -55 l 1
EndSplineSet
EndChar

StartChar: uniE460
Encoding: 58464 58464 827
Width: 222
Flags: W
HStem: 89 38<-219.993 -178.045>
VStem: 126 96<-48 48>
DStem2: -204 -89 -190 -125 0.964986 0.262303<-6.80149 341.79> 211 16 126 0 0.964986 -0.262303<-426.419 -77.8269>
LayerCount: 2
Fore
SplineSet
-220 108 m 0
 -220 118 -211 127 -201 127 c 0
 -195 127 -190 125 -190 125 c 1
 211 16 l 1
 211 16 222 13 222 0 c 0
 222 -13 211 -16 211 -16 c 1
 -190 -125 l 1
 -190 -125 -195 -127 -201 -127 c 0
 -211 -127 -220 -118 -220 -108 c 0
 -220 -99 -213 -91 -204 -89 c 2
 126 0 l 1
 -204 89 l 2
 -213 91 -220 99 -220 108 c 0
EndSplineSet
AlternateSubs2: "Podtablica 'salt' Alternatywy stylistyczne w tablicy 3" uniE460.salt01
EndChar

StartChar: uniE461
Encoding: 58465 58465 828
Width: 49
Flags: W
HStem: -49 98<-40.6152 40.6152>
VStem: -49 98<-40.6152 40.6152>
LayerCount: 2
Fore
SplineSet
-49 0 m 0
 -49 27 -27 49 0 49 c 0
 27 49 49 27 49 0 c 0
 49 -27 27 -49 0 -49 c 0
 -27 -49 -49 -27 -49 0 c 0
EndSplineSet
EndChar

StartChar: uniE462
Encoding: 58466 58466 829
Width: 152
Flags: W
HStem: -15 30<-151.99 151.99>
VStem: -152 304<-15 15>
LayerCount: 2
Fore
SplineSet
-152 0 m 0
 -152 15 -138 15 -138 15 c 1
 138 15 l 1
 138 15 152 15 152 0 c 0
 152 -15 138 -15 138 -15 c 1
 -138 -15 l 1
 -138 -15 -152 -15 -152 0 c 0
EndSplineSet
EndChar

StartChar: uniE463
Encoding: 58467 58467 830
Width: 114
Flags: W
HStem: 0 198
VStem: -82 164<174.004 194>
LayerCount: 2
Fore
SplineSet
-82 185 m 0
 -82 194 -75 198 -68 198 c 0
 -59 198 -50 194 -41 190 c 0
 -32 186 -13 180 0 180 c 0
 13 180 32 186 41 190 c 0
 50 194 59 198 68 198 c 0
 75 198 82 194 82 185 c 0
 82 179 78 174 78 174 c 1
 59 142 30 77 21 41 c 0
 12 5 10 0 0 0 c 0
 -10 0 -12 5 -21 41 c 0
 -30 77 -59 142 -78 174 c 1
 -78 174 -82 179 -82 185 c 0
EndSplineSet
EndChar

StartChar: uniE464
Encoding: 58468 58468 831
Width: 114
Flags: W
HStem: -198 198
VStem: -82 164<-194 -174.004>
LayerCount: 2
Fore
SplineSet
-82 -185 m 0
 -82 -179 -78 -174 -78 -174 c 1
 -59 -142 -30 -77 -21 -41 c 0
 -12 -5 -10 0 0 0 c 0
 10 0 12 -5 21 -41 c 0
 30 -77 59 -142 78 -174 c 1
 78 -174 82 -179 82 -185 c 0
 82 -194 75 -198 68 -198 c 0
 59 -198 50 -194 41 -190 c 0
 32 -186 13 -180 0 -180 c 0
 -13 -180 -32 -186 -41 -190 c 0
 -50 -194 -59 -198 -68 -198 c 0
 -75 -198 -82 -194 -82 -185 c 0
EndSplineSet
EndChar

StartChar: uniE465
Encoding: 58469 58469 832
Width: 114
Flags: W
HStem: 0 198
VStem: -82 164<174.004 194>
LayerCount: 2
Fore
SplineSet
-82 185 m 0
 -82 194 -75 198 -68 198 c 0
 -59 198 -50 194 -41 190 c 0
 -32 186 -13 180 0 180 c 0
 13 180 32 186 41 190 c 0
 50 194 59 198 68 198 c 0
 75 198 82 194 82 185 c 0
 82 179 78 174 78 174 c 1
 59 142 30 77 21 41 c 0
 12 5 10 0 0 0 c 0
 -10 0 -12 5 -21 41 c 0
 -30 77 -59 142 -78 174 c 1
 -78 174 -82 179 -82 185 c 0
EndSplineSet
EndChar

StartChar: uniE466
Encoding: 58470 58470 833
Width: 114
Flags: W
HStem: -198 198
VStem: -82 164<-194 -174.004>
LayerCount: 2
Fore
SplineSet
-82 -185 m 0
 -82 -179 -78 -174 -78 -174 c 1
 -59 -142 -30 -77 -21 -41 c 0
 -12 -5 -10 0 0 0 c 0
 10 0 12 -5 21 -41 c 0
 30 -77 59 -142 78 -174 c 1
 78 -174 82 -179 82 -185 c 0
 82 -194 75 -198 68 -198 c 0
 59 -198 50 -194 41 -190 c 0
 32 -186 13 -180 0 -180 c 0
 -13 -180 -32 -186 -41 -190 c 0
 -50 -194 -59 -198 -68 -198 c 0
 -75 -198 -82 -194 -82 -185 c 0
EndSplineSet
EndChar

StartChar: uniE469
Encoding: 58473 58473 836
Width: 126
Flags: W
HStem: 0 21G<-122 -108.5 61.5 120>
VStem: -126 252<3 5>
DStem2: -124 11 -102 11 0.282166 0.959365<-8.14613 283.408> 9 402 -24 277 0.284422 -0.958699<110.451 405.858>
LayerCount: 2
Fore
SplineSet
-126 3 m 0
 -126 5 -124 11 -124 11 c 1
 -9 402 l 1
 -9 402 -8 412 0 412 c 0
 8 412 9 402 9 402 c 1
 125 11 l 1
 125 11 126 8 126 6 c 0
 126 3 124 0 116 0 c 2
 65 0 l 2
 58 0 55 11 55 11 c 1
 -24 277 l 1
 -102 11 l 1
 -102 11 -105 0 -112 0 c 2
 -120 0 l 2
 -124 0 -126 1 -126 3 c 0
EndSplineSet
EndChar

StartChar: uniE46A
Encoding: 58474 58474 837
Width: 126
Flags: W
HStem: -20 20G<-120 -61.5 108.5 122>
VStem: -126 71<-34.3932 0>
DStem2: 24 -277 -125 -11 0.284422 -0.958699<-295.406 0> 24 -277 9 -402 0.282166 0.959365<0 291.554>
LayerCount: 2
Fore
SplineSet
-126 -6 m 0
 -126 -3 -124 0 -116 0 c 2
 -65 0 l 2
 -58 0 -55 -11 -55 -11 c 1
 24 -277 l 1
 102 -11 l 1
 102 -11 105 0 112 0 c 2
 120 0 l 2
 124 0 126 -1 126 -3 c 0
 126 -5 124 -11 124 -11 c 1
 9 -402 l 1
 9 -402 8 -412 0 -412 c 0
 -8 -412 -9 -402 -9 -402 c 1
 -125 -11 l 1
 -125 -11 -126 -8 -126 -6 c 0
EndSplineSet
EndChar

StartChar: uniE46F
Encoding: 58479 58479 842
Width: 152
Flags: W
HStem: -180 100<-41.5625 41.5625> -15 30<-151.99 151.99>
VStem: -50 100<-171.562 -88.4375>
LayerCount: 2
Fore
SplineSet
-152 0 m 0
 -152 15 -138 15 -138 15 c 1
 138 15 l 1
 138 15 152 15 152 0 c 0
 152 -15 138 -15 138 -15 c 1
 -138 -15 l 1
 -138 -15 -152 -15 -152 0 c 0
-50 -130 m 0
 -50 -102 -28 -80 0 -80 c 0
 28 -80 50 -102 50 -130 c 0
 50 -158 28 -180 0 -180 c 0
 -28 -180 -50 -158 -50 -130 c 0
EndSplineSet
EndChar

StartChar: uniE470
Encoding: 58480 58480 843
Width: 152
Flags: W
HStem: -15 30<-151.99 151.99> 80 100<-41.5625 41.5625>
VStem: -50 100<88.4375 171.562>
LayerCount: 2
Fore
SplineSet
-152 0 m 0
 -152 15 -138 15 -138 15 c 1
 138 15 l 1
 138 15 152 15 152 0 c 0
 152 -15 138 -15 138 -15 c 1
 -138 -15 l 1
 -138 -15 -152 -15 -152 0 c 0
-50 130 m 0
 -50 158 -28 180 0 180 c 0
 28 180 50 158 50 130 c 0
 50 102 28 80 0 80 c 0
 -28 80 -50 102 -50 130 c 0
EndSplineSet
EndChar

StartChar: uniE471
Encoding: 58481 58481 844
Width: 59
Flags: W
HStem: -140 279
VStem: -59 118
LayerCount: 2
Fore
SplineSet
-59 -132 m 0
 -59 -129 -56 -115 -56 -115 c 1
 -56 -115 -11 107 -7 118 c 0
 -3 129 8 139 26 139 c 0
 44 139 59 124 59 101 c 0
 59 88 -36 -115 -36 -115 c 1
 -36 -115 -46 -140 -53 -140 c 0
 -55 -140 -59 -140 -59 -132 c 0
EndSplineSet
EndChar

StartChar: uniE472
Encoding: 58482 58482 845
Width: 59
Flags: W
HStem: -140 279
VStem: -59 118
LayerCount: 2
Fore
SplineSet
-59 -102 m 0
 -59 -89 36 114 36 114 c 1
 36 114 46 139 53 139 c 0
 55 139 59 139 59 131 c 0
 59 128 56 114 56 114 c 1
 56 114 11 -108 7 -119 c 0
 3 -130 -8 -140 -26 -140 c 0
 -44 -140 -59 -125 -59 -102 c 0
EndSplineSet
EndChar

StartChar: uniE480
Encoding: 58496 58496 850
Width: 325
Flags: W
HStem: 0 92<-38.6526 38.6526> 254 99<-116.712 116.712>
VStem: -325 30<0.00585175 90.5701> -46 92<7.34745 84.6526> 295 30<0.00585175 90.5701>
CounterMasks: 1 38
LayerCount: 2
Fore
SplineSet
-325 22 m 0
 -325 214 -177 353 0 353 c 0
 177 353 325 214 325 22 c 0
 325 8 322 0 310 0 c 0
 298 0 295 8 295 22 c 0
 295 149 164 254 0 254 c 0
 -164 254 -295 149 -295 22 c 0
 -295 8 -298 0 -310 0 c 0
 -322 0 -325 8 -325 22 c 0
-46 46 m 0
 -46 71 -25 92 0 92 c 0
 25 92 46 71 46 46 c 0
 46 21 25 0 0 0 c 0
 -25 0 -46 21 -46 46 c 0
EndSplineSet
EndChar

StartChar: uniE481
Encoding: 58497 58497 851
Width: 325
Flags: W
HStem: -353 99<-116.712 116.712> -92 92<-38.6526 38.6526>
VStem: -325 30<-90.5701 -0.00585175> -46 92<-84.6526 -7.34745> 295 30<-90.5701 -0.00585175>
CounterMasks: 1 38
LayerCount: 2
Fore
SplineSet
-325 -22 m 0
 -325 -8 -322 0 -310 0 c 0
 -298 0 -295 -8 -295 -22 c 0
 -295 -149 -164 -254 0 -254 c 0
 164 -254 295 -149 295 -22 c 0
 295 -8 298 0 310 0 c 0
 322 0 325 -8 325 -22 c 0
 325 -214 177 -353 0 -353 c 0
 -177 -353 -325 -214 -325 -22 c 0
-46 -46 m 0
 -46 -21 -25 0 0 0 c 0
 25 0 46 -21 46 -46 c 0
 46 -71 25 -92 0 -92 c 0
 -25 -92 -46 -71 -46 -46 c 0
EndSplineSet
EndChar

StartChar: uniE484
Encoding: 58500 58500 854
Width: 286
Flags: W
HStem: 0 92<-38.6526 38.6526>
VStem: -46 92<7.34745 84.6526>
DStem2: 14 462 -23 390 0.525077 -0.851055<41.8481 513.282> -14 462 -23 390 0.525166 0.851<-531.624 -65.9985>
LayerCount: 2
Fore
SplineSet
-291 8 m 0
 -291 13 -288 18 -288 18 c 1
 -14 462 l 1
 -14 462 -10 470 0 470 c 0
 10 470 14 462 14 462 c 1
 283 26 l 1
 283 26 290 16 290 8 c 0
 290 4 287 0 281 0 c 2
 232 0 l 2
 218 0 211 11 211 11 c 1
 -23 390 l 1
 -252 18 l 1
 -252 18 -262 0 -269 0 c 2
 -282 0 l 2
 -288 0 -291 4 -291 8 c 0
-46 46 m 0
 -46 71 -25 92 0 92 c 0
 25 92 46 71 46 46 c 0
 46 21 25 0 0 0 c 0
 -25 0 -46 21 -46 46 c 0
EndSplineSet
EndChar

StartChar: uniE485
Encoding: 58501 58501 855
Width: 286
Flags: W
HStem: -92 92<-38.6526 38.6526>
VStem: -46 92<-84.6526 -7.34745>
DStem2: -252 -18 -288 -18 0.525166 -0.851<-28.7909 436.835> -23 -390 14 -462 0.525077 0.851055<0 471.434>
LayerCount: 2
Fore
SplineSet
-291 -8 m 0
 -291 -4 -288 0 -282 0 c 2
 -269 0 l 2
 -262 0 -252 -18 -252 -18 c 1
 -23 -390 l 1
 211 -11 l 1
 211 -11 218 0 232 0 c 2
 281 0 l 2
 287 0 290 -4 290 -8 c 0
 290 -16 283 -26 283 -26 c 1
 14 -462 l 1
 14 -462 10 -470 0 -470 c 0
 -10 -470 -14 -462 -14 -462 c 1
 -288 -18 l 1
 -288 -18 -291 -13 -291 -8 c 0
-46 -46 m 0
 -46 -21 -25 0 0 0 c 0
 25 0 46 -21 46 -46 c 0
 46 -71 25 -92 0 -92 c 0
 -25 -92 -46 -71 -46 -46 c 0
EndSplineSet
EndChar

StartChar: uniE486
Encoding: 58502 58502 856
Width: 286
Flags: W
HStem: 0 92<-38.6526 38.6526> 243 121<-256 256>
VStem: -286 30<0.0101471 243> -46 92<7.34745 84.6526> 256 30<0.0101471 243>
CounterMasks: 1 38
LayerCount: 2
Fore
SplineSet
-286 14 m 1
 -286 353 l 2
 -286 359 -280 364 -274 364 c 2
 274 364 l 2
 280 364 286 359 286 353 c 2
 286 14 l 1
 286 14 286 0 271 0 c 0
 256 0 256 14 256 14 c 1
 256 243 l 1
 -256 243 l 1
 -256 14 l 1
 -256 14 -256 0 -271 0 c 0
 -286 0 -286 14 -286 14 c 1
-46 46 m 0
 -46 71 -25 92 0 92 c 0
 25 92 46 71 46 46 c 0
 46 21 25 0 0 0 c 0
 -25 0 -46 21 -46 46 c 0
EndSplineSet
EndChar

StartChar: uniE487
Encoding: 58503 58503 857
Width: 286
Flags: W
HStem: -364 121<-256 256> -92 92<-38.6526 38.6526>
VStem: -286 30<-243 -0.0101471> -46 92<-84.6526 -7.34745> 256 30<-243 -0.0101471>
CounterMasks: 1 38
LayerCount: 2
Fore
SplineSet
-286 -14 m 1
 -286 -14 -286 0 -271 0 c 0
 -256 0 -256 -14 -256 -14 c 1
 -256 -243 l 1
 256 -243 l 1
 256 -14 l 1
 256 -14 256 0 271 0 c 0
 286 0 286 -14 286 -14 c 1
 286 -353 l 2
 286 -359 280 -364 274 -364 c 2
 -274 -364 l 2
 -280 -364 -286 -359 -286 -353 c 2
 -286 -14 l 1
-46 -46 m 0
 -46 -21 -25 0 0 0 c 0
 25 0 46 -21 46 -46 c 0
 46 -71 25 -92 0 -92 c 0
 -25 -92 -46 -71 -46 -46 c 0
EndSplineSet
EndChar

StartChar: uniE488
Encoding: 58504 58504 858
Width: 286
Flags: W
HStem: 0 92<-38.6526 38.6526> 146 100<-180 180> 293 122<-256 256>
VStem: -286 30<0.0101471 293> -210 30<0.0101471 146> -46 92<7.34745 84.6526> 180 30<0.0101471 146> 256 30<0.0101471 293>
LayerCount: 2
Fore
SplineSet
-286 14 m 1
 -286 404 l 2
 -286 410 -280 415 -274 415 c 2
 274 415 l 2
 280 415 286 410 286 404 c 2
 286 14 l 1
 286 14 286 0 271 0 c 0
 256 0 256 14 256 14 c 1
 256 293 l 1
 -256 293 l 1
 -256 14 l 1
 -256 14 -256 0 -271 0 c 0
 -286 0 -286 14 -286 14 c 1
-210 14 m 1
 -210 235 l 2
 -210 241 -204 246 -198 246 c 2
 198 246 l 2
 204 246 210 241 210 235 c 2
 210 14 l 1
 210 14 210 0 195 0 c 0
 180 0 180 14 180 14 c 1
 180 146 l 1
 -180 146 l 1
 -180 14 l 1
 -180 14 -180 0 -195 0 c 0
 -210 0 -210 14 -210 14 c 1
-46 46 m 0
 -46 71 -25 92 0 92 c 0
 25 92 46 71 46 46 c 0
 46 21 25 0 0 0 c 0
 -25 0 -46 21 -46 46 c 0
EndSplineSet
EndChar

StartChar: uniE489
Encoding: 58505 58505 859
Width: 286
Flags: W
HStem: -415 122<-256 256> -246 100<-180 180> -92 92<-38.6526 38.6526>
VStem: -286 30<-293 -0.0101471> -210 30<-146 -0.0101471> -46 92<-84.6526 -7.34745> 180 30<-146 -0.0101471> 256 30<-293 -0.0101471>
LayerCount: 2
Fore
SplineSet
-286 -14 m 1
 -286 -14 -286 0 -271 0 c 0
 -256 0 -256 -14 -256 -14 c 1
 -256 -293 l 1
 256 -293 l 1
 256 -14 l 1
 256 -14 256 0 271 0 c 0
 286 0 286 -14 286 -14 c 1
 286 -404 l 2
 286 -410 280 -415 274 -415 c 2
 -274 -415 l 2
 -280 -415 -286 -410 -286 -404 c 2
 -286 -14 l 1
-210 -14 m 1
 -210 -14 -210 0 -195 0 c 0
 -180 0 -180 -14 -180 -14 c 1
 -180 -146 l 1
 180 -146 l 1
 180 -14 l 1
 180 -14 180 0 195 0 c 0
 210 0 210 -14 210 -14 c 1
 210 -235 l 2
 210 -241 204 -246 198 -246 c 2
 -198 -246 l 2
 -204 -246 -210 -241 -210 -235 c 2
 -210 -14 l 1
-46 -46 m 0
 -46 -21 -25 0 0 0 c 0
 25 0 46 -21 46 -46 c 0
 46 -71 25 -92 0 -92 c 0
 -25 -92 -46 -71 -46 -46 c 0
EndSplineSet
EndChar

StartChar: uniE4A0
Encoding: 58528 58528 869
Width: 284
Flags: W
VStem: 0 284<-250 250>
LayerCount: 2
Fore
SplineSet
0 240 m 2
 0 246 4 250 10 250 c 2
 274 250 l 2
 280 250 284 246 284 240 c 2
 284 -240 l 2
 284 -246 280 -250 274 -250 c 2
 10 -250 l 2
 4 -250 0 -246 0 -240 c 2
 0 240 l 2
EndSplineSet
EndChar

StartChar: uniE4A1
Encoding: 58529 58529 870
Width: 284
Flags: W
HStem: 0 250<0 284>
VStem: 0 284<0 250>
LayerCount: 2
Fore
SplineSet
0 10 m 2
 0 240 l 2
 0 246 4 250 10 250 c 2
 274 250 l 2
 280 250 284 246 284 240 c 2
 284 10 l 2
 284 4 280 0 274 0 c 2
 10 0 l 2
 4 0 0 4 0 10 c 2
EndSplineSet
EndChar

StartChar: uniE4A2
Encoding: 58530 58530 871
Width: 330
Flags: W
HStem: -125 125<0 330>
VStem: 0 330<-125 0>
LayerCount: 2
Fore
SplineSet
0 -10 m 2
 0 -4 4 0 10 0 c 2
 320 0 l 2
 326 0 330 -4 330 -10 c 2
 330 -115 l 2
 330 -121 326 -125 320 -125 c 2
 10 -125 l 2
 4 -125 0 -121 0 -115 c 2
 0 -10 l 2
EndSplineSet
EndChar

StartChar: uniE4A3
Encoding: 58531 58531 872
Width: 330
Flags: W
HStem: 0 125<0 330>
VStem: 0 330<0 125>
LayerCount: 2
Fore
SplineSet
0 10 m 2
 0 115 l 2
 0 121 4 125 10 125 c 2
 320 125 l 2
 326 125 330 121 330 115 c 2
 330 10 l 2
 330 4 326 0 320 0 c 2
 10 0 l 2
 4 0 0 4 0 10 c 2
EndSplineSet
EndChar

StartChar: uniE4A4
Encoding: 58532 58532 873
Width: 222
Flags: W
HStem: -145 44<110 176>
VStem: 0 85<-265.925 -180.086> 13 142<5.03113 58.0378> 81 135<140.078 247.521>
LayerCount: 2
Fore
SplineSet
0 -188 m 0xc0
 0 -130 52 -101 110 -101 c 0
 124 -101 158 -107 158 -107 c 1
 158 -107 13 17 13 28 c 0xa0
 13 32 13 34 20 41 c 0
 66 91 81 158 81 216 c 0
 81 266 66 311 34 343 c 0
 30 347 28 351 28 355 c 0
 28 360 32 365 40 365 c 0
 52 365 216 255 216 210 c 0x90
 216 191 204 158 187 125 c 0
 170 92 155 54 155 27 c 0xa0
 155 -31 175 -88 198 -108 c 0
 221 -128 222 -132 222 -137 c 0
 222 -144 217 -150 209 -150 c 0
 204 -150 196 -148 193 -147 c 0
 190 -146 182 -145 176 -145 c 0
 158 -145 144 -150 130 -159 c 0
 99 -180 85 -211 85 -244 c 0
 85 -277 99 -311 128 -340 c 0
 134 -346 136 -349 136 -354 c 0
 136 -359 131 -363 126 -363 c 0
 121 -363 118 -362 112 -358 c 0
 43 -312 0 -252 0 -188 c 0xc0
EndSplineSet
EndChar

StartChar: uniE4A5
Encoding: 58533 58533 874
Width: 256
Flags: W
HStem: 39 161<33.4961 128.002>
VStem: 0 152<74.6934 176.446> 118 30<-223.961 -189.252> 226 30<132.984 170.961>
DStem2: 201 75 255 150 0.282739 0.959197<-306.214 0>
LayerCount: 2
Fore
SplineSet
0 124 m 0xd0
 0 166 34 200 76 200 c 0
 118 200 152 166 152 124 c 0xd0
 152 105 145 87 133 74 c 1
 176 86 208 116 226 160 c 0
 229 168 235 171 242 171 c 0
 249 171 256 165 256 156 c 1
 256 156 256 153 255 150 c 2
 148 -213 l 2
 145 -221 139 -224 132 -224 c 0
 125 -224 118 -218 118 -209 c 1xb0
 118 -209 118 -206 119 -203 c 2
 201 75 l 1
 170 55 139 39 104 39 c 0
 48 39 0 73 0 124 c 0xd0
EndSplineSet
EndChar

StartChar: uniE4A6
Encoding: 58534 58534 875
Width: 328
Flags: W
HStem: -205 161<33.4961 128.002> 39 161<105.496 200.002>
VStem: 0 152<-169.307 -67.5543> 72 152<74.6934 176.446> 298 30<140.516 170.961>
DStem2: 201 -169 148 -457 0.282851 0.959164<-306.212 0 34.1504 254.401>
LayerCount: 2
Fore
SplineSet
0 -120 m 0xe8
 0 -78 34 -44 76 -44 c 0
 118 -44 152 -78 152 -120 c 0xe8
 152 -139 145 -157 133 -170 c 1
 176 -158 208 -128 226 -84 c 1
 273 75 l 1
 242 55 211 39 176 39 c 0
 120 39 72 73 72 124 c 0
 72 166 106 200 148 200 c 0
 190 200 224 166 224 124 c 0xd8
 224 105 217 87 205 74 c 1
 248 86 280 116 298 160 c 0
 301 168 307 171 314 171 c 0
 321 171 328 165 328 156 c 1
 328 156 328 153 327 150 c 2
 148 -457 l 2
 145 -465 139 -468 132 -468 c 0
 125 -468 118 -462 118 -453 c 1
 118 -453 118 -450 119 -447 c 2
 201 -169 l 1
 170 -189 139 -205 104 -205 c 0
 48 -205 0 -171 0 -120 c 0xe8
EndSplineSet
EndChar

StartChar: uniE4A7
Encoding: 58535 58535 876
Width: 400
Flags: W
HStem: -205 161<33.4961 128.002> 39 161<105.496 200.002> 283 161<177.496 272.002>
VStem: 0 152<-169.307 -67.5543> 72 152<74.6934 176.446> 144 152<318.693 420.446> 370 30<380.703 414.961>
DStem2: 201 -169 148 -457 0.282898 0.95915<-306.211 0 34.1496 254.401 288.551 508.802>
CounterMasks: 1 e0
LayerCount: 2
Fore
SplineSet
0 -120 m 0xf2
 0 -78 34 -44 76 -44 c 0
 118 -44 152 -78 152 -120 c 0xf2
 152 -139 145 -157 133 -170 c 1
 176 -158 208 -128 226 -84 c 1
 273 75 l 1
 242 55 211 39 176 39 c 0
 120 39 72 73 72 124 c 0
 72 166 106 200 148 200 c 0
 190 200 224 166 224 124 c 0xea
 224 105 217 87 205 74 c 1
 248 86 280 116 298 160 c 1
 345 319 l 1
 314 299 283 283 248 283 c 0
 192 283 144 317 144 368 c 0
 144 410 178 444 220 444 c 0
 262 444 296 410 296 368 c 0xe6
 296 349 289 331 277 318 c 1
 320 330 352 360 370 404 c 0
 373 412 379 415 386 415 c 0
 393 415 400 409 400 400 c 1
 400 400 400 397 399 394 c 2
 148 -457 l 2
 145 -465 139 -468 132 -468 c 0
 125 -468 118 -462 118 -453 c 1
 118 -453 118 -450 119 -447 c 2
 201 -169 l 1
 170 -189 139 -205 104 -205 c 0
 48 -205 0 -171 0 -120 c 0xf2
EndSplineSet
EndChar

StartChar: uniE4A8
Encoding: 58536 58536 877
Width: 472
Flags: W
HStem: -449 161<33.4961 128.002> -205 161<105.496 200.002> 39 161<177.496 272.002> 283 161<249.496 344.002>
VStem: 0 152<-413.307 -311.554> 72 152<-169.307 -67.5543> 144 152<74.6934 176.446> 216 152<318.693 420.446> 442 30<376.891 414.961>
DStem2: 201 -413 148 -701 0.282925 0.959142<-306.211 0 34.1492 254.401 288.55 508.803 542.952 763.204>
LayerCount: 2
Fore
SplineSet
0 -364 m 0xf980
 0 -322 34 -288 76 -288 c 0
 118 -288 152 -322 152 -364 c 0xf980
 152 -383 145 -401 133 -414 c 1
 176 -402 208 -372 226 -328 c 1
 273 -169 l 1
 242 -189 211 -205 176 -205 c 0
 120 -205 72 -171 72 -120 c 0
 72 -78 106 -44 148 -44 c 0
 190 -44 224 -78 224 -120 c 0xf480
 224 -139 217 -157 205 -170 c 1
 248 -158 280 -128 298 -84 c 1
 345 75 l 1
 314 55 283 39 248 39 c 0
 192 39 144 73 144 124 c 0
 144 166 178 200 220 200 c 0
 262 200 296 166 296 124 c 0xf280
 296 105 289 87 277 74 c 1
 320 86 352 116 370 160 c 1
 417 319 l 1
 386 299 355 283 320 283 c 0
 264 283 216 317 216 368 c 0
 216 410 250 444 292 444 c 0
 334 444 368 410 368 368 c 0
 368 349 361 331 349 318 c 1
 392 330 424 360 442 404 c 0
 445 412 451 415 458 415 c 0
 465 415 472 409 472 400 c 1
 472 400 472 397 471 394 c 2
 148 -701 l 2
 145 -709 139 -712 132 -712 c 0
 125 -712 118 -706 118 -697 c 1
 118 -697 118 -694 119 -691 c 2
 201 -413 l 1
 170 -433 139 -449 104 -449 c 0
 48 -449 0 -415 0 -364 c 0xf980
EndSplineSet
EndChar

StartChar: uniE4A9
Encoding: 58537 58537 878
Width: 544
Flags: W
HStem: -449 161<33.4961 128.002> -205 161<105.496 200.002> 39 161<177.496 272.002> 283 161<249.496 344.002> 527 161<321.496 416.002>
VStem: 0 152<-413.307 -311.554> 72 152<-169.307 -67.5543> 144 152<74.6934 176.446> 216 152<318.693 420.446> 288 152<562.693 664.446> 514 30<638.001 658.961>
DStem2: 119 -691 148 -701 0.282942 0.959137<-16.3689 289.841 323.99 544.243 578.391 798.644 832.793 1053.05 1087.19 1307.45>
LayerCount: 2
Fore
SplineSet
0 -364 m 0xfc60
 0 -322 34 -288 76 -288 c 0
 118 -288 152 -322 152 -364 c 0xfc60
 152 -383 145 -401 133 -414 c 1
 176 -402 208 -372 226 -328 c 1
 273 -169 l 1
 242 -189 211 -205 176 -205 c 0
 120 -205 72 -171 72 -120 c 0
 72 -78 106 -44 148 -44 c 0
 190 -44 224 -78 224 -120 c 0xfa20
 224 -139 217 -157 205 -170 c 1
 248 -158 280 -128 298 -84 c 1
 345 75 l 1
 314 55 283 39 248 39 c 0
 192 39 144 73 144 124 c 0
 144 166 178 200 220 200 c 0
 262 200 296 166 296 124 c 0xf920
 296 105 289 87 277 74 c 1
 320 86 352 116 370 160 c 1
 417 319 l 1
 386 299 355 283 320 283 c 0
 264 283 216 317 216 368 c 0
 216 410 250 444 292 444 c 0
 334 444 368 410 368 368 c 0xf8a0
 368 349 361 331 349 318 c 1
 392 330 424 360 442 404 c 1
 489 563 l 1
 458 543 427 527 392 527 c 0
 336 527 288 561 288 612 c 0
 288 654 322 688 364 688 c 0
 406 688 440 654 440 612 c 0
 440 593 433 575 421 562 c 1
 464 574 496 604 514 648 c 0
 517 656 523 659 530 659 c 0
 537 659 544 653 544 644 c 1
 544 644 544 641 543 638 c 2
 148 -701 l 2
 145 -709 139 -712 132 -712 c 0
 125 -712 118 -706 118 -697 c 1
 118 -697 118 -694 119 -691 c 2
 201 -413 l 1
 170 -433 139 -449 104 -449 c 0
 48 -449 0 -415 0 -364 c 0xfc60
EndSplineSet
EndChar

StartChar: uniE4B0
Encoding: 58544 58544 885
Width: 256
Flags: W
HStem: 39 161<127.998 222.504>
VStem: 0 30<132.984 170.961> 104 152<74.6934 176.446>
DStem2: 55 75 1 150 0.282739 -0.959197<0 306.214>
LayerCount: 2
Fore
SplineSet
0 156 m 1
 0 165 7 171 14 171 c 0
 21 171 27 168 30 160 c 0
 48 116 80 86 123 74 c 1
 111 87 104 105 104 124 c 0
 104 166 138 200 180 200 c 0
 222 200 256 166 256 124 c 0
 256 73 208 39 152 39 c 0
 117 39 86 55 55 75 c 1
 137 -203 l 2
 138 -206 138 -209 138 -209 c 1
 138 -218 131 -224 124 -224 c 0
 117 -224 111 -221 108 -213 c 2
 1 150 l 2
 0 153 0 156 0 156 c 1
EndSplineSet
EndChar

StartChar: uniE4E0
Encoding: 58592 58592 899
Width: 522
VWidth: 1477
Flags: W
HStem: -293 39<-103.993 -20.5879 120.006 201.992> -53 71<231.81 326.436> 310 69<323.062 434> 332 53<98.8338 215.5>
VStem: 408 114<123.534 299.627>
DStem2: -16 -226 122 -232 0.288385 0.957514<26.9085 294.783 317.799 564.698>
LayerCount: 2
Fore
SplineSet
-104 -274 m 0xe8
 -104 -262 -94 -254 -58 -254 c 0
 -25 -254 -16 -226 -16 -226 c 1
 137 282 l 1
 137 282 144 307 144 316 c 0
 144 326 140 332 128 332 c 0
 95 332 57 277 42 244 c 0
 27 211 24 208 16 208 c 0
 8 208 4 212 4 220 c 0
 4 228 5 234 23 272 c 0
 41 310 85 385 172 385 c 0xd8
 259 385 270 314 270 314 c 1
 270 314 320 379 402 379 c 0
 466 379 522 319 522 235 c 0
 522 79 428 -53 304 -53 c 0
 248 -53 213 -27 197 18 c 1
 197 16 122 -232 122 -232 c 1
 122 -232 120 -236 120 -239 c 0
 120 -245 128 -254 155 -254 c 0
 191 -254 202 -262 202 -274 c 0
 202 -286 191 -293 155 -293 c 2
 -58 -293 l 2
 -94 -293 -104 -286 -104 -274 c 0xe8
212 68 m 1
 212 36 235 18 262 18 c 0
 368 18 408 152 408 244 c 0
 408 278 390 310 360 310 c 0xe8
 338 310 307 309 269 258 c 1
 212 68 l 1
EndSplineSet
EndChar

StartChar: uniE4E1
Encoding: 58593 58593 900
Width: 572
VWidth: 1437
Flags: W
HStem: -93 57<422.5 512.188> 291 54<15.3722 114.5 209.462 294.5 389.462 468.5>
VStem: 358 106<-35.1415 75.6762> 430 106<177.803 290.795> 572 38<18.9904 87.8027>
LayerCount: 2
Fore
SplineSet
-80 178 m 0xd8
 -80 186 -76 202 -60 236 c 0
 -44 270 11 345 80 345 c 0
 149 345 170 282 170 282 c 1
 170 282 214 345 260 345 c 0
 329 345 350 282 350 282 c 1
 350 282 394 345 440 345 c 0
 497 345 536 300 536 246 c 0xd8
 536 224 502 126 502 126 c 1
 502 126 464 14 464 -14 c 0
 464 -26 468 -36 480 -36 c 0
 518 -36 560 17 572 51 c 0
 584 85 590 90 598 90 c 0
 606 90 610 86 610 78 c 0
 610 10 526 -93 445 -93 c 0
 400 -93 358 -54 358 2 c 0xe8
 358 30 396 141 396 141 c 1
 396 141 430 239 430 261 c 0
 430 275 420 291 406 291 c 0
 374 291 355 219 355 219 c 1
 268 -57 l 2
 268 -61 247 -64 220 -64 c 0
 193 -64 162 -62 162 -54 c 1
 162 -54 250 221 250 261 c 0
 250 275 240 291 226 291 c 0
 194 291 175 219 175 219 c 1
 88 -57 l 2
 88 -61 67 -64 40 -64 c 0
 13 -64 -18 -62 -18 -54 c 1
 -18 -54 70 221 70 261 c 0
 70 275 60 291 46 291 c 0
 1 291 -36 230 -46 198 c 0
 -56 166 -60 166 -68 166 c 0
 -76 166 -80 170 -80 178 c 0xd8
EndSplineSet
EndChar

StartChar: uniE4E2
Encoding: 58594 58594 901
Width: 576
VWidth: 1424
Flags: W
HStem: -296 180<-177.558 -100.027> 275 57<-3.25842 115 294 411.258> 550 49<393.516 443.926>
VStem: -220 150<-243.269 -139.031> 426 150<447.031 547.921>
LayerCount: 2
Fore
SplineSet
-220 -191 m 0
 -220 -149 -186 -116 -144 -116 c 0
 -102 -116 -70 -149 -70 -191 c 0
 -70 -213 -80 -234 -95 -248 c 1
 21 -232 73 47 115 275 c 1
 26 275 l 1
 26 275 -4 276 -4 304 c 0
 -4 332 26 332 26 332 c 1
 130 332 l 1
 184 478 292 599 424 599 c 0
 494 599 576 567 576 499 c 0
 576 457 542 424 500 424 c 0
 458 424 426 457 426 499 c 0
 426 519 433 536 445 550 c 1
 373 550 316 452 294 332 c 1
 382 332 l 1
 382 332 412 332 412 304 c 0
 412 276 382 275 382 275 c 1
 278 275 l 1
 238 69 146 -296 -112 -296 c 0
 -169 -296 -220 -254 -220 -191 c 0
EndSplineSet
EndChar

StartChar: uniE4E3
Encoding: 58595 58595 902
Width: 448
VWidth: 1432
Flags: W
HStem: 288 52<33.3952 141.5 239.312 349.024>
VStem: 8 106<-67.2697 2.06567> 342 106<208.542 276.624>
LayerCount: 2
Fore
SplineSet
-18 259 m 0
 -18 267 -14 277 6 297 c 0
 26 317 56 337 113 337 c 0
 170 337 190 292 190 292 c 1
 190 292 239 340 311 340 c 0
 377 340 448 302 448 250 c 0
 448 222 423 198 395 198 c 0
 367 198 342 222 342 250 c 0
 342 260 346 269 350 277 c 1
 348 279 333 288 311 288 c 0
 254 288 223 259 203 225 c 0
 183 191 114 -62 114 -62 c 2
 114 -66 93 -69 66 -69 c 0
 39 -69 8 -67 8 -59 c 1
 8 -59 98 196 98 259 c 0
 98 279 88 291 70 291 c 0
 48 291 32 283 20 268 c 0
 8 253 2 247 -6 247 c 0
 -14 247 -18 251 -18 259 c 0
EndSplineSet
EndChar

StartChar: uniE4E4
Encoding: 58596 58596 903
Width: 336
VWidth: 1437
Flags: W
HStem: -96 50<92.1109 191.002> 293 53<153.731 237.024>
VStem: -4 106<-31.5767 39.4581> 44 101<199.067 281.132> 204 102<-29.3406 46.9971> 230 106<213.903 281.625>
LayerCount: 2
Fore
SplineSet
-4 -2 m 0xe8
 -4 26 21 50 49 50 c 0
 77 50 102 26 102 -2 c 0
 102 -12 98 -23 92 -32 c 1
 95 -35 110 -46 142 -46 c 0
 180 -46 204 -18 204 8 c 0xe8
 204 36 174 58 144 74 c 0
 81 110 44 165 44 216 c 0
 44 294 125 346 199 346 c 0
 265 346 336 308 336 256 c 0
 336 228 311 203 283 203 c 0
 255 203 230 228 230 256 c 0
 230 266 234 274 238 282 c 1
 236 284 221 293 199 293 c 0
 160 293 145 265 145 245 c 0xd4
 145 209 170 194 202 176 c 0
 259 144 306 92 306 36 c 0
 306 -48 214 -96 142 -96 c 0
 85 -96 -4 -59 -4 -2 c 0xe8
EndSplineSet
EndChar

StartChar: uniE4E5
Encoding: 58597 58597 904
Width: 418
VWidth: 1432
Flags: W
HStem: -68 88<216.1 260.567> 228 112<32.625 251>
VStem: 240 106<28.5962 113.458>
DStem2: -8 8 124 70 0.764769 0.644304<-60.7603 12.1628 140.896 339.822>
LayerCount: 2
Fore
SplineSet
-54 -36 m 0
 -54 -26 -41 -16 -8 8 c 0
 0 14 251 228 251 228 c 1
 76 228 l 2
 54 228 43 219 23 199 c 0
 17 193 11 192 5 192 c 0
 -1 192 -18 192 -18 204 c 1
 36 326 l 1
 36 326 44 340 50 340 c 2
 406 340 l 2
 416 340 418 336 418 328 c 0
 418 324 416 316 412 312 c 2
 124 70 l 1
 124 70 134 73 142 73 c 0
 169 73 191 62 209 48 c 1
 231 28 249 20 282 20 c 1
 258 24 240 46 240 72 c 0
 240 100 265 124 293 124 c 0
 321 124 346 100 346 72 c 0
 346 -2 258 -68 182 -68 c 0
 152 -68 132 -58 114 -48 c 0
 92 -34 66 -28 42 -28 c 0
 22 -28 3 -31 -7 -41 c 0
 -17 -51 -24 -56 -34 -56 c 0
 -44 -56 -54 -46 -54 -36 c 0
EndSplineSet
EndChar

StartChar: uniE4E6
Encoding: 58598 58598 905
Width: 422
VWidth: 1437
Flags: W
HStem: -93 57<272.5 362.188> 291 54<45.3722 144.5 239.462 318.5>
VStem: 208 106<-35.1415 75.6762> 280 106<177.803 290.795> 422 38<18.9904 87.8027>
LayerCount: 2
Fore
SplineSet
-50 178 m 0xd8
 -50 186 -46 202 -30 236 c 0
 -14 270 41 345 110 345 c 0
 179 345 200 282 200 282 c 1
 200 282 244 345 290 345 c 0
 347 345 386 300 386 246 c 0xd8
 386 224 352 126 352 126 c 1
 352 126 314 14 314 -14 c 0
 314 -26 318 -36 330 -36 c 0
 368 -36 410 17 422 51 c 0
 434 85 440 90 448 90 c 0
 456 90 460 86 460 78 c 0
 460 10 376 -93 295 -93 c 0
 250 -93 208 -54 208 2 c 0xe8
 208 30 246 141 246 141 c 1
 246 141 280 239 280 261 c 0
 280 275 270 291 256 291 c 0
 224 291 205 219 205 219 c 1
 118 -57 l 2
 117 -61 97 -64 70 -64 c 0
 43 -64 12 -62 12 -54 c 1
 12 -54 100 221 100 261 c 0
 100 275 90 291 76 291 c 0
 31 291 -6 230 -16 198 c 0
 -26 166 -30 166 -38 166 c 0
 -46 166 -50 170 -50 178 c 0xd8
EndSplineSet
EndChar

StartChar: uniE506
Encoding: 58630 58630 937
Width: 248
Flags: W
HStem: -9 37<-144.5 -55.0292> -1 21G<20 38> 210 31<-247.481 -136> 237 33<-29.8307 82.4975 141.767 217.342>
VStem: -175 76<28.2775 145.376> -10 71<-0.331635 31.6667> 213 70<179.797 229.765>
DStem2: -136 216 -52 224 0.301131 0.953583<-141.608 0 20.8256 43.1709 61.0795 144.906>
LayerCount: 2
Fore
SplineSet
-248 222 m 0xae
 -248 238 -224 241 -212 241 c 0xae
 -192 241 -127 243 -127 243 c 1
 -106 311 l 2
 -92 356 -19 367 -16 367 c 0
 -13 367 -10 365 -10 362 c 0
 -10 355 -44 251 -44 251 c 1
 -44 251 55 270 87 270 c 0
 111 270 111 240 111 240 c 1
 111 240 144 272 192 272 c 0
 236 272 283 247 283 212 c 0
 283 193 267 177 248 177 c 0
 229 177 213 193 213 212 c 0
 213 219 215 225 218 230 c 1
 217 231 207 237 192 237 c 0
 154 237 133 218 120 195 c 0
 107 172 61 4 61 4 c 2
 61 1 47 -1 29 -1 c 0x5e
 11 -1 -10 1 -10 6 c 1
 -1 39 l 1
 -1 39 -71 -9 -126 -9 c 0
 -163 -9 -175 18 -175 53 c 0
 -175 107 -136 216 -136 216 c 1
 -136 216 -179 210 -218 210 c 0
 -233 210 -248 210 -248 222 c 0xae
-99 54 m 0
 -99 39 -94 28 -83 28 c 0
 -32 28 12 83 12 83 c 1
 12 83 54 201 54 223 c 0
 54 229 47 233 39 233 c 0
 8 233 -52 224 -52 224 c 1
 -52 224 -99 91 -99 54 c 0
EndSplineSet
EndChar

StartChar: uniE507
Encoding: 58631 58631 938
Width: 310
Flags: W
HStem: -141 82<-250.409 -139.373> -141 75<135.118 250.056> 59 82<139.373 250.409> 66 75<-250.056 -135.118>
VStem: -310 31<-38.0056 46.7263> 279 31<-46.7263 38.0056>
LayerCount: 2
Fore
SplineSet
-310 0 m 0x9c
 -310 74 -254 141 -185 141 c 0x9c
 -97 141 -20 85 32 33 c 0
 84 -19 149 -66 218 -66 c 0
 262 -66 279 -33 279 0 c 0
 279 33 251 59 218 59 c 0
 206 59 194 55 180 48 c 0
 172 44 163 42 155 42 c 0
 131 42 111 63 111 87 c 0
 111 124 147 141 185 141 c 0
 255 141 310 74 310 0 c 0
 310 -74 254 -141 185 -141 c 0x6c
 97 -141 20 -85 -32 -33 c 0
 -84 19 -149 66 -218 66 c 0
 -262 66 -279 33 -279 0 c 0
 -279 -33 -251 -59 -218 -59 c 0
 -206 -59 -194 -55 -180 -48 c 0
 -172 -44 -163 -42 -155 -42 c 0
 -131 -42 -111 -63 -111 -87 c 0
 -111 -124 -147 -141 -185 -141 c 0
 -255 -141 -310 -74 -310 0 c 0x9c
EndSplineSet
EndChar

StartChar: uniE508
Encoding: 58632 58632 939
Width: 310
Flags: W
HStem: -141 82<139.373 250.409> -141 75<-250.056 -135.118> 59 82<-250.409 -139.373> 66 75<135.118 250.056>
VStem: -310 31<-46.7263 38.0056> 279 31<-38.0056 46.7263>
LayerCount: 2
Fore
SplineSet
-310 0 m 0x5c
 -310 74 -255 141 -185 141 c 0
 -147 141 -111 124 -111 87 c 0
 -111 63 -131 42 -155 42 c 0
 -163 42 -172 44 -180 48 c 0
 -194 55 -206 59 -218 59 c 0
 -251 59 -279 33 -279 0 c 0
 -279 -33 -262 -66 -218 -66 c 0x6c
 -149 -66 -84 -19 -32 33 c 0
 20 85 97 141 185 141 c 0
 254 141 310 74 310 0 c 0
 310 -74 255 -141 185 -141 c 0
 147 -141 111 -124 111 -87 c 0
 111 -63 131 -42 155 -42 c 0
 163 -42 172 -44 180 -48 c 0
 194 -55 206 -59 218 -59 c 0x9c
 251 -59 279 -33 279 0 c 0
 279 33 262 66 218 66 c 0
 149 66 84 19 32 -33 c 0
 -20 -85 -97 -141 -185 -141 c 0
 -254 -141 -310 -74 -310 0 c 0x5c
EndSplineSet
EndChar

StartChar: uniE509
Encoding: 58633 58633 940
Width: 310
Flags: W
HStem: -141 82<-250.409 -139.373> -141 75<134.336 250.056> 59 82<139.373 250.409> 66 75<-250.056 -134.336>
VStem: -310 31<-38.0056 46.7263> -15 30<-199.99 -75 75 199.99> 279 31<-46.7263 38.0056>
CounterMasks: 1 0e
LayerCount: 2
Fore
SplineSet
-310 0 m 0x9e
 -310 74 -254 141 -185 141 c 0x9e
 -121 141 -62 111 -15 75 c 1
 -15 186 l 1
 -15 186 -15 200 0 200 c 0
 15 200 15 186 15 186 c 1
 15 49 l 1
 21 44 27 38 32 33 c 0
 84 -19 149 -66 218 -66 c 0
 262 -66 279 -33 279 0 c 0
 279 33 251 59 218 59 c 0
 206 59 194 55 180 48 c 0
 172 44 163 42 155 42 c 0
 131 42 111 63 111 87 c 0
 111 124 147 141 185 141 c 0
 255 141 310 74 310 0 c 0
 310 -74 254 -141 185 -141 c 0x6e
 121 -141 62 -111 15 -75 c 1
 15 -186 l 1
 15 -186 15 -200 0 -200 c 0
 -15 -200 -15 -186 -15 -186 c 1
 -15 -49 l 1
 -21 -44 -27 -38 -32 -33 c 0
 -84 19 -149 66 -218 66 c 0
 -262 66 -279 33 -279 0 c 0
 -279 -33 -251 -59 -218 -59 c 0
 -206 -59 -194 -55 -180 -48 c 0
 -172 -44 -163 -42 -155 -42 c 0
 -131 -42 -111 -63 -111 -87 c 0
 -111 -124 -147 -141 -185 -141 c 0
 -255 -141 -310 -74 -310 0 c 0x9e
EndSplineSet
EndChar

StartChar: uniE50C
Encoding: 58636 58636 943
Width: 303
Flags: W
HStem: -128 256
DStem2: -296 -35 -271 -53 0.647231 0.762294<-15.7513 71.9865> 226 0 296 35 0.647231 0.762294<0 87.7378>
LayerCount: 2
Fore
SplineSet
-303 -50 m 0
 -303 -44 -301 -41 -296 -35 c 2
 -161 124 l 1
 -161 124 -158 128 -153 128 c 0
 -148 128 -145 124 -145 124 c 1
 -20 0 l 1
 85 124 l 1
 85 124 88 128 93 128 c 0
 98 128 101 124 101 124 c 1
 226 0 l 1
 271 53 l 2
 276 59 281 64 288 64 c 0
 295 64 303 59 303 50 c 0
 303 44 301 41 296 35 c 2
 161 -124 l 1
 161 -124 158 -128 153 -128 c 0
 148 -128 145 -124 145 -124 c 1
 20 0 l 1
 -85 -124 l 1
 -85 -124 -88 -128 -93 -128 c 0
 -98 -128 -101 -124 -101 -124 c 1
 -226 0 l 1
 -271 -53 l 2
 -276 -59 -281 -64 -288 -64 c 0
 -295 -64 -303 -59 -303 -50 c 0
EndSplineSet
EndChar

StartChar: uniE50D
Encoding: 58637 58637 944
Width: 303
Flags: W
VStem: -15 30<-199.99 -41 41 199.99>
DStem2: -296 -35 -271 -53 0.647231 0.762294<-15.7513 71.9865> 226 0 296 35 0.647231 0.762294<0 87.7378>
LayerCount: 2
Fore
SplineSet
-303 -50 m 0
 -303 -44 -301 -41 -296 -35 c 2
 -161 124 l 1
 -161 124 -158 128 -153 128 c 0
 -148 128 -145 124 -145 124 c 1
 -20 0 l 1
 -15 6 l 1
 -15 186 l 1
 -15 186 -15 200 0 200 c 0
 15 200 15 186 15 186 c 1
 15 41 l 1
 85 124 l 1
 85 124 88 128 93 128 c 0
 98 128 101 124 101 124 c 1
 226 0 l 1
 271 53 l 2
 276 59 281 64 288 64 c 0
 295 64 303 59 303 50 c 0
 303 44 301 41 296 35 c 2
 161 -124 l 1
 161 -124 158 -128 153 -128 c 0
 148 -128 145 -124 145 -124 c 1
 20 0 l 1
 15 -6 l 1
 15 -186 l 1
 15 -186 15 -200 0 -200 c 0
 -15 -200 -15 -186 -15 -186 c 1
 -15 -41 l 1
 -85 -124 l 1
 -85 -124 -88 -128 -93 -128 c 0
 -98 -128 -101 -124 -101 -124 c 1
 -226 0 l 1
 -271 -53 l 2
 -276 -59 -281 -64 -288 -64 c 0
 -295 -64 -303 -59 -303 -50 c 0
EndSplineSet
EndChar

StartChar: uniE50E
Encoding: 58638 58638 945
Width: 426
Flags: W
HStem: -128 256
DStem2: -419 -35 -394 -53 0.647231 0.762294<-15.7513 71.9865> 349 0 419 35 0.647231 0.762294<0 87.7378>
LayerCount: 2
Fore
SplineSet
-426 -50 m 0
 -426 -44 -424 -41 -419 -35 c 2
 -284 124 l 1
 -284 124 -281 128 -276 128 c 0
 -271 128 -268 124 -268 124 c 1
 -143 0 l 1
 -38 124 l 1
 -38 124 -35 128 -30 128 c 0
 -25 128 -22 124 -22 124 c 1
 103 0 l 1
 208 124 l 1
 208 124 211 128 216 128 c 0
 221 128 224 124 224 124 c 1
 349 0 l 1
 394 53 l 2
 399 59 404 64 411 64 c 0
 418 64 426 59 426 50 c 0
 426 44 424 41 419 35 c 2
 284 -124 l 1
 284 -124 281 -128 276 -128 c 0
 271 -128 268 -124 268 -124 c 1
 143 0 l 1
 38 -124 l 1
 38 -124 35 -128 30 -128 c 0
 25 -128 22 -124 22 -124 c 1
 -103 0 l 1
 -208 -124 l 1
 -208 -124 -211 -128 -216 -128 c 0
 -221 -128 -224 -124 -224 -124 c 1
 -349 0 l 1
 -394 -53 l 2
 -399 -59 -404 -64 -411 -64 c 0
 -418 -64 -426 -59 -426 -50 c 0
EndSplineSet
EndChar

StartChar: uniE550
Encoding: 58704 58704 996
Width: 303
Flags: W
HStem: 185 30<510.009 615.983>
DStem2: -296 -35 -271 -53 0.647231 0.762294<-15.7513 71.9865>
LayerCount: 2
Fore
SplineSet
-303 -50 m 0
 -303 -44 -301 -41 -296 -35 c 2
 -161 124 l 1
 -161 124 -158 128 -153 128 c 0
 -148 128 -145 124 -145 124 c 1
 -20 0 l 1
 85 124 l 1
 85 124 88 128 93 128 c 0
 98 128 101 124 101 124 c 1
 226 0 l 1
 226 0 392 215 592 215 c 1
 592 215 616 215 616 200 c 0
 616 185 592 185 592 185 c 1
 412 185 266 0 266 0 c 1
 161 -124 l 1
 161 -124 158 -128 153 -128 c 0
 148 -128 145 -124 145 -124 c 1
 20 0 l 1
 -85 -124 l 1
 -85 -124 -88 -128 -93 -128 c 0
 -98 -128 -101 -124 -101 -124 c 1
 -226 0 l 1
 -271 -53 l 2
 -276 -59 -281 -64 -288 -64 c 0
 -295 -64 -303 -59 -303 -50 c 0
EndSplineSet
EndChar

StartChar: uniE5A0
Encoding: 58784 58784 1063
Width: 168
Flags: W
HStem: 0 21G<-160.5 -145.5 145.5 160.5> 190 162<-138 138>
VStem: -168 30<0.0101471 190> 138 30<0.0101471 190>
LayerCount: 2
Fore
SplineSet
-168 14 m 1
 -168 341 l 2
 -168 347 -162 352 -156 352 c 2
 156 352 l 2
 162 352 168 347 168 341 c 2
 168 14 l 1
 168 14 168 0 153 0 c 0
 138 0 138 14 138 14 c 1
 138 190 l 1
 -138 190 l 1
 -138 14 l 1
 -138 14 -138 0 -153 0 c 0
 -168 0 -168 14 -168 14 c 1
EndSplineSet
EndChar

StartChar: uniE5A1
Encoding: 58785 58785 1064
Width: 126
Flags: W
HStem: 0 21G<-4 4>
VStem: -126 71<377.607 412>
DStem2: 24 135 -125 401 0.284422 -0.958699<-295.406 0> 24 135 9 10 0.282166 0.959365<0 291.554>
LayerCount: 2
Fore
SplineSet
-126 406 m 0
 -126 409 -124 412 -116 412 c 2
 -65 412 l 2
 -58 412 -55 401 -55 401 c 1
 24 135 l 1
 102 401 l 1
 102 401 105 412 112 412 c 2
 120 412 l 2
 124 412 126 411 126 409 c 0
 126 407 124 401 124 401 c 1
 9 10 l 1
 9 10 8 0 0 0 c 0
 -8 0 -9 10 -9 10 c 1
 -125 401 l 1
 -125 401 -126 404 -126 406 c 0
EndSplineSet
EndChar

StartChar: uniE5E0
Encoding: 58848 58848 1103
Width: 782
Flags: W
HStem: 0 53<445.822 526.97> 0 24<635.515 680.32> 76 36<207 240.356> 232 60<42.6544 105.614> 236 39<431.444 484.175> 286 57<287.492 357.04> 477 23<160.618 211 233.16 295.212>
VStem: 0 41<293.393 382.26> 113 23<309.02 351.988> 155 44<310.993 408.931> 222 45<171.19 263> 361 43<348.002 425.65> 368 52<129.578 211.603> 488 44<172.727 233.654> 553 53<67.6275 202.321> 714 68<56.2553 232.144>
DStem2: 342 70 333 26 0.774148 0.633005<-1.99652 23.4383 103.71 195.655>
LayerCount: 2
Fore
SplineSet
0 307 m 0x73ef
 0 415 113 500 231 500 c 0
 329 500 404 434 404 359 c 0
 404 312 371 286 336 286 c 0
 303 286 267 314 267 359 c 0
 267 367 270 372 277 372 c 0
 283 372 287 366 292 356 c 0
 297 346 307 343 319 343 c 0
 342 343 361 358 361 382 c 0x27f7
 361 437 302 477 239 477 c 1
 218 439 199 403 199 379 c 0
 199 356 211 338 233 316 c 0
 255 294 267 278 267 248 c 0
 267 200 236 150 207 111 c 1
 207 111 225 112 235 112 c 0
 273 112 313 99 342 70 c 1
 371 94 l 1
 371 94 368 112 368 130 c 0
 368 191 412 275 476 275 c 0
 510 275 532 248 532 218 c 0
 532 202 530 187 514 174 c 2
 431 106 l 1
 431 106 441 53 487 53 c 0xafef
 512 53 539 62 557 88 c 1
 554 99 553 110 553 122 c 0
 553 186 593 249 661 283 c 1
 613 344 542 386 459 406 c 1
 459 406 442 409 442 420 c 0
 442 428 446 432 455 432 c 0
 459 432 495 428 564 403 c 0
 633 378 782 284 782 139 c 0
 782 64 736 0 664 0 c 0x63ef
 621 0 587 22 568 58 c 1
 542 25 497 0 461 0 c 0xa3ef
 421 0 392 25 378 63 c 1
 378 63 355 44 333 26 c 0
 311 8 294 0 286 0 c 0
 279 0 278 0 269 21 c 0
 260 42 232 76 198 76 c 0
 190 76 179 74 179 74 c 1
 157 45 122 0 109 0 c 0
 102 0 97 5 97 12 c 0
 97 48 141 85 171 100 c 1
 207 146 222 177 222 201 c 0
 222 216 218 223 194 244 c 0
 170 265 155 293 155 329 c 0
 155 365 178 418 211 477 c 1
 126 477 41 405 41 331 c 0
 41 305 49 292 70 292 c 0
 91 292 113 311 113 338 c 0
 113 348 117 352 124 352 c 0
 131 352 136 348 136 333 c 0
 136 281 109 232 58 232 c 0
 19 232 0 266 0 307 c 0x73ef
420 160 m 0x2bef
 420 150 422 136 422 136 c 1
 472 177 l 2
 486 188 488 191 488 201 c 0
 488 218 476 236 456 236 c 0
 429 236 420 193 420 160 c 0x2bef
606 122 m 0
 606 79 629 24 659 24 c 0x63e7
 689 24 714 93 714 139 c 0
 714 185 702 222 679 257 c 1
 633 234 606 171 606 122 c 0
EndSplineSet
AlternateSubs2: "Podtablica 'salt' Alternatywy stylistyczne w tablicy 3" uniE5E0.salt01
EndChar

StartChar: uniE5E1
Encoding: 58849 58849 1104
Width: 404
Flags: W
HStem: 0 21G<105.5 115.5> 76 36<207 240.356> 232 60<42.6544 105.614> 286 57<287.492 357.04> 477 23<160.618 211 233.16 295.212>
VStem: 0 41<293.393 382.26> 113 23<309.02 351.988> 155 44<310.993 408.931> 222 45<171.19 263> 361 43<348.002 425.65>
DStem2: 342 70 333 26 0.770394 0.637568<-1.91857 58.4238>
LayerCount: 2
Fore
SplineSet
0 307 m 0xefc0
 0 415 113 500 231 500 c 0
 329 500 404 434 404 359 c 0
 404 312 371 286 336 286 c 0
 303 286 267 314 267 359 c 0
 267 367 270 372 277 372 c 0
 283 372 287 366 292 356 c 0
 297 346 307 343 319 343 c 0xdfc0
 342 343 361 358 361 382 c 0
 361 437 302 477 239 477 c 1
 218 439 199 403 199 379 c 0
 199 356 211 338 233 316 c 0
 255 294 267 278 267 248 c 0
 267 200 236 150 207 111 c 1
 207 111 225 112 235 112 c 0
 273 112 313 99 342 70 c 1
 371 94 l 1
 371 94 381 103 391 103 c 0
 398 103 401 99 401 93 c 0
 401 80 378 63 378 63 c 1
 378 63 355 44 333 26 c 0
 311 8 294 0 286 0 c 0
 279 0 278 0 269 21 c 0
 260 42 232 76 198 76 c 0
 190 76 179 74 179 74 c 1
 157 45 122 0 109 0 c 0
 102 0 97 5 97 12 c 0
 97 48 141 85 171 100 c 1
 207 146 222 177 222 201 c 0
 222 216 218 223 194 244 c 0
 170 265 155 293 155 329 c 0
 155 365 178 418 211 477 c 1
 126 477 41 405 41 331 c 0
 41 305 49 292 70 292 c 0
 91 292 113 311 113 338 c 0
 113 348 117 352 124 352 c 0
 131 352 136 348 136 333 c 0
 136 281 109 232 58 232 c 0
 19 232 0 266 0 307 c 0xefc0
EndSplineSet
EndChar

StartChar: uniE5E2
Encoding: 58850 58850 1105
Width: 430
Flags: W
HStem: 116 92<55.1759 133.125 296.875 374.824> 211 24<189 196.063 233.937 241> 237 92<6.61641 86.3081 343.692 423.384> 272 22<88.7969 136.348 293.652 341.203> 331 24<189 196.063 233.937 241> 358 92<55.1759 133.125 296.875 374.824>
VStem: 48 92<123.099 200.828 365.172 442.901> 145 22<257 263.554 302.446 309> 169 92<72.6164 152.308 413.692 493.384> 204 22<154.797 202.348 363.652 411.203> 263 22<257 263.554 302.446 309> 290 92<123.099 200.828 365.172 442.901>
LayerCount: 2
Fore
SplineSet
0 283 m 0xef70
 0 313 23 329 46 329 c 0xef70
 58 329 71 323 81 313 c 1
 91 301 103 294 112 294 c 0
 130 294 145 309 145 325 c 0
 145 349 128 358 101 358 c 0
 67 358 48 376 48 404 c 0
 48 430 69 450 95 450 c 0
 125 450 140 426 140 399 c 0
 140 372 149 355 173 355 c 0
 189 355 204 370 204 388 c 0xdf70
 204 397 197 409 185 419 c 1
 175 429 169 442 169 454 c 0
 169 477 185 500 215 500 c 0
 245 500 261 477 261 454 c 0xdfb0
 261 442 255 429 245 419 c 1
 233 409 226 397 226 388 c 0
 226 370 241 355 257 355 c 0
 281 355 290 372 290 399 c 0
 290 426 305 450 335 450 c 0
 361 450 382 430 382 404 c 0
 382 376 363 358 329 358 c 0
 302 358 285 349 285 325 c 0
 285 309 300 294 318 294 c 0xdf70
 327 294 339 301 349 313 c 1
 359 323 372 329 384 329 c 0
 407 329 430 313 430 283 c 0
 430 253 407 237 384 237 c 0xef70
 372 237 359 243 349 253 c 1
 339 265 327 272 318 272 c 0
 300 272 285 257 285 241 c 0
 285 217 302 208 329 208 c 0
 363 208 382 190 382 162 c 0
 382 136 361 116 335 116 c 0
 305 116 290 140 290 167 c 0
 290 194 281 211 257 211 c 0
 241 211 226 196 226 178 c 0xdf70
 226 169 233 157 245 147 c 1
 255 137 261 124 261 112 c 0
 261 89 245 66 215 66 c 0
 185 66 169 89 169 112 c 0xdfb0
 169 124 175 137 185 147 c 1
 197 157 204 169 204 178 c 0
 204 196 189 211 173 211 c 0
 149 211 140 194 140 167 c 0
 140 140 125 116 95 116 c 0
 69 116 48 136 48 162 c 0
 48 190 67 208 101 208 c 0
 128 208 145 217 145 241 c 0
 145 257 130 272 112 272 c 0xdf70
 103 272 91 265 81 253 c 1
 71 243 58 237 46 237 c 0
 23 237 0 253 0 283 c 0xef70
167 283 m 0
 167 257 189 235 215 235 c 0
 241 235 263 257 263 283 c 0
 263 309 241 331 215 331 c 0
 189 331 167 309 167 283 c 0
EndSplineSet
EndChar

StartChar: uniE810
Encoding: 59408 59408 1474
Width: 385
Flags: W
HStem: 0 20<-80.7703 80.7703> 250 20<-339 339> 500 20<-339 339> 750 20<-80.7703 80.7703>
VStem: -385 20<305.053 464.947> 365 20<305.053 464.947>
LayerCount: 2
Fore
SplineSet
-385 385 m 0
 -385 598 -213 770 0 770 c 0
 213 770 385 598 385 385 c 0
 385 172 213 0 0 0 c 0
 -213 0 -385 172 -385 385 c 0
-365 385 m 0
 -365 345 -358 306 -346 270 c 1
 346 270 l 1
 358 306 365 345 365 385 c 0
 365 425 358 464 346 500 c 1
 -346 500 l 1
 -358 464 -365 425 -365 385 c 0
-339 250 m 1
 -285 115 -154 20 0 20 c 0
 154 20 285 115 339 250 c 1
 -339 250 l 1
-339 520 m 1
 339 520 l 1
 285 655 154 750 0 750 c 0
 -154 750 -285 655 -339 520 c 1
EndSplineSet
EndChar

StartChar: uniE811
Encoding: 59409 59409 1475
Width: 510
Flags: W
HStem: 0 20<-93.0964 93.0964> 250 20<-415 415> 500 20<-490 490> 750 20<-415 415> 1000 20<-93.0964 93.0964>
VStem: -510 20<419.634 500 520 600.366> 490 20<419.634 500 520 600.366>
LayerCount: 2
Fore
SplineSet
-510 510 m 0
 -510 792 -282 1020 0 1020 c 0
 282 1020 510 792 510 510 c 0
 510 228 282 0 0 0 c 0
 -282 0 -510 228 -510 510 c 0
-490 500 m 1
 -488 417 -465 338 -427 270 c 1
 427 270 l 1
 465 338 488 417 490 500 c 1
 -490 500 l 1
-490 520 m 1
 490 520 l 1
 488 603 465 682 427 750 c 1
 -427 750 l 1
 -465 682 -488 603 -490 520 c 1
-415 250 m 1
 -328 112 -175 20 0 20 c 0
 175 20 328 112 415 250 c 1
 -415 250 l 1
-415 770 m 1
 415 770 l 1
 328 908 175 1000 0 1000 c 0
 -175 1000 -328 908 -415 770 c 1
EndSplineSet
EndChar

StartChar: uniE812
Encoding: 59410 59410 1476
Width: 260
Flags: W
HStem: 0 20<-64.5974 64.5974> 250 20<-240 240> 500 20<-64.5974 64.5974>
VStem: -260 20<194.886 250 270 325.114> 240 20<194.886 250 270 325.114>
CounterMasks: 1 e0
LayerCount: 2
Fore
SplineSet
-260 260 m 0
 -260 404 -144 520 0 520 c 0
 144 520 260 404 260 260 c 0
 260 116 144 0 0 0 c 0
 -144 0 -260 116 -260 260 c 0
-240 250 m 1
 -235 122 -129 20 0 20 c 0
 129 20 235 122 240 250 c 1
 -240 250 l 1
-240 270 m 1
 240 270 l 1
 235 398 129 500 0 500 c 0
 -129 500 -235 398 -240 270 c 1
EndSplineSet
EndChar

StartChar: uniE813
Encoding: 59411 59411 1477
Width: 260
Flags: W
HStem: 0 20<-240 240> 250 20<-240 240> 500 20<-240 240> 750 20<-240 240>
VStem: -260 20<20 250 270 500 520 750> 240 20<20 250 270 500 520 750>
LayerCount: 2
Fore
SplineSet
-260 0 m 1
 -260 770 l 1
 260 770 l 1
 260 0 l 1
 -260 0 l 1
-240 20 m 1
 240 20 l 1
 240 250 l 1
 -240 250 l 1
 -240 20 l 1
-240 270 m 1
 240 270 l 1
 240 500 l 1
 -240 500 l 1
 -240 270 l 1
-240 520 m 1
 240 520 l 1
 240 750 l 1
 -240 750 l 1
 -240 520 l 1
EndSplineSet
EndChar

StartChar: uniE814
Encoding: 59412 59412 1478
Width: 63
Flags: W
HStem: -63 126<-47.7067 47.7067>
VStem: -63 126<-47.7067 47.7067>
LayerCount: 2
Fore
SplineSet
-63 0 m 0
 -63 35 -35 63 0 63 c 0
 35 63 63 35 63 0 c 0
 63 -35 35 -63 0 -63 c 0
 -35 -63 -63 -35 -63 0 c 0
EndSplineSet
EndChar

StartChar: uniE046.salt01
Encoding: 62464 62464 1882
Width: 243
Flags: W
HStem: -348 57<79.2716 154.082> -130 92<-235.653 -158.347> 38 92<158.347 235.653> 291 57<-154.082 -79.2716>
VStem: -243 92<-122.653 -45.3474> -207 40<180.937 283.7> -65 91<213.249 275.855> -26 91<-275.855 -213.249> 151 92<45.3474 122.653> 167 40<-283.7 -180.937>
DStem2: -210 -310 -176 -330 0.516462 0.85631<-20.9754 325.676 422.15 768.802>
LayerCount: 2
Fore
SplineSet
-243 -84 m 0xf8
 -243 -59 -222 -38 -197 -38 c 0
 -172 -38 -151 -59 -151 -84 c 0
 -151 -109 -172 -130 -197 -130 c 0
 -222 -130 -243 -109 -243 -84 c 0xf8
-218 -330 m 0
 -218 -323 -214 -316 -210 -310 c 2
 -42 -31 l 1
 -122 15 -207 100 -207 205 c 0
 -207 280 -165 348 -86 348 c 0
 -39 348 26 312 26 252 c 0
 26 226 8 207 -19 207 c 0
 -41 207 -56 218 -65 245 c 0xf640
 -74 272 -99 291 -123 291 c 0
 -149 291 -167 272 -167 246 c 0
 -167 167 -76 93 7 50 c 1
 176 330 l 2
 184 343 189 348 198 348 c 0
 210 348 218 341 218 330 c 0
 218 323 214 316 210 310 c 2
 42 31 l 1
 122 -15 207 -100 207 -205 c 0
 207 -280 165 -348 86 -348 c 0
 39 -348 -26 -312 -26 -252 c 0
 -26 -226 -8 -207 19 -207 c 0
 41 -207 56 -218 65 -245 c 0
 74 -272 99 -291 123 -291 c 0
 149 -291 167 -272 167 -246 c 0xf540
 167 -167 76 -93 -7 -50 c 1
 -176 -330 l 2
 -184 -343 -189 -348 -198 -348 c 0
 -210 -348 -218 -341 -218 -330 c 0
151 84 m 0xf080
 151 109 172 130 197 130 c 0
 222 130 243 109 243 84 c 0
 243 59 222 38 197 38 c 0
 172 38 151 59 151 84 c 0xf080
EndSplineSet
EndChar

StartChar: uniE047.salt01
Encoding: 62465 62465 1883
Width: 232
Flags: W
HStem: -19 38<-231.986 -166 -89 -20 20 89 166 231.986>
VStem: -166 77<-114.875 -20 20 114.875> -20 40<-281.986 -213.027 -180 -19 19 180 213.027 281.986> 89 77<-114.875 -20 20 114.875>
CounterMasks: 1 70
LayerCount: 2
Fore
SplineSet
-232 0 m 0
 -232 20 -212 20 -212 20 c 1
 -166 20 l 1
 -166 128 -92 209 -20 216 c 1
 -20 262 l 1
 -20 262 -20 282 0 282 c 0
 20 282 20 262 20 262 c 1
 20 216 l 1
 92 209 166 128 166 20 c 1
 212 20 l 1
 212 20 232 20 232 0 c 0
 232 -20 212 -20 212 -20 c 1
 166 -20 l 1
 166 -128 92 -209 20 -216 c 1
 20 -262 l 1
 20 -262 20 -282 0 -282 c 0
 -20 -282 -20 -262 -20 -262 c 1
 -20 -216 l 1
 -92 -209 -166 -128 -166 -20 c 1
 -212 -20 l 1
 -212 -20 -232 -20 -232 0 c 0
-89 -19 m 1
 -85 -84 -60 -156 -20 -180 c 1
 -20 -19 l 1
 -89 -19 l 1
-89 19 m 1
 -20 19 l 1
 -20 180 l 1
 -60 156 -85 84 -89 19 c 1
20 -19 m 1
 20 -180 l 1
 60 -156 85 -84 89 -19 c 1
 20 -19 l 1
20 19 m 1
 89 19 l 1
 85 84 60 156 20 180 c 1
 20 19 l 1
EndSplineSet
EndChar

StartChar: uniE230.ss01
Encoding: 62497 62497 1915
Width: 185
Flags: W
HStem: 97 47<33.9534 105.302>
VStem: -15 30<-112 76.2842 108 459.99> 108 77<-15.9748 94.5009>
LayerCount: 2
Fore
SplineSet
-15 -153 m 2
 -15 446 l 1
 -15 446 -15 460 0 460 c 0
 15 460 15 446 15 446 c 1
 15 108 l 1
 46 133 67 144 102 144 c 0
 155 144 185 108 185 62 c 0
 185 -25 109 -88 32 -146 c 0
 20 -155 6 -165 0 -165 c 0
 -8 -165 -15 -160 -15 -153 c 2
15 58 m 1
 15 -112 l 1
 49 -82 108 -28 108 62 c 0
 108 83 97 97 71 97 c 0
 47 97 28 77 15 58 c 1
EndSplineSet
EndChar

StartChar: uniE231.ss01
Encoding: 62498 62498 1916
Width: 176
Flags: W
VStem: 0 30<-84 56 148 336.99> 146 30<-336.99 -148 -56 84>
LayerCount: 2
Fore
SplineSet
0 -169 m 1
 0 323 l 1
 0 323 0 337 15 337 c 0
 30 337 30 323 30 323 c 1
 30 148 l 1
 161 180 l 1
 173 180 176 169 176 169 c 1
 176 -323 l 1
 176 -323 176 -337 161 -337 c 0
 146 -337 146 -323 146 -323 c 1
 146 -148 l 1
 15 -180 l 1
 3 -180 0 -169 0 -169 c 1
30 56 m 1
 30 -84 l 1
 146 -56 l 1
 146 84 l 1
 30 56 l 1
EndSplineSet
EndChar

StartChar: uniE232.ss01
Encoding: 62499 62499 1917
Width: 236
Flags: W
VStem: 54 30<-375.99 -188 -88 64 164 351.99> 152 30<-351.99 -164 -64 88 188 375.99>
DStem2: 15 147 54 64 0.97116 0.238429<-20.5057 18.0857 71.0633 118.982 171.959 210.551> 15 -105 54 -188 0.97116 0.238429<-20.5057 18.0857 71.0633 118.982 171.959 210.551>
LayerCount: 2
Fore
SplineSet
0 64 m 1
 0 129 l 2
 0 142 15 147 15 147 c 1
 54 157 l 1
 54 338 l 1
 54 338 54 352 69 352 c 0
 84 352 84 338 84 338 c 1
 84 164 l 1
 152 181 l 1
 152 362 l 1
 152 362 152 376 167 376 c 0
 182 376 182 362 182 362 c 1
 182 188 l 1
 182 188 218 198 221 198 c 0
 227 198 233 197 236 188 c 1
 236 123 l 2
 236 110 221 105 221 105 c 1
 182 95 l 1
 182 -64 l 1
 182 -64 218 -54 221 -54 c 0
 227 -54 233 -55 236 -64 c 1
 236 -129 l 2
 236 -142 221 -147 221 -147 c 1
 182 -157 l 1
 182 -338 l 1
 182 -338 182 -352 167 -352 c 0
 152 -352 152 -338 152 -338 c 1
 152 -164 l 1
 84 -181 l 1
 84 -362 l 1
 84 -362 84 -376 69 -376 c 0
 54 -376 54 -362 54 -362 c 1
 54 -188 l 1
 54 -188 18 -198 15 -198 c 0
 9 -198 3 -197 0 -188 c 1
 0 -123 l 2
 0 -110 15 -105 15 -105 c 1
 54 -95 l 1
 54 64 l 1
 54 64 18 54 15 54 c 0
 9 54 3 55 0 64 c 1
84 71 m 1
 84 -88 l 1
 152 -71 l 1
 152 88 l 1
 84 71 l 1
EndSplineSet
EndChar

StartChar: uniE460.salt01
Encoding: 62500 62500 1918
Width: 222
Flags: W
HStem: 89 38<-219.993 -178.045>
VStem: 126 96<-48 48>
DStem2: -204 -89 -190 -125 0.964986 0.262303<-6.80149 341.79> 211 16 126 0 0.964986 -0.262303<-426.419 -77.8269>
LayerCount: 2
Fore
SplineSet
-220 108 m 0
 -220 118 -211 127 -201 127 c 0
 -195 127 -190 125 -190 125 c 1
 211 16 l 1
 211 16 222 13 222 0 c 0
 222 -13 211 -16 211 -16 c 1
 -190 -125 l 1
 -190 -125 -195 -127 -201 -127 c 0
 -211 -127 -220 -118 -220 -108 c 0
 -220 -99 -213 -91 -204 -89 c 2
 126 0 l 1
 -204 89 l 2
 -213 91 -220 99 -220 108 c 0
EndSplineSet
EndChar

StartChar: uniE5E0.salt01
Encoding: 62509 62509 1927
Width: 782
Flags: W
HStem: 0 53<445.822 526.97> 0 24<635.515 680.32> 76 36<207 240.356> 232 60<42.6544 105.614> 236 39<431.444 484.175> 286 57<287.492 357.04> 477 23<160.618 211 233.16 295.212>
VStem: 0 41<293.393 382.26> 113 23<309.02 351.988> 155 44<310.993 408.931> 222 45<171.19 263> 361 43<348.002 425.65> 368 52<129.578 211.603> 488 44<172.727 233.654> 553 53<67.6275 202.321> 714 68<56.2553 232.144>
DStem2: 342 70 333 26 0.774148 0.633005<-1.99652 23.4383 103.71 195.655>
LayerCount: 2
Fore
SplineSet
0 307 m 0x73ef
 0 415 113 500 231 500 c 0
 329 500 404 434 404 359 c 0
 404 312 371 286 336 286 c 0
 303 286 267 314 267 359 c 0
 267 367 270 372 277 372 c 0
 283 372 287 366 292 356 c 0
 297 346 307 343 319 343 c 0
 342 343 361 358 361 382 c 0x27f7
 361 437 302 477 239 477 c 1
 218 439 199 403 199 379 c 0
 199 356 211 338 233 316 c 0
 255 294 267 278 267 248 c 0
 267 200 236 150 207 111 c 1
 207 111 225 112 235 112 c 0
 273 112 313 99 342 70 c 1
 371 94 l 1
 371 94 368 112 368 130 c 0
 368 191 412 275 476 275 c 0
 510 275 532 248 532 218 c 0
 532 202 530 187 514 174 c 2
 431 106 l 1
 431 106 441 53 487 53 c 0xafef
 512 53 539 62 557 88 c 1
 554 99 553 110 553 122 c 0
 553 186 593 249 661 283 c 1
 613 344 542 386 459 406 c 1
 459 406 442 409 442 420 c 0
 442 428 446 432 455 432 c 0
 459 432 495 428 564 403 c 0
 633 378 782 284 782 139 c 0
 782 64 736 0 664 0 c 0x63ef
 621 0 587 22 568 58 c 1
 542 25 497 0 461 0 c 0xa3ef
 421 0 392 25 378 63 c 1
 378 63 355 44 333 26 c 0
 311 8 294 0 286 0 c 0
 279 0 278 0 269 21 c 0
 260 42 232 76 198 76 c 0
 190 76 179 74 179 74 c 1
 157 45 122 0 109 0 c 0
 102 0 97 5 97 12 c 0
 97 48 141 85 171 100 c 1
 207 146 222 177 222 201 c 0
 222 216 218 223 194 244 c 0
 170 265 155 293 155 329 c 0
 155 365 178 418 211 477 c 1
 126 477 41 405 41 331 c 0
 41 305 49 292 70 292 c 0
 91 292 113 311 113 338 c 0
 113 348 117 352 124 352 c 0
 131 352 136 348 136 333 c 0
 136 281 109 232 58 232 c 0
 19 232 0 266 0 307 c 0x73ef
420 160 m 0x2bef
 420 150 422 136 422 136 c 1
 472 177 l 2
 486 188 488 191 488 201 c 0
 488 218 476 236 456 236 c 0
 429 236 420 193 420 160 c 0x2bef
606 122 m 0
 606 79 629 24 659 24 c 0x63e7
 689 24 714 93 714 139 c 0
 714 185 702 222 679 257 c 1
 633 234 606 171 606 122 c 0
EndSplineSet
EndChar

StartChar: u1D10B
Encoding: 119051 119051 2108
Width: 243
Flags: W
HStem: -348 57<79.2716 154.082> -130 92<-235.653 -158.347> 38 92<158.347 235.653> 291 57<-154.082 -79.2716>
VStem: -243 92<-122.653 -45.3474> -207 40<180.937 283.7> -65 91<213.249 275.855> -26 91<-275.855 -213.249> 151 92<45.3474 122.653> 167 40<-283.7 -180.937>
DStem2: -210 -310 -176 -330 0.516462 0.85631<-20.9754 325.676 422.15 768.802>
LayerCount: 2
Fore
SplineSet
-243 -84 m 0xf8
 -243 -59 -222 -38 -197 -38 c 0
 -172 -38 -151 -59 -151 -84 c 0
 -151 -109 -172 -130 -197 -130 c 0
 -222 -130 -243 -109 -243 -84 c 0xf8
-218 -330 m 0
 -218 -323 -214 -316 -210 -310 c 2
 -42 -31 l 1
 -122 15 -207 100 -207 205 c 0
 -207 280 -165 348 -86 348 c 0
 -39 348 26 312 26 252 c 0
 26 226 8 207 -19 207 c 0
 -41 207 -56 218 -65 245 c 0xf640
 -74 272 -99 291 -123 291 c 0
 -149 291 -167 272 -167 246 c 0
 -167 167 -76 93 7 50 c 1
 176 330 l 2
 184 343 189 348 198 348 c 0
 210 348 218 341 218 330 c 0
 218 323 214 316 210 310 c 2
 42 31 l 1
 122 -15 207 -100 207 -205 c 0
 207 -280 165 -348 86 -348 c 0
 39 -348 -26 -312 -26 -252 c 0
 -26 -226 -8 -207 19 -207 c 0
 41 -207 56 -218 65 -245 c 0
 74 -272 99 -291 123 -291 c 0
 149 -291 167 -272 167 -246 c 0xf540
 167 -167 76 -93 -7 -50 c 1
 -176 -330 l 2
 -184 -343 -189 -348 -198 -348 c 0
 -210 -348 -218 -341 -218 -330 c 0
151 84 m 0xf080
 151 109 172 130 197 130 c 0
 222 130 243 109 243 84 c 0
 243 59 222 38 197 38 c 0
 172 38 151 59 151 84 c 0xf080
EndSplineSet
EndChar

StartChar: u1D10C
Encoding: 119052 119052 2109
Width: 232
Flags: W
HStem: -19 38<-231.986 -166 -89 -20 20 89 166 231.986>
VStem: -166 77<-114.875 -20 20 114.875> -20 40<-281.986 -213.027 -180 -19 19 180 213.027 281.986> 89 77<-114.875 -20 20 114.875>
CounterMasks: 1 70
LayerCount: 2
Fore
SplineSet
-232 0 m 0
 -232 20 -212 20 -212 20 c 1
 -166 20 l 1
 -166 128 -92 209 -20 216 c 1
 -20 262 l 1
 -20 262 -20 282 0 282 c 0
 20 282 20 262 20 262 c 1
 20 216 l 1
 92 209 166 128 166 20 c 1
 212 20 l 1
 212 20 232 20 232 0 c 0
 232 -20 212 -20 212 -20 c 1
 166 -20 l 1
 166 -128 92 -209 20 -216 c 1
 20 -262 l 1
 20 -262 20 -282 0 -282 c 0
 -20 -282 -20 -262 -20 -262 c 1
 -20 -216 l 1
 -92 -209 -166 -128 -166 -20 c 1
 -212 -20 l 1
 -212 -20 -232 -20 -232 0 c 0
-89 -19 m 1
 -85 -84 -60 -156 -20 -180 c 1
 -20 -19 l 1
 -89 -19 l 1
-89 19 m 1
 -20 19 l 1
 -20 180 l 1
 -60 156 -85 84 -89 19 c 1
20 -19 m 1
 20 -180 l 1
 60 -156 85 -84 89 -19 c 1
 20 -19 l 1
20 19 m 1
 89 19 l 1
 85 84 60 156 20 180 c 1
 20 19 l 1
EndSplineSet
EndChar

StartChar: u1D110
Encoding: 119056 119056 2113
Width: 325
Flags: W
HStem: 0 92<-38.6526 38.6526> 254 99<-116.712 116.712>
VStem: -325 30<0.00585175 90.5701> -46 92<7.34745 84.6526> 295 30<0.00585175 90.5701>
CounterMasks: 1 38
LayerCount: 2
Fore
SplineSet
-325 22 m 0
 -325 214 -177 353 0 353 c 0
 177 353 325 214 325 22 c 0
 325 8 322 0 310 0 c 0
 298 0 295 8 295 22 c 0
 295 149 164 254 0 254 c 0
 -164 254 -295 149 -295 22 c 0
 -295 8 -298 0 -310 0 c 0
 -322 0 -325 8 -325 22 c 0
-46 46 m 0
 -46 71 -25 92 0 92 c 0
 25 92 46 71 46 46 c 0
 46 21 25 0 0 0 c 0
 -25 0 -46 21 -46 46 c 0
EndSplineSet
EndChar

StartChar: u1D111
Encoding: 119057 119057 2114
Width: 325
Flags: W
HStem: -353 99<-116.712 116.712> -92 92<-38.6526 38.6526>
VStem: -325 30<-90.5701 -0.00585175> -46 92<-84.6526 -7.34745> 295 30<-90.5701 -0.00585175>
CounterMasks: 1 38
LayerCount: 2
Fore
SplineSet
-325 -22 m 0
 -325 -8 -322 0 -310 0 c 0
 -298 0 -295 -8 -295 -22 c 0
 -295 -149 -164 -254 0 -254 c 0
 164 -254 295 -149 295 -22 c 0
 295 -8 298 0 310 0 c 0
 322 0 325 -8 325 -22 c 0
 325 -214 177 -353 0 -353 c 0
 -177 -353 -325 -214 -325 -22 c 0
-46 -46 m 0
 -46 -21 -25 0 0 0 c 0
 25 0 46 -21 46 -46 c 0
 46 -71 25 -92 0 -92 c 0
 -25 -92 -46 -71 -46 -46 c 0
EndSplineSet
EndChar

StartChar: u1D11E
Encoding: 119070 119070 2127
Width: 626
Flags: W
HStem: -633 33<212.966 356.677> -246 26<274.278 416.919> 150 105<377 482.158> 936 144<342.917 419.5>
VStem: 0 94<-14.7755 153.148> 102 202<-543.799 -419.551> 178 70<-37.6105 84.0339> 217 45<633.264 828.402> 448 51<760.08 912.267> 455 33<-497.734 -303.812> 562 64<-84.306 68.6093>
DStem2: 289 563 260 536 0.207324 -0.978272<-160.049 0 159.458 318.396 424.234 776.866 810.032 989.835>
LayerCount: 2
Fore
SplineSet
0 102 m 0xfc60
 0 279 136 426 260 536 c 1
 260 536 217 714 217 782 c 0
 217 870 250 954 286 1002 c 0
 322 1050 352 1080 364 1080 c 0
 373 1080 386 1072 401 1054 c 0
 466 976 499 871 499 775 c 0xf9a0
 499 625 416 521 318 427 c 1
 355 253 l 1
 366 255 377 255 388 255 c 0
 526 255 626 141 626 15 c 0
 626 -90 558 -184 456 -225 c 1
 456 -225 488 -371 488 -416 c 0
 488 -537 406 -633 284 -633 c 0
 211 -633 102 -592 102 -482 c 0
 102 -426 147 -381 203 -381 c 0
 259 -381 304 -426 304 -482 c 0
 304 -535 264 -579 212 -583 c 1
 226 -595 261 -600 284 -600 c 0
 381 -600 455 -526 455 -416 c 0
 455 -367 424 -236 424 -236 c 1
 399 -243 372 -246 344 -246 c 0
 157 -246 0 -84 0 102 c 0xfc60
94 49 m 0
 94 -108 215 -220 344 -220 c 0
 370 -220 395 -217 418 -210 c 1
 344 141 l 1
 286 121 248 69 248 17 c 0
 248 -24 267 -70 305 -93 c 0
 310 -96 314 -101 314 -107 c 0
 314 -115 307 -122 299 -122 c 0
 296 -122 291 -120 291 -120 c 1
 225 -91 178 -33 178 53 c 0xfa20
 178 134 233 217 322 245 c 1
 289 400 l 1
 136 252 94 127 94 49 c 0
262 723 m 0xf9a0
 262 679 289 563 289 563 c 1
 369 641 448 753 448 859 c 0
 448 902 440 936 399 936 c 0
 318 936 262 813 262 723 c 0xf9a0
377 149 m 1
 450 -197 l 1
 513 -167 562 -92 562 -15 c 0
 562 75 500 150 397 150 c 0
 390 150 384 150 377 149 c 1
EndSplineSet
EndChar

StartChar: u1D121
Encoding: 119073 119073 2130
Width: 642
Flags: W
HStem: -500 23<363.959 483.52> -84 24<402.637 493.881> 60 24<402.637 493.881> 477 23<363.959 483.52>
VStem: 0 121<-500 500> 167 30<-499.859 -22 22 499.859> 280 120<-448.663 -357.745 357.745 448.663> 305 26<-236.996 -160.516 160.516 236.996> 536 106<-377.139 -181.29 181.29 377.139>
LayerCount: 2
Fore
SplineSet
0 -490 m 2xfc80
 0 490 l 2
 0 496 4 500 10 500 c 2
 111 500 l 2
 117 500 121 496 121 490 c 2
 121 -490 l 2
 121 -496 117 -500 111 -500 c 2
 10 -500 l 2
 4 -500 0 -496 0 -490 c 2xfc80
167 -490 m 2
 167 490 l 2
 167 496 171 500 177 500 c 2
 187 500 l 2
 193 500 197 496 197 490 c 2
 197 22 l 1
 251 65 305 138 305 220 c 0
 305 231 310 237 318 237 c 0
 326 237 331 231 331 220 c 0xfd80
 331 138 390 84 450 84 c 0
 533 84 536 168 536 282 c 0
 536 416 525 477 428 477 c 0
 404 477 375 471 355 462 c 1
 381 455 400 432 400 404 c 0
 400 371 373 344 340 344 c 0
 307 344 280 371 280 404 c 0
 280 464 361 500 428 500 c 0
 539 500 642 413 642 282 c 0
 642 160 558 60 450 60 c 0
 419 60 397 73 372 88 c 1
 319 0 l 1
 372 -88 l 1
 397 -73 419 -60 450 -60 c 0
 558 -60 642 -160 642 -282 c 0
 642 -413 539 -500 428 -500 c 0
 361 -500 280 -464 280 -404 c 0
 280 -371 307 -344 340 -344 c 0
 373 -344 400 -371 400 -404 c 0xfe80
 400 -432 381 -455 355 -462 c 1
 375 -471 404 -477 428 -477 c 0
 525 -477 536 -416 536 -282 c 0
 536 -168 533 -84 450 -84 c 0
 390 -84 331 -138 331 -220 c 0
 331 -231 326 -237 318 -237 c 0
 310 -237 305 -231 305 -220 c 0xfd80
 305 -138 251 -65 197 -22 c 1
 197 -490 l 2
 197 -496 193 -500 187 -500 c 2
 177 -500 l 2
 171 -500 167 -496 167 -490 c 2
EndSplineSet
EndChar

StartChar: u1D122
Encoding: 119074 119074 2131
Width: 661
Flags: W
HStem: -546 28<0.0549316 30.9399> -157 76<588.745 657.255> -47 202<74.5215 169.449> 81 76<588.745 657.255> 223 31<154.807 315.036>
VStem: 6 202<-8.44883 113.304> 419 129<-135.667 97.3278> 585 76<-153.255 -84.745 84.745 153.255>
LayerCount: 2
Fore
SplineSet
0 -531 m 0xef
 0 -525 3 -521 9 -518 c 0
 245 -417 419 -236 419 -2 c 0
 419 126 366 223 242 223 c 0
 175 223 112 200 73 149 c 1
 84 153 95 155 107 155 c 0
 163 155 208 110 208 54 c 0
 208 -2 163 -47 107 -47 c 0
 51 -47 6 -2 6 54 c 0
 6 164 109 254 242 254 c 0
 415 254 548 153 548 -2 c 0
 548 -299 274 -493 23 -545 c 1
 23 -545 18 -546 15 -546 c 0
 7 -546 0 -539 0 -531 c 0xef
585 -119 m 0
 585 -98 602 -81 623 -81 c 0
 644 -81 661 -98 661 -119 c 0
 661 -140 644 -157 623 -157 c 0
 602 -157 585 -140 585 -119 c 0
585 119 m 0
 585 140 602 157 623 157 c 0
 644 157 661 140 661 119 c 0
 661 98 644 81 623 81 c 0xdf
 602 81 585 98 585 119 c 0
EndSplineSet
EndChar

StartChar: u1D125
Encoding: 119077 119077 2134
Width: 340
Flags: W
VStem: 0 114<-250 250> 226 114<-250 250>
LayerCount: 2
Fore
SplineSet
0 240 m 2
 0 246 4 250 10 250 c 2
 104 250 l 2
 110 250 114 246 114 240 c 2
 114 -240 l 2
 114 -246 110 -250 104 -250 c 2
 10 -250 l 2
 4 -250 0 -246 0 -240 c 2
 0 240 l 2
226 240 m 2
 226 246 230 250 236 250 c 2
 330 250 l 2
 336 250 340 246 340 240 c 2
 340 -240 l 2
 340 -246 336 -250 330 -250 c 2
 236 -250 l 2
 230 -250 226 -246 226 -240 c 2
 226 240 l 2
EndSplineSet
EndChar

StartChar: u1D12A
Encoding: 119082 119082 2137
Width: 270
Flags: W
HStem: -135 90<0 89.4457 180.554 270> -22 44<113.485 156.515> 45 90<0 89.4457 180.554 270>
VStem: 0 90<-135 -45.5543 45.5543 135> 113 44<-21.5149 21.5149> 180 90<-135 -45.5543 45.5543 135>
CounterMasks: 1 fc
LayerCount: 2
Fore
SplineSet
0 -55 m 2
 0 -49 4 -45 10 -45 c 2
 68 -45 l 1
 68 -45 113 -25 113 0 c 0
 113 25 68 45 68 45 c 1
 10 45 l 2
 4 45 0 49 0 55 c 2
 0 125 l 2
 0 131 4 135 10 135 c 2
 80 135 l 2
 86 135 90 131 90 125 c 2
 90 67 l 1
 90 67 110 22 135 22 c 0
 160 22 180 67 180 67 c 1
 180 125 l 2
 180 131 184 135 190 135 c 2
 260 135 l 2
 266 135 270 131 270 125 c 2
 270 55 l 2
 270 49 266 45 260 45 c 2
 202 45 l 1
 202 45 157 25 157 0 c 0
 157 -25 202 -45 202 -45 c 1
 260 -45 l 2
 266 -45 270 -49 270 -55 c 2
 270 -125 l 2
 270 -131 266 -135 260 -135 c 2
 190 -135 l 2
 184 -135 180 -131 180 -125 c 2
 180 -67 l 1
 180 -67 160 -22 135 -22 c 0
 110 -22 90 -67 90 -67 c 1
 90 -125 l 2
 90 -131 86 -135 80 -135 c 2
 10 -135 l 2
 4 -135 0 -131 0 -125 c 2
 0 -55 l 2
EndSplineSet
EndChar

StartChar: u1D12B
Encoding: 119083 119083 2138
Width: 355
Flags: W
HStem: 97 47<33.9534 106.101 203.953 275.302>
VStem: -15 30<-112 76.2842 108 459.99> 108 77<-24.6953 82.4903> 155 30<-112 -30 128 459.99> 278 77<-15.9748 94.5009>
LayerCount: 2
Fore
SplineSet
-15 -153 m 2xd8
 -15 446 l 1
 -15 446 -15 460 0 460 c 0
 15 460 15 446 15 446 c 1
 15 108 l 1
 46 133 67 144 102 144 c 0
 124 144 141 138 155 128 c 1
 155 446 l 1
 155 446 155 460 170 460 c 0
 185 460 185 446 185 446 c 1
 185 108 l 1
 216 133 237 144 272 144 c 0
 325 144 355 108 355 62 c 0
 355 -25 279 -88 202 -146 c 0
 190 -155 176 -165 170 -165 c 0
 162 -165 155 -160 155 -153 c 2
 155 -30 l 1
 126 -74 79 -111 50 -133 c 0
 21 -155 6 -165 0 -165 c 0
 -8 -165 -15 -160 -15 -153 c 2xd8
15 58 m 1
 15 -112 l 1
 49 -82 108 -28 108 62 c 0xe8
 108 83 97 97 71 97 c 0
 47 97 28 77 15 58 c 1
185 58 m 1
 185 -112 l 1xd8
 219 -82 278 -28 278 62 c 0
 278 83 267 97 241 97 c 0
 217 97 198 77 185 58 c 1
EndSplineSet
EndChar

StartChar: u1D12C
Encoding: 119084 119084 2139
Width: 185
Flags: W
HStem: 97 47<33.9534 105.302>
VStem: -15 30<-112 76.2842 108 446> 108 77<-15.9748 94.5009>
LayerCount: 2
Fore
SplineSet
-79 444 m 0
 -79 450 -76 455 -76 455 c 1
 -58 486 -28 548 -20 583 c 0
 -12 618 -10 623 0 623 c 0
 10 623 12 618 20 583 c 0
 28 548 58 486 76 455 c 1
 76 455 79 450 79 444 c 0
 79 436 73 431 66 431 c 0
 58 431 48 435 40 439 c 0
 32 443 15 446 15 446 c 1
 15 108 l 1
 46 133 67 144 102 144 c 0
 155 144 185 108 185 62 c 0
 185 -25 109 -88 32 -146 c 0
 20 -155 6 -165 0 -165 c 0
 -8 -165 -15 -160 -15 -153 c 2
 -15 446 l 1
 -15 446 -32 443 -40 439 c 0
 -48 435 -58 431 -66 431 c 0
 -73 431 -79 436 -79 444 c 0
15 58 m 1
 15 -112 l 1
 49 -82 108 -28 108 62 c 0
 108 83 97 97 71 97 c 0
 47 97 28 77 15 58 c 1
EndSplineSet
EndChar

StartChar: u1D12D
Encoding: 119085 119085 2140
Width: 185
Flags: W
HStem: 97 47<33.9534 105.302>
VStem: -15 30<-195 -159 -112 76.2842 108 459.99> 108 77<-15.9748 94.5009>
LayerCount: 2
Fore
SplineSet
-79 -193 m 0
 -79 -185 -73 -180 -66 -180 c 0
 -58 -180 -48 -184 -40 -188 c 0
 -32 -192 -15 -195 -15 -195 c 1
 -15 446 l 1
 -15 446 -15 460 0 460 c 0
 15 460 15 446 15 446 c 1
 15 108 l 1
 46 133 67 144 102 144 c 0
 155 144 185 108 185 62 c 0
 185 -25 109 -88 32 -146 c 2
 15 -159 l 1
 15 -195 l 1
 15 -195 32 -192 40 -188 c 0
 48 -184 58 -180 66 -180 c 0
 73 -180 79 -185 79 -193 c 0
 79 -199 76 -204 76 -204 c 1
 58 -235 28 -297 20 -332 c 0
 12 -367 10 -372 0 -372 c 0
 -10 -372 -12 -367 -20 -332 c 0
 -28 -297 -58 -235 -76 -204 c 1
 -76 -204 -79 -199 -79 -193 c 0
15 58 m 1
 15 -112 l 1
 49 -82 108 -28 108 62 c 0
 108 83 97 97 71 97 c 0
 47 97 28 77 15 58 c 1
EndSplineSet
EndChar

StartChar: u1D12E
Encoding: 119086 119086 2141
Width: 240
Flags: W
VStem: 64 30<-84 56 148 323> 210 30<-336.99 -148 -56 84>
LayerCount: 2
Fore
SplineSet
0 321 m 0
 0 327 3 332 3 332 c 1
 21 363 51 425 59 460 c 0
 67 495 69 500 79 500 c 0
 89 500 91 495 99 460 c 0
 107 425 137 363 155 332 c 1
 155 332 158 327 158 321 c 0
 158 313 152 308 145 308 c 0
 137 308 127 312 119 316 c 0
 111 320 94 323 94 323 c 1
 94 148 l 1
 225 180 l 1
 237 180 240 169 240 169 c 1
 240 -323 l 1
 240 -323 240 -337 225 -337 c 0
 210 -337 210 -323 210 -323 c 1
 210 -148 l 1
 79 -180 l 1
 67 -180 64 -169 64 -169 c 1
 64 323 l 1
 64 323 47 320 39 316 c 0
 31 312 21 308 13 308 c 0
 6 308 0 313 0 321 c 0
94 56 m 1
 94 -84 l 1
 210 -56 l 1
 210 84 l 1
 94 56 l 1
EndSplineSet
EndChar

StartChar: u1D12F
Encoding: 119087 119087 2142
Width: 240
Flags: W
VStem: 0 30<-84 56 148 336.99> 146 30<-323 -148 -56 84>
LayerCount: 2
Fore
SplineSet
0 -169 m 1
 0 323 l 1
 0 323 0 337 15 337 c 0
 30 337 30 323 30 323 c 1
 30 148 l 1
 161 180 l 1
 173 180 176 169 176 169 c 1
 176 -323 l 1
 176 -323 193 -320 201 -316 c 0
 209 -312 219 -308 227 -308 c 0
 234 -308 240 -313 240 -321 c 0
 240 -327 237 -332 237 -332 c 1
 219 -363 189 -425 181 -460 c 0
 173 -495 171 -500 161 -500 c 0
 151 -500 149 -495 141 -460 c 0
 133 -425 103 -363 85 -332 c 1
 85 -332 82 -327 82 -321 c 0
 82 -313 88 -308 95 -308 c 0
 103 -308 113 -312 121 -316 c 0
 129 -320 146 -323 146 -323 c 1
 146 -148 l 1
 15 -180 l 1
 3 -180 0 -169 0 -169 c 1
30 56 m 1
 30 -84 l 1
 146 -56 l 1
 146 84 l 1
 30 56 l 1
EndSplineSet
EndChar

StartChar: u1D130
Encoding: 119088 119088 2143
Width: 246
Flags: W
VStem: 54 30<-375.99 -188 -88 64 164 351.99> 152 30<-351.99 -164 -64 88 188 415>
DStem2: 15 147 54 64 0.97116 0.238429<-20.5057 18.0857 71.0633 118.982 171.959 210.551> 15 -105 54 -188 0.97116 0.238429<-20.5057 18.0857 71.0633 118.982 171.959 210.551>
LayerCount: 2
Fore
SplineSet
0 64 m 1
 0 129 l 2
 0 142 15 147 15 147 c 1
 54 157 l 1
 54 338 l 1
 54 338 54 352 69 352 c 0
 84 352 84 338 84 338 c 1
 84 164 l 1
 152 181 l 1
 152 415 l 1
 152 415 135 412 127 408 c 0
 119 404 109 400 101 400 c 0
 94 400 88 405 88 413 c 0
 88 419 91 424 91 424 c 1
 109 455 139 517 147 552 c 0
 155 587 157 592 167 592 c 0
 177 592 179 587 187 552 c 0
 195 517 225 455 243 424 c 1
 243 424 246 419 246 413 c 0
 246 405 240 400 233 400 c 0
 225 400 215 404 207 408 c 0
 199 412 182 415 182 415 c 1
 182 188 l 1
 182 188 218 198 221 198 c 0
 227 198 233 197 236 188 c 1
 236 123 l 2
 236 110 221 105 221 105 c 1
 182 95 l 1
 182 -64 l 1
 182 -64 218 -54 221 -54 c 0
 227 -54 233 -55 236 -64 c 1
 236 -129 l 2
 236 -142 221 -147 221 -147 c 1
 182 -157 l 1
 182 -338 l 1
 182 -338 182 -352 167 -352 c 0
 152 -352 152 -338 152 -338 c 1
 152 -164 l 1
 84 -181 l 1
 84 -362 l 1
 84 -362 84 -376 69 -376 c 0
 54 -376 54 -362 54 -362 c 1
 54 -188 l 1
 54 -188 18 -198 15 -198 c 0
 9 -198 3 -197 0 -188 c 1
 0 -123 l 2
 0 -110 15 -105 15 -105 c 1
 54 -95 l 1
 54 64 l 1
 54 64 18 54 15 54 c 0
 9 54 3 55 0 64 c 1
84 71 m 1
 84 -88 l 1
 152 -71 l 1
 152 88 l 1
 84 71 l 1
EndSplineSet
EndChar

StartChar: u1D131
Encoding: 119089 119089 2144
Width: 236
Flags: W
VStem: 54 30<-415 -188 -88 64 164 351.99> 152 30<-351.99 -164 -64 88 188 375.99>
DStem2: 15 147 54 64 0.97116 0.238429<-20.5057 18.0857 71.0633 118.982 171.959 210.551> 15 -105 54 -188 0.97116 0.238429<-20.5057 18.0857 71.0633 118.982 171.959 210.551>
LayerCount: 2
Fore
SplineSet
-10 -413 m 0
 -10 -405 -4 -400 3 -400 c 0
 11 -400 21 -404 29 -408 c 0
 37 -412 54 -415 54 -415 c 1
 54 -188 l 1
 54 -188 18 -198 15 -198 c 0
 9 -198 3 -197 0 -188 c 1
 0 -123 l 2
 0 -110 15 -105 15 -105 c 1
 54 -95 l 1
 54 64 l 1
 54 64 18 54 15 54 c 0
 9 54 3 55 0 64 c 1
 0 129 l 2
 0 142 15 147 15 147 c 1
 54 157 l 1
 54 338 l 1
 54 338 54 352 69 352 c 0
 84 352 84 338 84 338 c 1
 84 164 l 1
 152 181 l 1
 152 362 l 1
 152 362 152 376 167 376 c 0
 182 376 182 362 182 362 c 1
 182 188 l 1
 182 188 218 198 221 198 c 0
 227 198 233 197 236 188 c 1
 236 123 l 2
 236 110 221 105 221 105 c 1
 182 95 l 1
 182 -64 l 1
 182 -64 218 -54 221 -54 c 0
 227 -54 233 -55 236 -64 c 1
 236 -129 l 2
 236 -142 221 -147 221 -147 c 1
 182 -157 l 1
 182 -338 l 1
 182 -338 182 -352 167 -352 c 0
 152 -352 152 -338 152 -338 c 1
 152 -164 l 1
 84 -181 l 1
 84 -415 l 1
 84 -415 101 -412 109 -408 c 0
 117 -404 127 -400 135 -400 c 0
 142 -400 148 -405 148 -413 c 0
 148 -419 145 -424 145 -424 c 1
 127 -455 97 -517 89 -552 c 0
 81 -587 79 -592 69 -592 c 0
 59 -592 57 -587 49 -552 c 0
 41 -517 11 -455 -7 -424 c 1
 -7 -424 -10 -419 -10 -413 c 0
84 71 m 1
 84 -88 l 1
 152 -71 l 1
 152 88 l 1
 84 71 l 1
EndSplineSet
EndChar

StartChar: u1D134
Encoding: 119092 119092 2147
Width: 426
Flags: W
HStem: -243 24<183.767 307.135> 219 24<178.374 310.778>
VStem: 0 112<-98.6494 98.6494> 275 142<72.875 172.246> 402 24<-127.09 -63.0015>
LayerCount: 2
Fore
SplineSet
0 0 m 0xe8
 0 124 97 243 244 243 c 0
 319 243 417 202 417 123 c 0
 417 84 385 52 346 52 c 0
 307 52 275 84 275 123 c 0xf0
 275 160 303 191 339 194 c 1
 322 204 292 219 244 219 c 0
 136 219 112 160 112 0 c 0
 112 -160 147 -219 244 -219 c 0
 352 -219 402 -136 402 -77 c 0
 402 -65 410 -63 414 -63 c 0
 418 -63 426 -65 426 -77 c 0
 426 -175 337 -243 244 -243 c 0
 97 -243 0 -124 0 0 c 0xe8
EndSplineSet
EndChar

StartChar: u1D135
Encoding: 119093 119093 2148
Width: 426
Flags: W
HStem: -243 24<184.392 214 244 306.633> 219 24<179.61 214 244 310.047>
VStem: 0 112<-97.9581 98.4656> 214 30<-411.99 -243 -217 217 243 411.99> 275 142<72.875 172.246> 402 24<-127.09 -63.0015>
LayerCount: 2
Fore
SplineSet
0 0 m 0xf4
 0 115 84 226 214 241 c 1
 214 398 l 1
 214 398 214 412 229 412 c 0
 244 412 244 398 244 398 c 1
 244 243 l 1
 319 243 417 202 417 123 c 0
 417 84 385 52 346 52 c 0
 307 52 275 84 275 123 c 0xf8
 275 160 303 191 339 194 c 1
 322 204 292 219 244 219 c 1
 244 -219 l 1
 352 -219 402 -136 402 -77 c 0
 402 -65 410 -63 414 -63 c 0
 418 -63 426 -65 426 -77 c 0
 426 -175 337 -243 244 -243 c 1
 244 -398 l 1
 244 -398 244 -412 229 -412 c 0
 214 -412 214 -398 214 -398 c 1
 214 -241 l 1
 84 -226 0 -115 0 0 c 0xf4
112 0 m 0
 112 -142 140 -205 214 -217 c 1
 214 217 l 1
 131 206 112 144 112 0 c 0
EndSplineSet
EndChar

StartChar: u1D13B
Encoding: 119099 119099 2154
Width: 330
Flags: W
HStem: -125 125<0 330>
VStem: 0 330<-125 0>
LayerCount: 2
Fore
SplineSet
0 -10 m 2
 0 -4 4 0 10 0 c 2
 320 0 l 2
 326 0 330 -4 330 -10 c 2
 330 -115 l 2
 330 -121 326 -125 320 -125 c 2
 10 -125 l 2
 4 -125 0 -121 0 -115 c 2
 0 -10 l 2
EndSplineSet
EndChar

StartChar: u1D13C
Encoding: 119100 119100 2155
Width: 330
Flags: W
HStem: -125 125<0 330>
VStem: 0 330<-125 0>
LayerCount: 2
Fore
SplineSet
0 -10 m 2
 0 -4 4 0 10 0 c 2
 320 0 l 2
 326 0 330 -4 330 -10 c 2
 330 -115 l 2
 330 -121 326 -125 320 -125 c 2
 10 -125 l 2
 4 -125 0 -121 0 -115 c 2
 0 -10 l 2
EndSplineSet
EndChar

StartChar: u1D13D
Encoding: 119101 119101 2156
Width: 269
Flags: W
HStem: -375 37<124.964 157.949>
VStem: 1 113<-280.5 -184.5> 93 142<126.182 238>
LayerCount: 2
Fore
SplineSet
1 -211 m 0xc0
 1 -158 40 -115 83 -115 c 0
 88 -115 94 -118 99 -118 c 1
 103 -119 109 -121 115 -121 c 0
 120 -121 124 -120 126 -116 c 0
 127 -115 127 -113 127 -112 c 0
 127 -107 123 -102 121 -98 c 0
 108 -77 94 -58 78 -38 c 2
 29 22 l 1
 29 22 19 32 19 46 c 0
 19 54 23 65 33 75 c 0
 78 122 93 165 93 202 c 0
 93 274 36 325 32 336 c 0
 29 342 28 347 28 352 c 0
 28 366 38 373 48 373 c 0
 54 373 61 370 66 365 c 0
 83 348 231 172 231 172 c 1
 231 172 235 163 235 153 c 0xa0
 235 148 234 143 231 138 c 0
 205 97 169 49 165 -9 c 0
 165 -13 164 -18 164 -22 c 0
 164 -78 195 -115 233 -161 c 0
 244 -173 270 -206 270 -218 c 0
 270 -221 268 -222 265 -222 c 0
 263 -222 261 -222 258 -221 c 0
 257 -221 256 -220 255 -220 c 0
 239 -214 206 -203 177 -203 c 0
 171 -203 166 -203 161 -204 c 0
 129 -210 114 -245 114 -276 c 0
 114 -285 115 -294 118 -302 c 1
 120 -311 131 -338 144 -338 c 1
 152 -345 160 -353 160 -362 c 0
 160 -364 159 -366 158 -369 c 0
 157 -373 150 -375 143 -375 c 0
 135 -375 125 -372 117 -366 c 0
 44 -310 1 -261 1 -211 c 0xc0
EndSplineSet
EndChar

StartChar: u1D13E
Encoding: 119102 119102 2157
Width: 256
Flags: W
HStem: 39 161<33.4961 128.002>
VStem: 0 152<74.6934 176.446> 118 30<-223.961 -189.252> 226 30<132.984 170.961>
DStem2: 201 75 255 150 0.282739 0.959197<-306.214 0>
LayerCount: 2
Fore
SplineSet
0 124 m 0xd0
 0 166 34 200 76 200 c 0
 118 200 152 166 152 124 c 0xd0
 152 105 145 87 133 74 c 1
 176 86 208 116 226 160 c 0
 229 168 235 171 242 171 c 0
 249 171 256 165 256 156 c 1
 256 156 256 153 255 150 c 2
 148 -213 l 2
 145 -221 139 -224 132 -224 c 0
 125 -224 118 -218 118 -209 c 1xb0
 118 -209 118 -206 119 -203 c 2
 201 75 l 1
 170 55 139 39 104 39 c 0
 48 39 0 73 0 124 c 0xd0
EndSplineSet
EndChar

StartChar: u1D13F
Encoding: 119103 119103 2158
Width: 328
Flags: W
HStem: -205 161<33.4961 128.002> 39 161<105.496 200.002>
VStem: 0 152<-169.307 -67.5543> 72 152<74.6934 176.446> 298 30<140.516 170.961>
DStem2: 201 -169 148 -457 0.282851 0.959164<-306.212 0 34.1504 254.401>
LayerCount: 2
Fore
SplineSet
0 -120 m 0xe8
 0 -78 34 -44 76 -44 c 0
 118 -44 152 -78 152 -120 c 0xe8
 152 -139 145 -157 133 -170 c 1
 176 -158 208 -128 226 -84 c 1
 273 75 l 1
 242 55 211 39 176 39 c 0
 120 39 72 73 72 124 c 0
 72 166 106 200 148 200 c 0
 190 200 224 166 224 124 c 0xd8
 224 105 217 87 205 74 c 1
 248 86 280 116 298 160 c 0
 301 168 307 171 314 171 c 0
 321 171 328 165 328 156 c 1
 328 156 328 153 327 150 c 2
 148 -457 l 2
 145 -465 139 -468 132 -468 c 0
 125 -468 118 -462 118 -453 c 1
 118 -453 118 -450 119 -447 c 2
 201 -169 l 1
 170 -189 139 -205 104 -205 c 0
 48 -205 0 -171 0 -120 c 0xe8
EndSplineSet
EndChar

StartChar: u1D140
Encoding: 119104 119104 2159
Width: 400
Flags: W
HStem: -205 161<33.4961 128.002> 39 161<105.496 200.002> 283 161<177.496 272.002>
VStem: 0 152<-169.307 -67.5543> 72 152<74.6934 176.446> 144 152<318.693 420.446> 370 30<380.703 414.961>
DStem2: 201 -169 148 -457 0.282898 0.95915<-306.211 0 34.1496 254.401 288.551 508.802>
CounterMasks: 1 e0
LayerCount: 2
Fore
SplineSet
0 -120 m 0xf2
 0 -78 34 -44 76 -44 c 0
 118 -44 152 -78 152 -120 c 0xf2
 152 -139 145 -157 133 -170 c 1
 176 -158 208 -128 226 -84 c 1
 273 75 l 1
 242 55 211 39 176 39 c 0
 120 39 72 73 72 124 c 0
 72 166 106 200 148 200 c 0
 190 200 224 166 224 124 c 0xea
 224 105 217 87 205 74 c 1
 248 86 280 116 298 160 c 1
 345 319 l 1
 314 299 283 283 248 283 c 0
 192 283 144 317 144 368 c 0
 144 410 178 444 220 444 c 0
 262 444 296 410 296 368 c 0xe6
 296 349 289 331 277 318 c 1
 320 330 352 360 370 404 c 0
 373 412 379 415 386 415 c 0
 393 415 400 409 400 400 c 1
 400 400 400 397 399 394 c 2
 148 -457 l 2
 145 -465 139 -468 132 -468 c 0
 125 -468 118 -462 118 -453 c 1
 118 -453 118 -450 119 -447 c 2
 201 -169 l 1
 170 -189 139 -205 104 -205 c 0
 48 -205 0 -171 0 -120 c 0xf2
EndSplineSet
EndChar

StartChar: u1D141
Encoding: 119105 119105 2160
Width: 472
Flags: W
HStem: -449 161<33.4961 128.002> -205 161<105.496 200.002> 39 161<177.496 272.002> 283 161<249.496 344.002>
VStem: 0 152<-413.307 -311.554> 72 152<-169.307 -67.5543> 144 152<74.6934 176.446> 216 152<318.693 420.446> 442 30<376.891 414.961>
DStem2: 201 -413 148 -701 0.282925 0.959142<-306.211 0 34.1492 254.401 288.55 508.803 542.952 763.204>
LayerCount: 2
Fore
SplineSet
0 -364 m 0xf980
 0 -322 34 -288 76 -288 c 0
 118 -288 152 -322 152 -364 c 0xf980
 152 -383 145 -401 133 -414 c 1
 176 -402 208 -372 226 -328 c 1
 273 -169 l 1
 242 -189 211 -205 176 -205 c 0
 120 -205 72 -171 72 -120 c 0
 72 -78 106 -44 148 -44 c 0
 190 -44 224 -78 224 -120 c 0xf480
 224 -139 217 -157 205 -170 c 1
 248 -158 280 -128 298 -84 c 1
 345 75 l 1
 314 55 283 39 248 39 c 0
 192 39 144 73 144 124 c 0
 144 166 178 200 220 200 c 0
 262 200 296 166 296 124 c 0xf280
 296 105 289 87 277 74 c 1
 320 86 352 116 370 160 c 1
 417 319 l 1
 386 299 355 283 320 283 c 0
 264 283 216 317 216 368 c 0
 216 410 250 444 292 444 c 0
 334 444 368 410 368 368 c 0
 368 349 361 331 349 318 c 1
 392 330 424 360 442 404 c 0
 445 412 451 415 458 415 c 0
 465 415 472 409 472 400 c 1
 472 400 472 397 471 394 c 2
 148 -701 l 2
 145 -709 139 -712 132 -712 c 0
 125 -712 118 -706 118 -697 c 1
 118 -697 118 -694 119 -691 c 2
 201 -413 l 1
 170 -433 139 -449 104 -449 c 0
 48 -449 0 -415 0 -364 c 0xf980
EndSplineSet
EndChar

StartChar: u1D142
Encoding: 119106 119106 2161
Width: 544
Flags: W
HStem: -449 161<33.4961 128.002> -205 161<105.496 200.002> 39 161<177.496 272.002> 283 161<249.496 344.002> 527 161<321.496 416.002>
VStem: 0 152<-413.307 -311.554> 72 152<-169.307 -67.5543> 144 152<74.6934 176.446> 216 152<318.693 420.446> 288 152<562.693 664.446> 514 30<638.001 658.961>
DStem2: 119 -691 148 -701 0.282942 0.959137<-16.3689 289.841 323.99 544.243 578.391 798.644 832.793 1053.05 1087.19 1307.45>
LayerCount: 2
Fore
SplineSet
0 -364 m 0xfc60
 0 -322 34 -288 76 -288 c 0
 118 -288 152 -322 152 -364 c 0xfc60
 152 -383 145 -401 133 -414 c 1
 176 -402 208 -372 226 -328 c 1
 273 -169 l 1
 242 -189 211 -205 176 -205 c 0
 120 -205 72 -171 72 -120 c 0
 72 -78 106 -44 148 -44 c 0
 190 -44 224 -78 224 -120 c 0xfa20
 224 -139 217 -157 205 -170 c 1
 248 -158 280 -128 298 -84 c 1
 345 75 l 1
 314 55 283 39 248 39 c 0
 192 39 144 73 144 124 c 0
 144 166 178 200 220 200 c 0
 262 200 296 166 296 124 c 0xf920
 296 105 289 87 277 74 c 1
 320 86 352 116 370 160 c 1
 417 319 l 1
 386 299 355 283 320 283 c 0
 264 283 216 317 216 368 c 0
 216 410 250 444 292 444 c 0
 334 444 368 410 368 368 c 0xf8a0
 368 349 361 331 349 318 c 1
 392 330 424 360 442 404 c 1
 489 563 l 1
 458 543 427 527 392 527 c 0
 336 527 288 561 288 612 c 0
 288 654 322 688 364 688 c 0
 406 688 440 654 440 612 c 0
 440 593 433 575 421 562 c 1
 464 574 496 604 514 648 c 0
 517 656 523 659 530 659 c 0
 537 659 544 653 544 644 c 1
 544 644 544 641 543 638 c 2
 148 -701 l 2
 145 -709 139 -712 132 -712 c 0
 125 -712 118 -706 118 -697 c 1
 118 -697 118 -694 119 -691 c 2
 201 -413 l 1
 170 -433 139 -449 104 -449 c 0
 48 -449 0 -415 0 -364 c 0xfc60
EndSplineSet
EndChar

StartChar: u1D143
Encoding: 119107 119107 2162
Width: 300
Flags: W
HStem: -29 58<121 179>
VStem: 118 64<-32 32>
DStem2: 37 132 9 99 0.739808 -0.672818<-14.9591 148.736 196.084 359.78> 118 0 37 -132 0.739808 0.672818<-163.696 0 47.3477 211.043>
LayerCount: 2
Fore
SplineSet
0 -116 m 0
 0 -110 4 -103 9 -99 c 2
 118 0 l 1
 9 99 l 2
 4 103 0 110 0 116 c 0
 0 128 10 138 22 138 c 0
 27 138 33 136 37 132 c 2
 150 29 l 1
 263 132 l 2
 267 136 273 138 278 138 c 0
 290 138 300 128 300 116 c 0
 300 110 296 103 291 99 c 2
 182 0 l 1
 291 -99 l 2
 296 -103 300 -110 300 -116 c 0
 300 -128 290 -138 278 -138 c 0
 273 -138 267 -136 263 -132 c 2
 150 -29 l 1
 37 -132 l 2
 33 -136 27 -138 22 -138 c 0
 10 -138 0 -128 0 -116 c 0
EndSplineSet
EndChar

StartChar: u1D145
Encoding: 119109 119109 2164
Width: 360
Flags: W
HStem: -180 46<109.617 250.383> -33 66<147 213> 134 46<109.617 250.383>
VStem: 0 46<-70.5387 70.5387> 147 66<-33 33> 314 46<-70.5387 70.5387>
DStem2: 104 108 71 75 0.710939 -0.703253<0 106.522 153.444 259.966> 71 -75 104 -108 0.710939 0.703253<0.253631 106.775 153.697 260.219>
CounterMasks: 1 fc
LayerCount: 2
Fore
SplineSet
0 0 m 0
 0 99 81 180 180 180 c 0
 279 180 360 99 360 0 c 0
 360 -99 279 -180 180 -180 c 0
 81 -180 0 -99 0 0 c 0
46 0 m 0
 46 -48 71 -75 71 -75 c 1
 147 0 l 1
 71 75 l 1
 71 75 46 48 46 0 c 0
104 108 m 1
 180 33 l 1
 256 108 l 1
 256 108 228 134 180 134 c 0
 132 134 104 108 104 108 c 1
104 -108 m 1
 104 -108 132 -134 180 -134 c 0
 228 -134 256 -108 256 -108 c 1
 180 -33 l 1
 104 -108 l 1
213 0 m 1
 289 -75 l 1
 289 -75 314 -48 314 0 c 0
 314 48 289 75 289 75 c 1
 213 0 l 1
EndSplineSet
EndChar

StartChar: u1D157
Encoding: 119127 119127 2182
Width: 316
Flags: W
HStem: -135 37<44.733 167> 98 37<149 271.267>
VStem: 0 35<-91.5485 9> 281 35<-9 91.5485>
LayerCount: 2
Fore
SplineSet
0 -37 m 0
 0 55 97 135 201 135 c 0
 268 135 316 95 316 37 c 0
 316 -55 219 -135 115 -135 c 0
 48 -135 0 -95 0 -37 c 0
35 -80 m 0
 35 -91 43 -98 57 -98 c 0
 119 -98 281 31 281 80 c 0
 281 91 273 98 259 98 c 0
 197 98 35 -31 35 -80 c 0
EndSplineSet
EndChar

StartChar: u1D158
Encoding: 119128 119128 2183
Width: 316
Flags: W
HStem: -135 270<108.775 207.225>
VStem: 0 316<-36.2645 36.2645>
LayerCount: 2
Fore
SplineSet
0 -37 m 0
 0 55 97 135 201 135 c 0
 268 135 316 95 316 37 c 0
 316 -55 219 -135 115 -135 c 0
 48 -135 0 -95 0 -37 c 0
EndSplineSet
EndChar

StartChar: u1D15C
Encoding: 119132 119132 2187
Width: 664
Flags: W
HStem: -135 17<325.566 388.006> 118 17<275.994 338.434>
VStem: 0 40<-176.986 176.986> 68 40<-176.986 -22 22 176.986> 556 40<-176.986 -22 22 176.986> 624 40<-176.986 176.986>
LayerCount: 2
Fore
SplineSet
0 -157 m 1
 0 157 l 1
 0 157 0 177 20 177 c 0
 40 177 40 157 40 157 c 1
 40 -157 l 1
 40 -157 40 -177 20 -177 c 0
 0 -177 0 -157 0 -157 c 1
68 157 m 1
 68 157 68 177 88 177 c 0
 108 177 108 157 108 157 c 1
 108 22 l 1
 126 88 222 135 332 135 c 0
 442 135 538 88 556 22 c 1
 556 157 l 1
 556 157 556 177 576 177 c 0
 596 177 596 157 596 157 c 1
 596 -157 l 1
 596 -157 596 -177 576 -177 c 0
 556 -177 556 -157 556 -157 c 1
 556 -22 l 1
 538 -88 442 -135 332 -135 c 0
 222 -135 126 -88 108 -22 c 1
 108 -157 l 1
 108 -157 108 -177 88 -177 c 0
 68 -177 68 -157 68 -157 c 1
 68 157 l 1
230 30 m 0
 230 -43 299 -118 358 -118 c 0
 399 -118 434 -79 434 -30 c 0
 434 43 365 118 306 118 c 0
 265 118 230 79 230 30 c 0
624 -157 m 1
 624 157 l 1
 624 157 624 177 644 177 c 0
 664 177 664 157 664 157 c 1
 664 -157 l 1
 664 -157 664 -177 644 -177 c 0
 624 -177 624 -157 624 -157 c 1
EndSplineSet
EndChar

StartChar: u1D15D
Encoding: 119133 119133 2188
Width: 454
Flags: W
HStem: -135 17<219.741 283.099> 118 17<169.967 233.259>
VStem: 0 125<-43.1659 56.0319> 329 125<-56.0319 43.1659>
LayerCount: 2
Fore
SplineSet
0 0 m 0
 0 75 102 135 226 135 c 0
 350 135 454 75 454 0 c 0
 454 -75 350 -135 226 -135 c 0
 102 -135 0 -75 0 0 c 0
125 30 m 0
 125 -43 194 -118 253 -118 c 0
 294 -118 329 -79 329 -30 c 0
 329 43 260 118 201 118 c 0
 160 118 125 79 125 30 c 0
EndSplineSet
EndChar

StartChar: u1D16D
Encoding: 119149 119149 2204
Width: 98
Flags: W
HStem: -49 98<8.38477 89.6152>
VStem: 0 98<-40.6152 40.6152>
LayerCount: 2
Fore
SplineSet
0 0 m 0
 0 27 22 49 49 49 c 0
 76 49 98 27 98 0 c 0
 98 -27 76 -49 49 -49 c 0
 22 -49 0 -27 0 0 c 0
EndSplineSet
EndChar

StartChar: u1D16E
Encoding: 119150 119150 2205
Width: 254
Flags: W
HStem: -20 20G<0 12>
VStem: 215 39<-589.708 -386.742>
LayerCount: 2
Fore
SplineSet
0 0 m 1
 24 -66 58 -116 119 -191 c 0
 180 -266 254 -357 254 -473 c 0
 254 -561 221 -657 153 -737 c 0
 142 -750 135 -756 129 -756 c 0
 123 -756 117 -751 117 -744 c 0
 117 -737 121 -731 139 -707 c 0
 157 -683 215 -595 215 -497 c 0
 215 -338 124 -267 0 -224 c 1
 0 0 l 1
EndSplineSet
EndChar

StartChar: u1D16F
Encoding: 119151 119151 2206
Width: 254
Flags: W
HStem: -20 20G<0 12>
VStem: 215 39<-713.708 -521.541 -457.378 -318.556>
LayerCount: 2
Fore
SplineSet
0 0 m 1
 24 -66 123 -161 171 -206 c 0
 219 -251 254 -315 254 -393 c 0
 254 -430 249 -467 237 -505 c 1
 248 -533 254 -564 254 -597 c 0
 254 -685 221 -781 153 -861 c 0
 142 -874 135 -880 129 -880 c 0
 123 -880 117 -875 117 -868 c 0
 117 -861 121 -855 139 -831 c 0
 157 -807 215 -719 215 -621 c 0
 215 -481 126 -406 0 -406 c 1
 0 -204 l 1
 24 -270 123 -365 155 -394 c 0
 187 -423 200 -440 212 -458 c 1
 214 -445 215 -431 215 -417 c 0
 215 -277 126 -202 0 -202 c 1
 0 0 l 1
EndSplineSet
EndChar

StartChar: u1D170
Encoding: 119152 119152 2207
Width: 254
Flags: W
HStem: -20 20G<0 12>
VStem: 215 39<-917.708 -725.541 -661.378 -521.541 -457.378 -318.556>
LayerCount: 2
Fore
SplineSet
0 0 m 1
 24 -66 123 -161 171 -206 c 0
 219 -251 254 -315 254 -393 c 0
 254 -430 249 -467 237 -505 c 1
 248 -533 254 -564 254 -597 c 0
 254 -634 249 -671 237 -709 c 1
 248 -737 254 -768 254 -801 c 0
 254 -889 221 -985 153 -1065 c 0
 142 -1078 135 -1084 129 -1084 c 0
 123 -1084 117 -1079 117 -1072 c 0
 117 -1065 121 -1059 139 -1035 c 0
 157 -1011 215 -923 215 -825 c 0
 215 -685 126 -610 0 -610 c 1
 0 -408 l 1
 24 -474 123 -569 155 -598 c 0
 187 -627 200 -644 212 -662 c 1
 214 -649 215 -635 215 -621 c 0
 215 -481 126 -406 0 -406 c 1
 0 -204 l 1
 24 -270 123 -365 155 -394 c 0
 187 -423 200 -440 212 -458 c 1
 214 -445 215 -431 215 -417 c 0
 215 -277 126 -202 0 -202 c 1
 0 0 l 1
EndSplineSet
EndChar

StartChar: u1D171
Encoding: 119153 119153 2208
Width: 254
Flags: W
HStem: -20 20G<0 12>
VStem: 215 39<-1121.71 -929.541 -865.378 -725.541 -661.378 -521.541 -457.378 -318.556>
LayerCount: 2
Fore
SplineSet
0 0 m 1
 24 -66 123 -161 171 -206 c 0
 219 -251 254 -315 254 -393 c 0
 254 -430 249 -467 237 -505 c 1
 248 -533 254 -564 254 -597 c 0
 254 -634 249 -671 237 -709 c 1
 248 -737 254 -768 254 -801 c 0
 254 -838 249 -875 237 -913 c 1
 248 -941 254 -972 254 -1005 c 0
 254 -1093 221 -1189 153 -1269 c 0
 142 -1282 135 -1288 129 -1288 c 0
 123 -1288 117 -1283 117 -1276 c 0
 117 -1269 121 -1263 139 -1239 c 0
 157 -1215 215 -1127 215 -1029 c 0
 215 -889 126 -814 0 -814 c 1
 0 -612 l 1
 24 -678 123 -773 155 -802 c 0
 187 -831 200 -848 212 -866 c 1
 214 -853 215 -839 215 -825 c 0
 215 -685 126 -610 0 -610 c 1
 0 -408 l 1
 24 -474 123 -569 155 -598 c 0
 187 -627 200 -644 212 -662 c 1
 214 -649 215 -635 215 -621 c 0
 215 -481 126 -406 0 -406 c 1
 0 -204 l 1
 24 -270 123 -365 155 -394 c 0
 187 -423 200 -440 212 -458 c 1
 214 -445 215 -431 215 -417 c 0
 215 -277 126 -202 0 -202 c 1
 0 0 l 1
EndSplineSet
EndChar

StartChar: u1D172
Encoding: 119154 119154 2209
Width: 254
Flags: W
HStem: -20 20G<0 12>
VStem: 215 39<-1325.71 -1133.54 -1069.38 -929.541 -865.378 -725.541 -661.378 -521.541 -457.378 -318.556>
LayerCount: 2
Fore
SplineSet
0 0 m 1
 24 -66 123 -161 171 -206 c 0
 219 -251 254 -315 254 -393 c 0
 254 -430 249 -467 237 -505 c 1
 248 -533 254 -564 254 -597 c 0
 254 -634 249 -671 237 -709 c 1
 248 -737 254 -768 254 -801 c 0
 254 -838 249 -875 237 -913 c 1
 248 -941 254 -972 254 -1005 c 0
 254 -1042 249 -1079 237 -1117 c 1
 248 -1145 254 -1176 254 -1209 c 0
 254 -1297 221 -1393 153 -1473 c 0
 142 -1486 135 -1492 129 -1492 c 0
 123 -1492 117 -1487 117 -1480 c 0
 117 -1473 121 -1467 139 -1443 c 0
 157 -1419 215 -1331 215 -1233 c 0
 215 -1093 126 -1018 0 -1018 c 1
 0 -816 l 1
 24 -882 123 -977 155 -1006 c 0
 187 -1035 200 -1052 212 -1070 c 1
 214 -1057 215 -1043 215 -1029 c 0
 215 -889 126 -814 0 -814 c 1
 0 -612 l 1
 24 -678 123 -773 155 -802 c 0
 187 -831 200 -848 212 -866 c 1
 214 -853 215 -839 215 -825 c 0
 215 -685 126 -610 0 -610 c 1
 0 -408 l 1
 24 -474 123 -569 155 -598 c 0
 187 -627 200 -644 212 -662 c 1
 214 -649 215 -635 215 -621 c 0
 215 -481 126 -406 0 -406 c 1
 0 -204 l 1
 24 -270 123 -365 155 -394 c 0
 187 -423 200 -440 212 -458 c 1
 214 -445 215 -431 215 -417 c 0
 215 -277 126 -202 0 -202 c 1
 0 0 l 1
EndSplineSet
EndChar

StartChar: u1D17B
Encoding: 119163 119163 2218
Width: 222
Flags: W
HStem: 89 38<-219.993 -178.045>
VStem: 126 96<-48 48>
DStem2: -204 -89 -190 -125 0.964986 0.262303<-6.80149 341.79> 211 16 126 0 0.964986 -0.262303<-426.419 -77.8269>
LayerCount: 2
Fore
SplineSet
-220 108 m 0
 -220 118 -211 127 -201 127 c 0
 -195 127 -190 125 -190 125 c 1
 211 16 l 1
 211 16 222 13 222 0 c 0
 222 -13 211 -16 211 -16 c 1
 -190 -125 l 1
 -190 -125 -195 -127 -201 -127 c 0
 -211 -127 -220 -118 -220 -108 c 0
 -220 -99 -213 -91 -204 -89 c 2
 126 0 l 1
 -204 89 l 2
 -213 91 -220 99 -220 108 c 0
EndSplineSet
EndChar

StartChar: u1D17C
Encoding: 119164 119164 2219
Width: 49
Flags: W
HStem: -49 98<-40.6152 40.6152>
VStem: -49 98<-40.6152 40.6152>
LayerCount: 2
Fore
SplineSet
-49 0 m 0
 -49 27 -27 49 0 49 c 0
 27 49 49 27 49 0 c 0
 49 -27 27 -49 0 -49 c 0
 -27 -49 -49 -27 -49 0 c 0
EndSplineSet
EndChar

StartChar: u1D17D
Encoding: 119165 119165 2220
Width: 152
Flags: W
HStem: -15 30<-151.99 151.99>
VStem: -152 304<-15 15>
LayerCount: 2
Fore
SplineSet
-152 0 m 0
 -152 15 -138 15 -138 15 c 1
 138 15 l 1
 138 15 152 15 152 0 c 0
 152 -15 138 -15 138 -15 c 1
 -138 -15 l 1
 -138 -15 -152 -15 -152 0 c 0
EndSplineSet
EndChar

StartChar: u1D17E
Encoding: 119166 119166 2221
Width: 114
Flags: W
HStem: 0 198
VStem: -82 164<174.004 194>
LayerCount: 2
Fore
SplineSet
-82 185 m 0
 -82 194 -75 198 -68 198 c 0
 -59 198 -50 194 -41 190 c 0
 -32 186 -13 180 0 180 c 0
 13 180 32 186 41 190 c 0
 50 194 59 198 68 198 c 0
 75 198 82 194 82 185 c 0
 82 179 78 174 78 174 c 1
 59 142 30 77 21 41 c 0
 12 5 10 0 0 0 c 0
 -10 0 -12 5 -21 41 c 0
 -30 77 -59 142 -78 174 c 1
 -78 174 -82 179 -82 185 c 0
EndSplineSet
EndChar

StartChar: u1D17F
Encoding: 119167 119167 2222
Width: 126
Flags: W
HStem: 0 21G<-122 -108.5 61.5 120>
VStem: -126 252<3 5>
DStem2: -124 11 -102 11 0.282166 0.959365<-8.14613 283.408> 9 402 -24 277 0.284422 -0.958699<110.451 405.858>
LayerCount: 2
Fore
SplineSet
-126 3 m 0
 -126 5 -124 11 -124 11 c 1
 -9 402 l 1
 -9 402 -8 412 0 412 c 0
 8 412 9 402 9 402 c 1
 125 11 l 1
 125 11 126 8 126 6 c 0
 126 3 124 0 116 0 c 2
 65 0 l 2
 58 0 55 11 55 11 c 1
 -24 277 l 1
 -102 11 l 1
 -102 11 -105 0 -112 0 c 2
 -120 0 l 2
 -124 0 -126 1 -126 3 c 0
EndSplineSet
EndChar

StartChar: u1D182
Encoding: 119170 119170 2225
Width: 152
Flags: W
HStem: -180 100<-41.5625 41.5625> -15 30<-151.99 151.99>
VStem: -50 100<-171.562 -88.4375>
LayerCount: 2
Fore
SplineSet
-152 0 m 0
 -152 15 -138 15 -138 15 c 1
 138 15 l 1
 138 15 152 15 152 0 c 0
 152 -15 138 -15 138 -15 c 1
 -138 -15 l 1
 -138 -15 -152 -15 -152 0 c 0
-50 -130 m 0
 -50 -102 -28 -80 0 -80 c 0
 28 -80 50 -102 50 -130 c 0
 50 -158 28 -180 0 -180 c 0
 -28 -180 -50 -158 -50 -130 c 0
EndSplineSet
EndChar

StartChar: u1D188
Encoding: 119176 119176 2231
Width: 270
Flags: W
HStem: 0 44<171.48 235.892> 76 44<34.1082 98.52>
VStem: 0 270<56 64>
LayerCount: 2
Fore
SplineSet
0 60 m 0
 0 64 2 67 20 85 c 0
 38 103 59 120 88 120 c 0
 124 120 155 82 155 82 c 1
 155 82 186 44 214 44 c 0
 231 44 239 47 248 55 c 0
 257 63 261 66 264 66 c 0
 267 66 270 64 270 60 c 0
 270 56 268 53 250 35 c 0
 232 17 211 0 182 0 c 0
 146 0 115 38 115 38 c 1
 115 38 84 76 56 76 c 0
 39 76 31 73 22 65 c 0
 13 57 9 54 6 54 c 0
 3 54 0 56 0 60 c 0
EndSplineSet
EndChar

StartChar: u1D18C
Encoding: 119180 119180 2235
Width: 310
Flags: W
HStem: -1 21G<107 125> 237 35<90.3608 166 227.509 304.342>
VStem: 300 70<179.797 229.765>
LayerCount: 2
Fore
SplineSet
60 218 m 0
 60 223 63 230 76 243 c 0
 89 256 109 270 147 270 c 0
 185 270 198 240 198 240 c 1
 198 240 231 272 279 272 c 0
 323 272 370 247 370 212 c 0
 370 193 354 177 335 177 c 0
 316 177 300 193 300 212 c 0
 300 219 302 225 305 230 c 1
 304 231 294 237 279 237 c 0
 241 237 220 218 207 195 c 0
 194 172 148 4 148 4 c 2
 148 1 134 -1 116 -1 c 0
 98 -1 77 1 77 6 c 1
 77 6 137 176 137 218 c 0
 137 231 130 239 118 239 c 0
 103 239 93 234 85 224 c 0
 77 214 73 210 68 210 c 0
 63 210 60 213 60 218 c 0
EndSplineSet
EndChar

StartChar: u1D18D
Encoding: 119181 119181 2236
Width: 226
Flags: W
HStem: -22 33<117.956 183.342> 237 35<156.902 213.342>
VStem: 53 70<20.282 72.2031> 85 67<169.455 234.44> 191 68<15.3847 79.7527> 209 70<179.797 229.765>
LayerCount: 2
Fore
SplineSet
53 40 m 0xe8
 53 59 69 75 88 75 c 0
 107 75 123 59 123 40 c 0
 123 33 121 26 117 20 c 1
 119 18 129 11 150 11 c 0
 175 11 191 30 191 47 c 0xe8
 191 66 171 80 151 91 c 0
 109 115 85 152 85 186 c 0
 85 238 139 272 188 272 c 0
 232 272 279 247 279 212 c 0
 279 193 263 177 244 177 c 0
 225 177 209 193 209 212 c 0
 209 219 211 225 214 230 c 1
 213 231 203 237 188 237 c 0
 162 237 152 218 152 205 c 0xd4
 152 181 169 171 190 159 c 0
 228 138 259 103 259 66 c 0
 259 10 198 -22 150 -22 c 0
 112 -22 53 2 53 40 c 0xe8
EndSplineSet
EndChar

StartChar: u1D18E
Encoding: 119182 119182 2237
Width: 266
Flags: W
HStem: 0 59<194.76 247.514> 197 75<79.5096 228>
VStem: 221 70<61.9698 125.203>
DStem2: 55 51 143 92 0.76484 0.64422<-40.453 8.19058 93.719 226.373>
LayerCount: 2
Fore
SplineSet
25 21 m 0
 25 28 33 35 55 51 c 0
 60 55 228 197 228 197 c 1
 111 197 l 2
 96 197 89 191 76 178 c 0
 72 174 68 173 64 173 c 0
 60 173 49 173 49 181 c 1
 85 263 l 1
 85 263 90 272 94 272 c 2
 331 272 l 2
 338 272 339 269 339 264 c 0
 339 261 338 256 335 253 c 2
 143 92 l 1
 143 92 150 94 155 94 c 0
 173 94 188 86 200 77 c 1
 215 64 227 59 249 59 c 1
 233 62 221 76 221 93 c 0
 221 112 237 128 256 128 c 0
 275 128 291 112 291 93 c 0
 291 44 233 0 182 0 c 0
 162 0 149 6 137 13 c 0
 122 22 105 27 89 27 c 0
 76 27 63 25 56 18 c 0
 49 11 45 8 38 8 c 0
 31 8 25 14 25 21 c 0
EndSplineSet
EndChar

StartChar: u1D18F
Encoding: 119183 119183 2238
Width: 380
Flags: W
HStem: -180 26<0.0051651 55.9414 150.004 203.995> -20 47<215.802 295.413> 222 46<273.329 359.5> 237 35<130.143 213>
VStem: 342 76<81.9279 219.495>
DStem2: 59 -135 151 -139 0.288907 0.957357<17.7649 195.947 208.236 376.241>
LayerCount: 2
Fore
SplineSet
0 -167 m 0xe8
 0 -159 7 -154 31 -154 c 0
 53 -154 59 -135 59 -135 c 1
 161 203 l 1
 161 203 166 220 166 226 c 0
 166 233 163 237 155 237 c 0
 133 237 108 200 98 178 c 0
 88 156 85 154 80 154 c 0
 75 154 72 157 72 162 c 0
 72 167 73 172 85 197 c 0
 97 222 126 272 184 272 c 0xd8
 242 272 250 225 250 225 c 1
 250 225 283 268 338 268 c 0
 381 268 418 228 418 172 c 0
 418 68 355 -20 272 -20 c 0
 235 -20 212 -3 201 27 c 1
 201 26 151 -139 151 -139 c 1
 151 -139 150 -142 150 -144 c 0
 150 -148 155 -154 173 -154 c 0
 197 -154 204 -159 204 -167 c 0
 204 -175 197 -180 173 -180 c 2
 31 -180 l 2
 7 -180 0 -175 0 -167 c 0xe8
211 61 m 1
 211 40 226 27 244 27 c 0
 315 27 342 117 342 178 c 0
 342 201 330 222 310 222 c 0xe8
 295 222 274 221 249 187 c 1
 211 61 l 1
EndSplineSet
EndChar

StartChar: u1D190
Encoding: 119184 119184 2239
Width: 405
Flags: W
HStem: -20 38<370 435.468> -1 21G<106 124 226 244> 236 36<94.5494 165 224.387 285 344.387 401>
VStem: 327 71<18.4977 116.691> 375 71<139.201 235.92> 470 25<54.8035 100.582>
LayerCount: 2
Fore
SplineSet
35 161 m 0x6c
 35 166 37 176 48 199 c 0
 59 222 96 272 142 272 c 0
 188 272 202 230 202 230 c 1
 202 230 231 272 262 272 c 0
 308 272 322 230 322 230 c 1
 322 230 351 272 382 272 c 0
 420 272 446 242 446 206 c 0x6c
 446 191 423 126 423 126 c 1
 423 126 398 52 398 33 c 0
 398 25 400 18 408 18 c 0
 433 18 462 53 470 76 c 0
 478 99 482 102 487 102 c 0
 492 102 495 99 495 94 c 0
 495 49 439 -20 385 -20 c 0
 355 -20 327 6 327 43 c 0xb4
 327 62 352 136 352 136 c 1
 352 136 375 201 375 216 c 0
 375 225 368 236 359 236 c 0
 338 236 325 188 325 188 c 1
 267 4 l 2
 267 1 253 -1 235 -1 c 0
 217 -1 196 1 196 6 c 1
 196 6 255 189 255 216 c 0
 255 225 248 236 239 236 c 0
 218 236 205 188 205 188 c 1
 147 4 l 2
 147 1 133 -1 115 -1 c 0
 97 -1 76 1 76 6 c 1
 76 6 135 189 135 216 c 0
 135 225 128 236 119 236 c 0
 89 236 65 195 58 174 c 0
 51 153 48 153 43 153 c 0
 38 153 35 156 35 161 c 0x6c
EndSplineSet
EndChar

StartChar: u1D191
Encoding: 119185 119185 2240
Width: 356
Flags: W
HStem: -147 120<-67.6778 -7.01851> 234 38<57.0145 136 255 333.986> 417 33<317.688 355.353>
VStem: -87 100<-114.574 -35.4375> 343 100<341.438 415.533>
LayerCount: 2
Fore
SplineSet
-87 -77 m 0
 -87 -49 -65 -27 -37 -27 c 0
 -9 -27 13 -49 13 -77 c 0
 13 -92 6 -106 -4 -115 c 1
 73 -104 108 82 136 234 c 1
 77 234 l 1
 77 234 57 234 57 253 c 0
 57 272 77 272 77 272 c 1
 146 272 l 1
 182 369 254 450 342 450 c 0
 389 450 443 428 443 383 c 0
 443 355 421 333 393 333 c 0
 365 333 343 355 343 383 c 0
 343 396 348 408 356 417 c 1
 308 417 270 352 255 272 c 1
 314 272 l 1
 314 272 334 272 334 253 c 0
 334 234 314 234 314 234 c 1
 245 234 l 1
 218 97 157 -147 -15 -147 c 0
 -53 -147 -87 -119 -87 -77 c 0
EndSplineSet
EndChar

StartChar: u1D196
Encoding: 119190 119190 2245
Width: 248
Flags: W
HStem: -9 37<-144.5 -55.0292> -1 21G<20 38> 210 31<-247.481 -136> 237 33<-29.8307 82.4975 141.767 217.342>
VStem: -175 76<28.2775 145.376> -10 71<-0.331635 31.6667> 213 70<179.797 229.765>
DStem2: -136 216 -52 224 0.301131 0.953583<-141.608 0 20.8256 43.1709 61.0795 144.906>
LayerCount: 2
Fore
SplineSet
-248 222 m 0xae
 -248 238 -224 241 -212 241 c 0xae
 -192 241 -127 243 -127 243 c 1
 -106 311 l 2
 -92 356 -19 367 -16 367 c 0
 -13 367 -10 365 -10 362 c 0
 -10 355 -44 251 -44 251 c 1
 -44 251 55 270 87 270 c 0
 111 270 111 240 111 240 c 1
 111 240 144 272 192 272 c 0
 236 272 283 247 283 212 c 0
 283 193 267 177 248 177 c 0
 229 177 213 193 213 212 c 0
 213 219 215 225 218 230 c 1
 217 231 207 237 192 237 c 0
 154 237 133 218 120 195 c 0
 107 172 61 4 61 4 c 2
 61 1 47 -1 29 -1 c 0x5e
 11 -1 -10 1 -10 6 c 1
 -1 39 l 1
 -1 39 -71 -9 -126 -9 c 0
 -163 -9 -175 18 -175 53 c 0
 -175 107 -136 216 -136 216 c 1
 -136 216 -179 210 -218 210 c 0
 -233 210 -248 210 -248 222 c 0xae
-99 54 m 0
 -99 39 -94 28 -83 28 c 0
 -32 28 12 83 12 83 c 1
 12 83 54 201 54 223 c 0
 54 229 47 233 39 233 c 0
 8 233 -52 224 -52 224 c 1
 -52 224 -99 91 -99 54 c 0
EndSplineSet
EndChar

StartChar: u1D197
Encoding: 119191 119191 2246
Width: 310
Flags: W
HStem: -141 82<-250.409 -139.373> -141 75<135.118 250.056> 59 82<139.373 250.409> 66 75<-250.056 -135.118>
VStem: -310 31<-38.0056 46.7263> 279 31<-46.7263 38.0056>
LayerCount: 2
Fore
SplineSet
-310 0 m 0x9c
 -310 74 -254 141 -185 141 c 0x9c
 -97 141 -20 85 32 33 c 0
 84 -19 149 -66 218 -66 c 0
 262 -66 279 -33 279 0 c 0
 279 33 251 59 218 59 c 0
 206 59 194 55 180 48 c 0
 172 44 163 42 155 42 c 0
 131 42 111 63 111 87 c 0
 111 124 147 141 185 141 c 0
 255 141 310 74 310 0 c 0
 310 -74 254 -141 185 -141 c 0x6c
 97 -141 20 -85 -32 -33 c 0
 -84 19 -149 66 -218 66 c 0
 -262 66 -279 33 -279 0 c 0
 -279 -33 -251 -59 -218 -59 c 0
 -206 -59 -194 -55 -180 -48 c 0
 -172 -44 -163 -42 -155 -42 c 0
 -131 -42 -111 -63 -111 -87 c 0
 -111 -124 -147 -141 -185 -141 c 0
 -255 -141 -310 -74 -310 0 c 0x9c
EndSplineSet
EndChar

StartChar: u1D198
Encoding: 119192 119192 2247
Width: 310
Flags: W
HStem: -141 82<139.373 250.409> -141 75<-250.056 -135.118> 59 82<-250.409 -139.373> 66 75<135.118 250.056>
VStem: -310 31<-46.7263 38.0056> 279 31<-38.0056 46.7263>
LayerCount: 2
Fore
SplineSet
-310 0 m 0x5c
 -310 74 -255 141 -185 141 c 0
 -147 141 -111 124 -111 87 c 0
 -111 63 -131 42 -155 42 c 0
 -163 42 -172 44 -180 48 c 0
 -194 55 -206 59 -218 59 c 0
 -251 59 -279 33 -279 0 c 0
 -279 -33 -262 -66 -218 -66 c 0x6c
 -149 -66 -84 -19 -32 33 c 0
 20 85 97 141 185 141 c 0
 254 141 310 74 310 0 c 0
 310 -74 255 -141 185 -141 c 0
 147 -141 111 -124 111 -87 c 0
 111 -63 131 -42 155 -42 c 0
 163 -42 172 -44 180 -48 c 0
 194 -55 206 -59 218 -59 c 0x9c
 251 -59 279 -33 279 0 c 0
 279 33 262 66 218 66 c 0
 149 66 84 19 32 -33 c 0
 -20 -85 -97 -141 -185 -141 c 0
 -254 -141 -310 -74 -310 0 c 0x5c
EndSplineSet
EndChar

StartChar: u1D199
Encoding: 119193 119193 2248
Width: 310
Flags: W
HStem: -141 82<-250.409 -139.373> -141 75<134.336 250.056> 59 82<139.373 250.409> 66 75<-250.056 -134.336>
VStem: -310 31<-38.0056 46.7263> -15 30<-199.99 -75 75 199.99> 279 31<-46.7263 38.0056>
CounterMasks: 1 0e
LayerCount: 2
Fore
SplineSet
-310 0 m 0x9e
 -310 74 -254 141 -185 141 c 0x9e
 -121 141 -62 111 -15 75 c 1
 -15 186 l 1
 -15 186 -15 200 0 200 c 0
 15 200 15 186 15 186 c 1
 15 49 l 1
 21 44 27 38 32 33 c 0
 84 -19 149 -66 218 -66 c 0
 262 -66 279 -33 279 0 c 0
 279 33 251 59 218 59 c 0
 206 59 194 55 180 48 c 0
 172 44 163 42 155 42 c 0
 131 42 111 63 111 87 c 0
 111 124 147 141 185 141 c 0
 255 141 310 74 310 0 c 0
 310 -74 254 -141 185 -141 c 0x6e
 121 -141 62 -111 15 -75 c 1
 15 -186 l 1
 15 -186 15 -200 0 -200 c 0
 -15 -200 -15 -186 -15 -186 c 1
 -15 -49 l 1
 -21 -44 -27 -38 -32 -33 c 0
 -84 19 -149 66 -218 66 c 0
 -262 66 -279 33 -279 0 c 0
 -279 -33 -251 -59 -218 -59 c 0
 -206 -59 -194 -55 -180 -48 c 0
 -172 -44 -163 -42 -155 -42 c 0
 -131 -42 -111 -63 -111 -87 c 0
 -111 -124 -147 -141 -185 -141 c 0
 -255 -141 -310 -74 -310 0 c 0x9e
EndSplineSet
EndChar

StartChar: u1D1AA
Encoding: 119210 119210 2265
Width: 168
Flags: W
HStem: 0 21G<-160.5 -145.5 145.5 160.5> 190 162<-138 138>
VStem: -168 30<0.0101471 190> 138 30<0.0101471 190>
LayerCount: 2
Fore
SplineSet
-168 14 m 1
 -168 341 l 2
 -168 347 -162 352 -156 352 c 2
 156 352 l 2
 162 352 168 347 168 341 c 2
 168 14 l 1
 168 14 168 0 153 0 c 0
 138 0 138 14 138 14 c 1
 138 190 l 1
 -138 190 l 1
 -138 14 l 1
 -138 14 -138 0 -153 0 c 0
 -168 0 -168 14 -168 14 c 1
EndSplineSet
EndChar

StartChar: u1D1AB
Encoding: 119211 119211 2266
Width: 126
Flags: W
HStem: 0 21G<-4 4>
VStem: -126 71<377.607 412>
DStem2: 24 135 -125 401 0.284422 -0.958699<-295.406 0> 24 135 9 10 0.282166 0.959365<0 291.554>
LayerCount: 2
Fore
SplineSet
-126 406 m 0
 -126 409 -124 412 -116 412 c 2
 -65 412 l 2
 -58 412 -55 401 -55 401 c 1
 24 135 l 1
 102 401 l 1
 102 401 105 412 112 412 c 2
 120 412 l 2
 124 412 126 411 126 409 c 0
 126 407 124 401 124 401 c 1
 9 10 l 1
 9 10 8 0 0 0 c 0
 -8 0 -9 10 -9 10 c 1
 -125 401 l 1
 -125 401 -126 404 -126 406 c 0
EndSplineSet
EndChar

StartChar: u1D1AE
Encoding: 119214 119214 2269
Width: 1012
Flags: W
HStem: 0 78<551.519 601.876> 6 40<757.443 824.116> 10 96<923.332 1002.93> 60 36<432.072 450.549> 261 81<67.3873 127.531> 269 49<522.574 575.854> 327 72<374.829 423.087> 525 33<181.549 321.562>
VStem: 1 62<342.561 426.224> 144 29<365.987 406.798> 285 25<165.454 191.932> 328 19<417.994 427.719> 425 66<392 458.023> 458 55<172.012 249.183> 459 78<99.9996 150.26> 577 52<201.926 268.784> 662 69<97.5126 221.015> 682 49<159.281 225> 838 73<74.2426 242.946> 915 96<18.0684 97.668>
LayerCount: 2
Fore
SplineSet
1 351 m 0x89f1b0
 1 456 107 521 198 547 c 0
 222 554 248 558 275 558 c 0
 347 558 422 530 463 469 c 0
 477 447 491 420 491 394 c 0
 491 390 491 387 490 383 c 0
 485 352 461 327 429 327 c 2
 424 327 l 1
 378 331 340 380 328 410 c 0
 326 416 324 422 324 428 c 0
 324 436 327 442 332 442 c 0
 343 440 342 435 347 430 c 0
 352 425 366 399 388 399 c 0
 390 399 392 399 394 400 c 0
 413 405 425 415 425 431 c 0
 425 436 424 442 421 449 c 0
 409 478 353 530 319 532 c 1
 295 530 273 495 267 464 c 0
 266 459 265 454 265 449 c 0
 265 420 280 386 299 362 c 0
 321 335 343 317 352 290 c 0
 353 286 354 281 354 276 c 0
 354 248 333 210 324 195 c 0
 318 184 310 174 310 164 c 0
 310 157 314 150 326 145 c 0
 356 132 404 100 421 96 c 1
 425 96 l 2x13f9b0
 437 96 448 108 453 118 c 0
 458 128 459 138 459 148 c 0x13f330
 459 157 458 167 458 176 c 0x13f530
 458 181 458 186 459 191 c 0
 462 207 471 231 478 246 c 1
 497 281 523 318 568 318 c 0
 585 318 629 301 629 257 c 0
 629 207 567 157 545 140 c 0
 539 136 537 130 537 123 c 0
 537 111 544 98 551 92 c 0
 562 82 577 78 591 78 c 0
 617 78 642 92 654 115 c 0
 660 127 662 140 662 156 c 0x85f3b0
 662 179 672 201 682 222 c 0x85f170
 682 223 683 224 683 225 c 2
 686 232 l 2
 694 250 702 268 714 283 c 1
 716 286 l 2
 724 298 737 313 752 313 c 1
 759 312 764 307 764 299 c 0
 764 295 763 291 761 287 c 0
 741 253 731 215 731 176 c 0
 731 170 732 165 732 159 c 0
 734 124 740 79 768 54 c 0
 774 49 782 46 789 46 c 0
 805 46 821 57 828 72 c 0
 835 87 838 103 838 120 c 0
 838 135 836 150 834 164 c 0
 828 202 820 240 804 275 c 0
 790 306 770 341 743 363 c 0
 715 387 683 407 651 425 c 0
 619 444 579 458 542 464 c 0
 532 466 514 464 514 480 c 1
 516 489 522 491 530 491 c 0
 537 491 545 489 551 488 c 0
 590 484 791 430 865 312 c 0
 902 252 911 205 911 168 c 0
 911 149 909 133 907 119 c 0
 905 97 866 9 792 6 c 1
 787 6 l 1x41f1b0
 763 11 737 15 716 27 c 0
 707 32 699 39 693 48 c 0
 686 58 683 71 669 71 c 0
 650 70 626 42 612 30 c 1
 609 27 l 1
 595 16 575 0 556 0 c 2
 551 0 l 1x81f1b0
 524 5 491 38 476 53 c 0
 472 57 466 60 460 60 c 0x11f1b0
 453 60 445 56 437 48 c 0
 424 34 410 16 392 10 c 0x21f1b0
 388 9 385 8 382 8 c 0
 363 8 354 30 344 46 c 0x41f1b0
 331 66 321 90 298 100 c 0
 292 103 285 104 280 104 c 0
 252 104 237 73 220 52 c 0
 202 29 174 -2 142 -2 c 0
 139 -2 137 -1 134 -1 c 0
 118 2 112 10 112 19 c 0
 112 38 136 64 149 78 c 1
 153 83 l 1
 168 99 183 113 202 123 c 1
 232 137 269 147 281 181 c 0
 284 189 285 197 285 206 c 0
 285 234 272 266 255 286 c 1
 252 289 l 2
 236 306 195 350 195 373 c 1
 198 395 246 482 252 500 c 0
 253 504 254 507 254 510 c 0
 254 521 245 525 237 525 c 0
 163 525 63 474 63 392 c 0
 63 387 63 382 64 377 c 0
 67 354 73 342 91 342 c 2
 95 342 l 1
 116 343 136 371 144 391 c 1
 150 403 154 407 157 407 c 0
 161 407 173 402 173 375 c 1
 171 343 157 304 134 281 c 0
 120 267 103 261 86 261 c 0
 46 261 6 294 2 336 c 0
 1 341 1 346 1 351 c 0x89f1b0
513 202 m 1x05f530
 514 189 516 172 529 172 c 0
 532 172 535 173 539 175 c 0
 559 184 571 207 576 227 c 0
 577 231 577 234 577 238 c 0
 577 253 571 269 553 269 c 1
 525 267 513 235 513 210 c 2
 513 202 l 1x05f530
915 58 m 0
 915 84 937 106 963 106 c 0
 990 106 1011 84 1011 58 c 0
 1011 31 990 10 963 10 c 0x21f130
 937 10 915 31 915 58 c 0
EndSplineSet
EndChar

StartChar: u1D1AF
Encoding: 119215 119215 2270
Width: 442
Flags: W
HStem: 51 102<59.712 129.763 302.914 381.759> 177 106<10.3821 90.9219 351.046 419.764> 217 26<105.283 149.717 287.19 336.672> 267 27<195.311 204.325 234.275 248.689> 302 103<50.8868 133.911 313.283 380.507>
VStem: 40 103<309.992 393.609> 49 102<62.3908 146.716> 158 28<193.943 212.811 249.19 258.365> 170 106<11.5679 92.0781 366.948 437.166> 210 26<107.283 158.15 296.676 346.672> 258 25<195.303 203.86 249.141 257.122> 292 103<65.3908 137.703 307.87 389.746>
LayerCount: 2
Fore
SplineSet
0 233 m 0xad10
 0 241 1 249 5 256 c 0
 10 264 16 271 24 276 c 0
 29 279 37 282 43 283 c 0xcd10
 46 283 48 284 50 284 c 0
 59 284 69 281 76 276 c 0
 87 268 94 256 105 248 c 0
 111 244 119 244 128 244 c 2
 134 244 l 2
 141 244 148 244 153 249 c 0
 157 253 159 260 159 266 c 2
 159 270 l 1
 158 277 153 282 148 286 c 2
 141 292 l 2
 135 298 126 301 118 302 c 1
 90 302 l 2
 86 302 83 302 79 303 c 0
 67 305 56 312 50 321 c 0
 46 327 43 334 41 340 c 0
 40 343 40 347 40 350 c 0
 40 356 41 362 43 367 c 0
 49 389 71 405 94 405 c 0
 96 405 99 404 101 404 c 0
 108 403 116 401 121 397 c 0
 138 386 143 364 143 346 c 2
 143 333 l 2
 143 325 145 318 157 307 c 0
 163 301 173 294 188 294 c 0
 206 294 206 315 206 324 c 0
 206 333 204 340 200 347 c 1
 192 357 180 365 173 375 c 0
 167 383 164 393 164 402 c 0
 164 404 165 407 165 409 c 0
 166 415 169 422 172 428 c 0
 177 436 184 442 192 446 c 0
 200 450 209 451 217 451 c 0
 234 451 250 444 260 431 c 0
 264 426 268 418 269 412 c 0
 270 409 270 407 270 404 c 0
 270 387 259 371 248 360 c 0
 238 349 232 350 232 325 c 0
 232 301 241 292 255 289 c 1
 265 289 271 298 279 306 c 0
 286 313 292 320 292 330 c 1
 291 334 291 339 291 343 c 0
 292 362 297 384 313 395 c 0
 319 398 327 401 333 402 c 1
 339 402 l 2
 362 402 385 386 392 365 c 0
 394 360 394 355 394 350 c 0
 394 346 394 342 393 338 c 0
 392 331 389 324 385 319 c 0
 378 309 367 303 356 301 c 0
 353 300 349 300 346 300 c 0
 339 300 332 301 325 301 c 0
 322 301 319 300 316 300 c 0
 309 298 303 293 297 287 c 0
 292 282 287 277 285 270 c 0
 284 267 283 263 283 260 c 0
 283 256 284 252 287 249 c 0
 291 243 298 243 305 243 c 2
 314 243 l 2xbd30
 323 243 330 243 337 247 c 1
 347 255 354 267 365 275 c 0
 372 280 381 283 390 283 c 0
 393 283 396 283 399 282 c 0
 405 281 412 279 418 275 c 0
 426 270 432 263 436 255 c 0
 440 248 441 239 441 231 c 0
 441 211 433 199 420 186 c 1
 415 183 408 179 402 178 c 0
 399 177 397 177 394 177 c 0xcd30
 377 177 361 188 350 199 c 0
 340 208 338 217 317 217 c 2
 307 217 l 2
 299 217 289 216 285 204 c 0
 284 201 284 199 284 196 c 0
 284 181 293 175 298 170 c 0
 304 164 309 158 317 157 c 1
 345 157 l 2
 349 157 352 157 356 156 c 0
 368 154 379 148 386 138 c 1
 394 119 l 2
 395 116 395 112 395 108 c 0
 395 102 394 97 393 92 c 0
 386 70 364 54 341 54 c 0
 339 54 336 55 334 55 c 0
 328 56 319 58 314 62 c 0
 297 73 292 95 292 114 c 0
 292 119 293 123 293 127 c 0
 293 134 290 141 278 152 c 0
 274 156 265 164 256 164 c 0
 252 164 249 163 245 159 c 0
 237 153 236 146 236 139 c 2
 236 129 l 2xad70
 236 121 236 113 240 107 c 0
 248 96 260 89 268 78 c 0
 273 71 276 61 276 52 c 0
 276 50 275 47 275 45 c 0
 274 38 271 31 268 26 c 0
 263 18 256 11 248 7 c 0
 240 3 232 2 224 2 c 0
 207 2 190 9 180 23 c 0
 176 28 172 35 171 42 c 0
 170 45 170 47 170 50 c 0xa890
 170 67 181 83 192 94 c 0
 201 103 210 105 210 127 c 2
 210 131 l 2
 210 139 210 146 204 152 c 0
 200 157 194 161 188 161 c 0
 186 161 185 161 183 160 c 0
 177 159 166 150 165 150 c 0
 153 138 151 131 151 124 c 0
 151 120 152 116 152 111 c 0
 152 92 146 70 130 59 c 0
 125 55 116 53 110 52 c 0
 108 52 105 51 103 51 c 0
 80 51 58 67 51 89 c 0
 49 94 49 99 49 104 c 0xaa50
 49 108 49 112 50 116 c 0
 51 123 55 130 58 135 c 0
 65 145 76 151 87 153 c 1
 116 153 l 2
 120 153 123 153 127 154 c 0
 135 156 140 161 146 167 c 0
 150 170 153 173 155 178 c 0
 157 182 158 187 158 192 c 2
 158 196 l 2
 158 203 156 209 150 213 c 0
 144 216 136 218 129 218 c 2
 125 218 l 2
 103 218 101 209 92 200 c 0
 81 189 65 178 48 178 c 0
 45 178 43 178 40 179 c 0
 33 180 26 184 21 188 c 0
 7 198 0 216 0 233 c 0xad10
186 226 m 0
 186 204 202 185 222 185 c 0
 242 185 258 204 258 226 c 0
 258 249 242 267 222 267 c 0x9930
 202 267 186 249 186 226 c 0
EndSplineSet
EndChar

